{
.appVersion = "922";
classes = (
{
automatic = 1;

glyphs = (
{
glyphname = A;
lastChange = "2016-09-21 08:56:34 +0000";
layers = (
{
anchors = (
{
name = bottom;
position = "{351, 0}";
},
{
name = ogonek;
position = "{686, 10}";
},
{
name = top;
position = "{408, 728}";
}
);
background = {
anchors = (
{
name = bottom;
position = "{371, 0}";
},
{
name = ogonek;
position = "{706, 10}";
},
{
name = top;
position = "{428, 728}";
}
);
paths = (
{
closed = 1;
nodes = (
"384 691 LINE",
"357 691 LINE",
"654 0 LINE",
"712 0 LINE",
"397 728 LINE",
"345 728 LINE",
"30 0 LINE",
"88 0 LINE"
);
},
{
closed = 1;
nodes = (
"585 197 LINE",
"567 247 LINE",
"177 247 LINE",
"160 197 LINE"
);
}
);
};
layerId = "9E718F8A-2CEA-4931-B05D-987794BD97DA";
paths = (
{
closed = 1;
nodes = (
"419 691 LINE",
"392 691 LINE",
"634 0 LINE",
"692 0 LINE",
"434 728 LINE",
"382 728 LINE",
"10 0 LINE",
"70 0 LINE"
);
},
{
closed = 1;
nodes = (
"581 197 LINE",
"567 247 LINE",
"177 247 LINE",
"156 197 LINE"
);
}
);
width = 742;
},
{
anchors = (
{
name = bottom;
position = "{370, 0}";
},
{
name = ogonek;
position = "{711, 10}";
},
{
name = top;
position = "{426, 728}";
}
);
background = {
paths = (
{
closed = 1;
nodes = (
"410 596 LINE",
"371 596 LINE",
"627 0 LINE",
"791 0 LINE",
"456 728 LINE",
"322 728 LINE",
"-13 0 LINE",
"154 0 LINE"
);
},
{
closed = 1;
nodes = (
"629 159 LINE",
"566 285 LINE",
"202 285 LINE",
"139 159 LINE"
);
}
);
};
layerId = "E1B555A7-F4E1-459C-9C1A-AE952106EEF9";
paths = (
{
closed = 1;
nodes = (
"439 596 LINE",
"400 596 LINE",
"611 0 LINE",
"772 0 LINE",
"493 728 LINE",
"359 728 LINE",
"-33 0 LINE",
"137 0 LINE"
);
},
{
closed = 1;
nodes = (
"622 159 LINE",
"569 285 LINE",
"206 285 LINE",
"132 159 LINE"
);
}
);
width = 778;
}
);
leftKerningGroup = A;
rightKerningGroup = A;
unicode = 0041;
userData = {
anchors = (
);
b = {
};
com.typemytype.robofont.layerData = {
b = {
anchors = (
);
components = (
);
contours = (
{
points = (
{
segmentType = line;
smooth = 0;
x = 403;
y = 502;
},
{
segmentType = line;
smooth = 0;
x = 703;
y = 1275;
},
{
segmentType = line;
smooth = 0;
x = 705;
y = 1275;
},
{
segmentType = line;
smooth = 0;
x = 1004;
y = 502;
}
);
},
{
points = (
{
segmentType = curve;
smooth = 1;
x = 150;
y = 0;
},
{
smooth = 0;
x = 181;
y = 0;
},
{
smooth = 0;
x = 214;
y = 15;
},
{
segmentType = curve;
smooth = 1;
x = 229;
y = 53;
},
{
segmentType = line;
smooth = 0;
x = 356;
y = 373;
},
{
segmentType = line;
smooth = 0;
x = 1051;
y = 373;
},
{
segmentType = line;
smooth = 1;
x = 1179;
y = 53;
},
{
smooth = 0;
x = 1193;
y = 17;
},
{
smooth = 0;
x = 1228;
y = 0;
},
{
segmentType = curve;
smooth = 1;
x = 1260;
y = 0;
},
{
smooth = 0;
x = 1306;
y = 0;
},
{
smooth = 0;
x = 1354;
y = 31;
},
{
segmentType = curve;
smooth = 1;
x = 1354;
y = 80;
},
{
smooth = 0;
x = 1354;
y = 87;
},
{
smooth = 0;
x = 1352;
y = 97;
},
{
segmentType = curve;
smooth = 0;
x = 1349;
y = 108;
},
{
segmentType = line;
smooth = 1;
x = 871;
y = 1288;
},
{
smooth = 0;
x = 817;
y = 1420;
},
{
smooth = 0;
x = 777;
y = 1430;
},
{
segmentType = curve;
smooth = 1;
x = 710;
y = 1430;
},
{
smooth = 0;
x = 644;
y = 1430;
},
{
smooth = 0;
x = 596;
y = 1413;
},
{
segmentType = curve;
smooth = 1;
x = 542;
y = 1280;
},
{
segmentType = line;
smooth = 1;
x = 66;
y = 108;
},
{
smooth = 0;
x = 62;
y = 97;
},
{
smooth = 0;
x = 60;
y = 87;
},
{
segmentType = curve;
smooth = 1;
x = 60;
y = 78;
},
{
smooth = 0;
x = 60;
y = 32;
},
{
smooth = 0;
x = 106;
y = 0;
}
);
}
);
lib = {
};
name = A;
unicodes = (
);
width = 1414;
};
};
components = (
);
contours = {
};
lib = {
};
name = A;
points = {
};
segmentType = line;
unicodes = (
);
width = 1445;
x = 718;
y = 1232;
};
},
{
glyphname = Aogonek;
lastChange = "2016-09-21 08:56:34 +0000";
layers = (
{
background = {
paths = (
{
closed = 1;
nodes = (
"585 197 LINE",
"567 247 LINE",
"177 247 LINE",
"160 197 LINE"
);
},
{
closed = 1;
nodes = (
"719 -147 OFFCURVE",
"696 -153 OFFCURVE",
"680 -153 CURVE SMOOTH",
"638 -153 OFFCURVE",
"609 -129 OFFCURVE",
"609 -85 CURVE SMOOTH",
"609 -39 OFFCURVE",
"638 0 OFFCURVE",
"705 0 CURVE SMOOTH",
"712 0 LINE",
"397 728 LINE",
"345 728 LINE",
"30 0 LINE",
"88 0 LINE",
"384 691 LINE",
"357 691 LINE",
"654 0 LINE",
"678 39 LINE",
"599 22 OFFCURVE",
"558 -29 OFFCURVE",
"558 -91 CURVE SMOOTH",
"558 -153 OFFCURVE",
"604 -197 OFFCURVE",
"675 -197 CURVE SMOOTH",
"709 -197 OFFCURVE",
"738 -187 OFFCURVE",
"757 -174 CURVE",
"741 -134 LINE"
);
}
);
};
layerId = "9E718F8A-2CEA-4931-B05D-987794BD97DA";
paths = (
{
closed = 1;
nodes = (
"581 197 LINE",
"567 247 LINE",
"177 247 LINE",
"156 197 LINE"
);
},
{
closed = 1;
nodes = (
"688 -147 OFFCURVE",
"664 -153 OFFCURVE",
"647 -153 CURVE SMOOTH",
"607 -153 OFFCURVE",
"584 -131 OFFCURVE",
"584 -89 CURVE SMOOTH",
"584 -48 OFFCURVE",
"609 0 OFFCURVE",
"685 0 CURVE SMOOTH",
"692 0 LINE",
"434 728 LINE",
"382 728 LINE",
"10 0 LINE",
"70 0 LINE",
"419 691 LINE",
"392 691 LINE",
"634 0 LINE",
"662 39 LINE",
"571 24 OFFCURVE",
"531 -31 OFFCURVE",
"531 -95 CURVE SMOOTH",
"531 -157 OFFCURVE",
"573 -197 OFFCURVE",
"641 -197 CURVE SMOOTH",
"674 -197 OFFCURVE",
"706 -186 OFFCURVE",
"724 -174 CURVE",
"711 -133 LINE"
);
}
);
width = 742;
},
{
background = {
paths = (
{
closed = 1;
nodes = (
"629 159 LINE",
"566 285 LINE",
"202 285 LINE",
"139 159 LINE"
);
},
{
closed = 1;
nodes = (
"757 -117 OFFCURVE",
"739 -121 OFFCURVE",
"721 -121 CURVE SMOOTH",
"682 -121 OFFCURVE",
"660 -102 OFFCURVE",
"660 -66 CURVE SMOOTH",
"660 -28 OFFCURVE",
"690 0 OFFCURVE",
"737 0 CURVE SMOOTH",
"791 0 LINE",
"456 728 LINE",
"322 728 LINE",
"-13 0 LINE",
"154 0 LINE",
"410 596 LINE",
"371 596 LINE",
"627 0 LINE",
"649 34 LINE",
"590 11 OFFCURVE",
"558 -36 OFFCURVE",
"558 -90 CURVE SMOOTH",
"558 -159 OFFCURVE",
"616 -204 OFFCURVE",
"690 -204 CURVE SMOOTH",
"727 -204 OFFCURVE",
"763 -196 OFFCURVE",
"794 -183 CURVE",
"777 -108 LINE"
);
}
);
};
layerId = "E1B555A7-F4E1-459C-9C1A-AE952106EEF9";
paths = (
{
closed = 1;
nodes = (
"622 159 LINE",
"569 285 LINE",
"206 285 LINE",
"132 159 LINE"
);
},
{
closed = 1;
nodes = (
"726 -117 OFFCURVE",
"708 -121 OFFCURVE",
"690 -121 CURVE SMOOTH",
"657 -121 OFFCURVE",
"635 -102 OFFCURVE",
"635 -69 CURVE SMOOTH",
"635 -31 OFFCURVE",
"670 0 OFFCURVE",
"717 0 CURVE SMOOTH",
"772 0 LINE",
"493 728 LINE",
"359 728 LINE",
"-33 0 LINE",
"137 0 LINE",
"439 596 LINE",
"400 596 LINE",
"611 0 LINE",
"632 34 LINE",
"571 11 OFFCURVE",
"531 -30 OFFCURVE",
"531 -94 CURVE SMOOTH",
"531 -158 OFFCURVE",
"582 -204 OFFCURVE",
"662 -204 CURVE SMOOTH",
"695 -204 OFFCURVE",
"728 -196 OFFCURVE",
"760 -183 CURVE",
"749 -108 LINE"
);
}
);
width = 778;
}
);
leftKerningGroup = A;
leftMetricsKey = A;
widthMetricsKey = A;
rightKerningGroup = A;
unicode = 0104;
},
{
glyphname = Aring;
lastChange = "2016-09-21 08:56:34 +0000";
layers = (
{
background = {
paths = (
{
closed = 1;
nodes = (
"427 697 OFFCURVE",
"472 741 OFFCURVE",
"472 796 CURVE SMOOTH",
"472 852 OFFCURVE",
"427 896 OFFCURVE",
"371 896 CURVE SMOOTH",
"315 896 OFFCURVE",
"270 852 OFFCURVE",
"270 796 CURVE SMOOTH",
"270 741 OFFCURVE",
"315 697 OFFCURVE",
"371 697 CURVE SMOOTH"
);
},
{
closed = 1;
nodes = (
"341 743 OFFCURVE",
"319 766 OFFCURVE",
"319 796 CURVE SMOOTH",
"319 826 OFFCURVE",
"341 850 OFFCURVE",
"371 850 CURVE SMOOTH",
"401 850 OFFCURVE",
"422 826 OFFCURVE",
"422 796 CURVE SMOOTH",
"422 766 OFFCURVE",
"401 743 OFFCURVE",
"371 743 CURVE SMOOTH"
);
},
{
closed = 1;
nodes = (
"384 691 LINE",
"357 691 LINE",
"654 0 LINE",
"712 0 LINE",
"397 728 LINE",
"345 728 LINE",
"30 0 LINE",
"88 0 LINE"
);
},
{
closed = 1;
nodes = (
"585 197 LINE",
"567 247 LINE",
"177 247 LINE",
"160 197 LINE"
);
}
);
};
layerId = "9E718F8A-2CEA-4931-B05D-987794BD97DA";
paths = (
{
closed = 1;
nodes = (
"70 0 LINE",
"419 691 LINE",
"392 691 LINE",
"634 0 LINE",
"692 0 LINE",
"434 728 LINE",
"382 728 LINE",
"10 0 LINE"
);
},
{
closed = 1;
nodes = (
"581 197 LINE",
"567 247 LINE",
"177 247 LINE",
"156 197 LINE"
);
},
{
closed = 1;
nodes = (
"467 697 OFFCURVE",
"512 741 OFFCURVE",
"512 796 CURVE SMOOTH",
"512 852 OFFCURVE",
"467 896 OFFCURVE",
"411 896 CURVE SMOOTH",
"355 896 OFFCURVE",
"310 852 OFFCURVE",
"310 796 CURVE SMOOTH",
"310 741 OFFCURVE",
"355 697 OFFCURVE",
"411 697 CURVE SMOOTH"
);
},
{
closed = 1;
nodes = (
"381 743 OFFCURVE",
"359 766 OFFCURVE",
"359 796 CURVE SMOOTH",
"359 826 OFFCURVE",
"381 850 OFFCURVE",
"411 850 CURVE SMOOTH",
"441 850 OFFCURVE",
"463 826 OFFCURVE",
"463 796 CURVE SMOOTH",
"463 766 OFFCURVE",
"441 743 OFFCURVE",
"411 743 CURVE SMOOTH"
);
}
);
width = 742;
},
{
background = {
paths = (
{
closed = 1;
nodes = (
"452 692 OFFCURVE",
"503 741 OFFCURVE",
"503 804 CURVE SMOOTH",
"503 867 OFFCURVE",
"452 915 OFFCURVE",
"389 915 CURVE SMOOTH",
"326 915 OFFCURVE",
"276 867 OFFCURVE",
"276 804 CURVE SMOOTH",
"276 741 OFFCURVE",
"326 692 OFFCURVE",
"389 692 CURVE SMOOTH"
);
},
{
closed = 1;
nodes = (
"364 757 OFFCURVE",
"345 778 OFFCURVE",
"345 804 CURVE SMOOTH",
"345 829 OFFCURVE",
"364 850 OFFCURVE",
"389 850 CURVE SMOOTH",
"415 850 OFFCURVE",
"434 829 OFFCURVE",
"434 804 CURVE SMOOTH",
"434 778 OFFCURVE",
"415 757 OFFCURVE",
"389 757 CURVE SMOOTH"
);
},
{
closed = 1;
nodes = (
"410 596 LINE",
"371 596 LINE",
"627 0 LINE",
"791 0 LINE",
"456 728 LINE",
"322 728 LINE",
"-13 0 LINE",
"154 0 LINE"
);
},
{
closed = 1;
nodes = (
"629 159 LINE",
"566 285 LINE",
"202 285 LINE",
"139 159 LINE"
);
}
);
};
layerId = "E1B555A7-F4E1-459C-9C1A-AE952106EEF9";
paths = (
{
closed = 1;
nodes = (
"439 596 LINE",
"400 596 LINE",
"611 0 LINE",
"772 0 LINE",
"493 728 LINE",
"359 728 LINE",
"-33 0 LINE",
"137 0 LINE"
);
},
{
closed = 1;
nodes = (
"622 159 LINE",
"569 285 LINE",
"206 285 LINE",
"132 159 LINE"
);
},
{
closed = 1;
nodes = (
"496 692 OFFCURVE",
"546 741 OFFCURVE",
"546 804 CURVE SMOOTH",
"546 867 OFFCURVE",
"496 915 OFFCURVE",
"433 915 CURVE SMOOTH",
"370 915 OFFCURVE",
"319 867 OFFCURVE",
"319 804 CURVE SMOOTH",
"319 741 OFFCURVE",
"370 692 OFFCURVE",
"433 692 CURVE SMOOTH"
);
},
{
closed = 1;
nodes = (
"407 757 OFFCURVE",
"388 778 OFFCURVE",
"388 804 CURVE SMOOTH",
"388 829 OFFCURVE",
"407 850 OFFCURVE",
"433 850 CURVE SMOOTH",
"459 850 OFFCURVE",
"477 829 OFFCURVE",
"477 804 CURVE SMOOTH",
"477 778 OFFCURVE",
"459 757 OFFCURVE",
"433 757 CURVE SMOOTH"
);
}
);
width = 778;
}
);
leftKerningGroup = A;
leftMetricsKey = A;
widthMetricsKey = A;
rightKerningGroup = A;
unicode = 00C5;
},
{
glyphname = Aringacute;
lastChange = "2016-09-21 08:56:34 +0000";
layers = (
{
background = {
paths = (
{
closed = 1;
nodes = (
"88 0 LINE",
"384 691 LINE",
"357 691 LINE",
"654 0 LINE",
"712 0 LINE",
"397 728 LINE",
"345 728 LINE",
"30 0 LINE"
);
},
{
closed = 1;
nodes = (
"585 197 LINE",
"567 247 LINE",
"177 247 LINE",
"160 197 LINE"
);
},
{
closed = 1;
nodes = (
"427 697 OFFCURVE",
"472 741 OFFCURVE",
"472 796 CURVE SMOOTH",
"472 852 OFFCURVE",
"427 896 OFFCURVE",
"371 896 CURVE SMOOTH",
"315 896 OFFCURVE",
"270 852 OFFCURVE",
"270 796 CURVE SMOOTH",
"270 741 OFFCURVE",
"315 697 OFFCURVE",
"371 697 CURVE SMOOTH"
);
},
{
closed = 1;
nodes = (
"341 743 OFFCURVE",
"319 766 OFFCURVE",
"319 796 CURVE SMOOTH",
"319 826 OFFCURVE",
"341 850 OFFCURVE",
"371 850 CURVE SMOOTH",
"401 850 OFFCURVE",
"422 826 OFFCURVE",
"422 796 CURVE SMOOTH",
"422 766 OFFCURVE",
"401 743 OFFCURVE",
"371 743 CURVE SMOOTH"
);
},
{
closed = 1;
nodes = (
"591 970 LINE",
"515 970 LINE",
"411 863 LINE",
"445 845 LINE"
);
}
);
};
layerId = "9E718F8A-2CEA-4931-B05D-987794BD97DA";
paths = (
{
closed = 1;
nodes = (
"70 0 LINE",
"419 691 LINE",
"392 691 LINE",
"634 0 LINE",
"692 0 LINE",
"434 728 LINE",
"382 728 LINE",
"10 0 LINE"
);
},
{
closed = 1;
nodes = (
"581 197 LINE",
"567 247 LINE",
"177 247 LINE",
"156 197 LINE"
);
},
{
closed = 1;
nodes = (
"467 697 OFFCURVE",
"512 741 OFFCURVE",
"512 796 CURVE SMOOTH",
"512 852 OFFCURVE",
"467 896 OFFCURVE",
"411 896 CURVE SMOOTH",
"355 896 OFFCURVE",
"310 852 OFFCURVE",
"310 796 CURVE SMOOTH",
"310 741 OFFCURVE",
"355 697 OFFCURVE",
"411 697 CURVE SMOOTH"
);
},
{
closed = 1;
nodes = (
"381 743 OFFCURVE",
"359 766 OFFCURVE",
"359 796 CURVE SMOOTH",
"359 826 OFFCURVE",
"381 850 OFFCURVE",
"411 850 CURVE SMOOTH",
"441 850 OFFCURVE",
"463 826 OFFCURVE",
"463 796 CURVE SMOOTH",
"463 766 OFFCURVE",
"441 743 OFFCURVE",
"411 743 CURVE SMOOTH"
);
},
{
closed = 1;
nodes = (
"650 970 LINE",
"570 970 LINE",
"460 863 LINE",
"492 845 LINE"
);
}
);
width = 742;
},
{
background = {
paths = (
{
closed = 1;
nodes = (
"154 0 LINE",
"410 596 LINE",
"371 596 LINE",
"627 0 LINE",
"791 0 LINE",
"456 728 LINE",
"322 728 LINE",
"-13 0 LINE"
);
},
{
closed = 1;
nodes = (
"629 159 LINE",
"566 285 LINE",
"202 285 LINE",
"139 159 LINE"
);
},
{
closed = 1;
nodes = (
"452 692 OFFCURVE",
"503 741 OFFCURVE",
"503 804 CURVE SMOOTH",
"503 867 OFFCURVE",
"452 915 OFFCURVE",
"389 915 CURVE SMOOTH",
"326 915 OFFCURVE",
"276 867 OFFCURVE",
"276 804 CURVE SMOOTH",
"276 741 OFFCURVE",
"326 692 OFFCURVE",
"389 692 CURVE SMOOTH"
);
},
{
closed = 1;
nodes = (
"364 757 OFFCURVE",
"345 778 OFFCURVE",
"345 804 CURVE SMOOTH",
"345 829 OFFCURVE",
"364 850 OFFCURVE",
"389 850 CURVE SMOOTH",
"415 850 OFFCURVE",
"434 829 OFFCURVE",
"434 804 CURVE SMOOTH",
"434 778 OFFCURVE",
"415 757 OFFCURVE",
"389 757 CURVE SMOOTH"
);
},
{
closed = 1;
nodes = (
"650 977 LINE",
"502 977 LINE",
"420 887 LINE",
"486 841 LINE"
);
}
);
};
layerId = "E1B555A7-F4E1-459C-9C1A-AE952106EEF9";
paths = (
{
closed = 1;
nodes = (
"137 0 LINE",
"439 596 LINE",
"400 596 LINE",
"611 0 LINE",
"772 0 LINE",
"493 728 LINE",
"359 728 LINE",
"-33 0 LINE"
);
},
{
closed = 1;
nodes = (
"622 159 LINE",
"569 285 LINE",
"206 285 LINE",
"132 159 LINE"
);
},
{
closed = 1;
nodes = (
"496 692 OFFCURVE",
"546 741 OFFCURVE",
"546 804 CURVE SMOOTH",
"546 867 OFFCURVE",
"496 915 OFFCURVE",
"433 915 CURVE SMOOTH",
"370 915 OFFCURVE",
"319 867 OFFCURVE",
"319 804 CURVE SMOOTH",
"319 741 OFFCURVE",
"370 692 OFFCURVE",
"433 692 CURVE SMOOTH"
);
},
{
closed = 1;
nodes = (
"407 757 OFFCURVE",
"388 778 OFFCURVE",
"388 804 CURVE SMOOTH",
"388 829 OFFCURVE",
"407 850 OFFCURVE",
"433 850 CURVE SMOOTH",
"459 850 OFFCURVE",
"477 829 OFFCURVE",
"477 804 CURVE SMOOTH",
"477 778 OFFCURVE",
"459 757 OFFCURVE",
"433 757 CURVE SMOOTH"
);
},
{
closed = 1;
nodes = (
"711 977 LINE",
"555 977 LINE",
"471 887 LINE",
"532 841 LINE"
);
}
);
width = 778;
}
);
leftKerningGroup = A;
leftMetricsKey = A;
widthMetricsKey = A;
rightKerningGroup = A;
unicode = 01FA;
},
{
color = 4;
glyphname = AE;
lastChange = "2016-09-21 08:57:05 +0000";
layers = (
{
anchors = (
{
name = bottom;
position = "{513, 0}";
},
{
name = top;
position = "{626, 728}";
}
);
background = {
anchors = (
{
name = bottom;
position = "{494, 0}";
},
{
name = top;
position = "{550, 728}";
}
);
paths = (
{
closed = 1;
nodes = (
"945 0 LINE",
"949 51 LINE",
"622 51 LINE",
"534 705 LINE",
"525 678 LINE",
"999 678 LINE",
"1002 728 LINE",
"483 728 LINE",
"-10 0 LINE",
"54 0 LINE",
"514 687 LINE",
"486 687 LINE",
"576 0 LINE"
);
},
{
closed = 1;
nodes = (
"573 197 LINE",
"558 247 LINE",
"178 247 LINE",
"157 197 LINE"
);
},
{
closed = 1;
nodes = (
"951 345 LINE",
"956 395 LINE",
"567 395 LINE",
"563 345 LINE"
);
}
);
};
layerId = "9E718F8A-2CEA-4931-B05D-987794BD97DA";
paths = (
{
closed = 1;
nodes = (
"54 0 LINE",
"514 687 LINE",
"486 678 LINE",
"999 678 LINE",
"1002 728 LINE",
"483 728 LINE",
"-10 0 LINE"
);
},
{
closed = 1;
nodes = (
"584 197 LINE",
"578 247 LINE",
"167 247 LINE",
"147 197 LINE"
);
},
{
closed = 1;
nodes = (
"945 0 LINE",
"949 51 LINE",
"605 51 LINE",
"595 703 LINE",
"545 703 LINE",
"556 0 LINE"
);
},
{
closed = 1;
nodes = (
"951 345 LINE",
"956 395 LINE",
"588 395 LINE",
"584 345 LINE"
);
}
);
width = 1020;
},
{
anchors = (
{
name = bottom;
position = "{502, 0}";
},
{
name = top;
position = "{559, 728}";
}
);
background = {
anchors = (
{
name = top;
position = "{559, 728}";
}
);
paths = (
{
closed = 1;
nodes = (
"977 0 LINE",
"988 129 LINE",
"695 129 LINE",
"622 637 LINE",
"583 599 LINE",
"1024 599 LINE",
"1034 728 LINE",
"463 728 LINE",
"-54 0 LINE",
"130 0 LINE",
"525 590 LINE",
"479 590 LINE",
"564 0 LINE"
);
},
{
closed = 1;
nodes = (
"598 159 LINE",
"571 285 LINE",
"208 285 LINE",
"133 159 LINE"
);
},
{
closed = 1;
nodes = (
"980 306 LINE",
"991 435 LINE",
"600 435 LINE",
"590 306 LINE"
);
}
);
};
layerId = "E1B555A7-F4E1-459C-9C1A-AE952106EEF9";
paths = (
{
closed = 1;
nodes = (
"130 0 LINE",
"545 621 LINE",
"510 599 LINE",
"1025 599 LINE",
"1034 728 LINE",
"463 728 LINE",
"-54 0 LINE"
);
},
{
closed = 1;
nodes = (
"598 159 LINE",
"571 285 LINE",
"208 285 LINE",
"133 159 LINE"
);
},
{
closed = 1;
nodes = (
"977 0 LINE",
"988 129 LINE",
"694 129 LINE",
"698 654 LINE",
"549 654 LINE",
"539 0 LINE"
);
},
{
closed = 1;
nodes = (
"980 306 LINE",
"991 435 LINE",
"600 435 LINE",
"590 306 LINE"
);
}
);
width = 1035;
}
);
leftKerningGroup = A;
rightKerningGroup = E;
rightMetricsKey = E;
unicode = 00C6;
userData = {
com.typemytype.robofont.layerData = {
b = {
anchors = (
);
components = (
);
contours = (
);
lib = {
};
name = AE;
unicodes = (
);
width = 1976;
};
};
};
},
{
glyphname = B;
lastChange = "2016-09-21 08:58:57 +0000";
layers = (
{
anchors = (
{
name = bottom;
position = "{330, 0}";
},
{
name = top;
position = "{385, 728}";
}
);
background = {
anchors = (
{
name = bottom;
position = "{349, 0}";
},
{
name = top;
position = "{405, 728}";
}
);
paths = (
{
closed = 1;
nodes = (
"383 0 LINE SMOOTH",
"535 0 OFFCURVE",
"621 68 OFFCURVE",
"621 197 CURVE SMOOTH",
"621 294 OFFCURVE",
"566 359 OFFCURVE",
"474 376 CURVE",
"474 368 LINE",
"555 393 OFFCURVE",
"604 452 OFFCURVE",
"604 537 CURVE SMOOTH",
"604 661 OFFCURVE",
"520 728 OFFCURVE",
"372 728 CURVE SMOOTH",
"96 728 LINE",
"96 0 LINE"
);
},
{
closed = 1;
nodes = (
"152 345 LINE",
"380 345 LINE SMOOTH",
"503 345 OFFCURVE",
"564 293 OFFCURVE",
"564 194 CURVE SMOOTH",
"564 96 OFFCURVE",
"505 50 OFFCURVE",
"380 50 CURVE SMOOTH",
"152 50 LINE"
);
},
{
closed = 1;
nodes = (
"152 679 LINE",
"365 679 LINE SMOOTH",
"488 679 OFFCURVE",
"547 632 OFFCURVE",
"547 540 CURVE SMOOTH",
"547 446 OFFCURVE",
"484 395 OFFCURVE",
"365 395 CURVE SMOOTH",
"152 395 LINE"
);
}
);
};
layerId = "9E718F8A-2CEA-4931-B05D-987794BD97DA";
paths = (
{
closed = 1;
nodes = (
"374 0 LINE SMOOTH",
"529 0 OFFCURVE",
"618 77 OFFCURVE",
"618 211 CURVE SMOOTH",
"618 300 OFFCURVE",
"569 359 OFFCURVE",
"474 375 CURVE",
"486 368 LINE",
"581 396 OFFCURVE",
"628 463 OFFCURVE",
"628 551 CURVE SMOOTH",
"628 665 OFFCURVE",
"551 728 OFFCURVE",
"399 728 CURVE SMOOTH",
"133 728 LINE",
"76 0 LINE"
);
},
{
closed = 1;
nodes = (
"186 679 LINE",
"399 679 LINE SMOOTH",
"513 679 OFFCURVE",
"571 635 OFFCURVE",
"571 551 CURVE SMOOTH",
"571 449 OFFCURVE",
"502 395 OFFCURVE",
"386 395 CURVE SMOOTH",
"151 395 LINE",
"147 345 LINE",
"387 345 LINE SMOOTH",
"505 345 OFFCURVE",
"561 296 OFFCURVE",
"561 205 CURVE SMOOTH",
"561 101 OFFCURVE",
"495 50 OFFCURVE",
"375 50 CURVE SMOOTH",
"136 50 LINE"
);
}
);
width = 690;
},
{
anchors = (
{
name = bottom;
position = "{342, 0}";
},
{
name = top;
position = "{399, 728}";
}
);
background = {
paths = (
{
closed = 1;
nodes = (
"421 0 LINE SMOOTH",
"579 0 OFFCURVE",
"677 76 OFFCURVE",
"677 199 CURVE SMOOTH",
"677 293 OFFCURVE",
"624 359 OFFCURVE",
"530 380 CURVE",
"530 372 LINE",
"610 396 OFFCURVE",
"658 459 OFFCURVE",
"658 539 CURVE SMOOTH",
"658 656 OFFCURVE",
"563 728 OFFCURVE",
"411 728 CURVE SMOOTH",
"72 728 LINE",
"72 0 LINE"
);
},
{
closed = 1;
nodes = (
"234 307 LINE",
"402 307 LINE SMOOTH",
"485 307 OFFCURVE",
"521 279 OFFCURVE",
"521 216 CURVE SMOOTH",
"521 154 OFFCURVE",
"485 127 OFFCURVE",
"402 127 CURVE SMOOTH",
"234 127 LINE"
);
},
{
closed = 1;
nodes = (
"234 601 LINE",
"383 601 LINE SMOOTH",
"464 601 OFFCURVE",
"501 574 OFFCURVE",
"501 517 CURVE SMOOTH",
"501 461 OFFCURVE",
"464 434 OFFCURVE",
"383 434 CURVE SMOOTH",
"234 434 LINE"
);
}
);
};
layerId = "E1B555A7-F4E1-459C-9C1A-AE952106EEF9";
paths = (
{
closed = 1;
nodes = (
"406 0 LINE SMOOTH",
"567 0 OFFCURVE",
"673 73 OFFCURVE",
"673 208 CURVE SMOOTH",
"673 291 OFFCURVE",
"626 361 OFFCURVE",
"540 378 CURVE",
"539 370 LINE",
"635 401 OFFCURVE",
"682 460 OFFCURVE",
"682 545 CURVE SMOOTH",
"682 652 OFFCURVE",
"601 728 OFFCURVE",
"438 728 CURVE SMOOTH",
"109 728 LINE",
"53 0 LINE"
);
},
{
closed = 1;
nodes = (
"262 601 LINE",
"410 601 LINE SMOOTH",
"489 601 OFFCURVE",
"522 572 OFFCURVE",
"522 521 CURVE SMOOTH",
"522 459 OFFCURVE",
"483 434 OFFCURVE",
"398 434 CURVE SMOOTH",
"232 434 LINE",
"222 307 LINE",
"405 307 LINE SMOOTH",
"484 307 OFFCURVE",
"519 277 OFFCURVE",
"519 219 CURVE SMOOTH",
"519 152 OFFCURVE",
"479 127 OFFCURVE",
"393 127 CURVE SMOOTH",
"225 127 LINE"
);
}
);
width = 714;
}
);
leftKerningGroup = H;
leftMetricsKey = H;
rightKerningGroup = B;
unicode = 0042;
userData = {
anchors = (
);
b = {
};
com.typemytype.robofont.layerData = {
b = {
anchors = (
);
components = (
);
contours = (
{
points = (
{
segmentType = curve;
smooth = 1;
x = 266;
y = 0;
},
{
segmentType = line;
smooth = 1;
x = 1035;
y = 0;
},
{
smooth = 0;
x = 1084;
y = 0;
},
{
smooth = 0;
x = 1108;
y = 36;
},
{
segmentType = curve;
smooth = 1;
x = 1108;
y = 73;
},
{
smooth = 0;
x = 1108;
y = 109;
},
{
smooth = 0;
x = 1084;
y = 145;
},
{
segmentType = curve;
smooth = 1;
x = 1035;
y = 145;
},
{
segmentType = line;
smooth = 0;
x = 353;
y = 145;
},
{
segmentType = line;
smooth = 0;
x = 353;
y = 662;
},
{
segmentType = line;
smooth = 1;
x = 975;
y = 662;
},
{
smooth = 0;
x = 1024;
y = 662;
},
{
smooth = 0;
x = 1049;
y = 698;
},
{
segmentType = curve;
smooth = 1;
x = 1049;
y = 734;
},
{
smooth = 0;
x = 1049;
y = 770;
},
{
smooth = 0;
x = 1026;
y = 806;
},
{
segmentType = curve;
smooth = 1;
x = 975;
y = 806;
},
{
segmentType = line;
smooth = 0;
x = 353;
y = 806;
},
{
segmentType = line;
smooth = 0;
x = 353;
y = 1281;
},
{
segmentType = line;
smooth = 1;
x = 1007;
y = 1281;
},
{
smooth = 0;
x = 1056;
y = 1281;
},
{
smooth = 0;
x = 1080;
y = 1317;
},
{
segmentType = curve;
smooth = 1;
x = 1080;
y = 1354;
},
{
smooth = 0;
x = 1080;
y = 1390;
},
{
smooth = 0;
x = 1056;
y = 1426;
},
{
segmentType = curve;
smooth = 1;
x = 1007;
y = 1426;
},
{
segmentType = line;
smooth = 1;
x = 261;
y = 1426;
},
{
smooth = 0;
x = 213;
y = 1426;
},
{
smooth = 0;
x = 178;
y = 1383;
},
{
segmentType = curve;
smooth = 1;
x = 178;
y = 1340;
},
{
segmentType = line;
smooth = 1;
x = 178;
y = 86;
},
{
smooth = 0;
x = 178;
y = 41;
},
{
smooth = 0;
x = 222;
y = 0;
}
);
}
);
lib = {
};
name = B;
unicodes = (
);
width = 1292;
};
};
components = (
);
contours = {
};
lib = {
};
name = B;
points = {
};
segmentType = curve;
unicodes = (
);
width = 1395;
x = 676;
y = 1260;
};
},
{
glyphname = C;
lastChange = "2016-09-21 08:56:34 +0000";
layers = (
{
anchors = (
{
name = bottom;
position = "{375, 0}";
},
{
name = top;
position = "{433, 728}";
}
);
background = {
anchors = (
{
name = bottom;
position = "{1014, 0}";
},
{
name = top;
position = "{1072, 728}";
}
);
paths = (
{
closed = 1;
nodes = (
"496 -8 OFFCURVE",
"581 24 OFFCURVE",
"644 88 CURVE",
"619 133 LINE",
"547 68 OFFCURVE",
"481 43 OFFCURVE",
"396 43 CURVE SMOOTH",
"224 43 OFFCURVE",
"126 160 OFFCURVE",
"126 365 CURVE SMOOTH",
"126 568 OFFCURVE",
"225 685 OFFCURVE",
"396 685 CURVE SMOOTH",
"481 685 OFFCURVE",
"547 660 OFFCURVE",
"619 595 CURVE",
"644 640 LINE",
"581 705 OFFCURVE",
"496 737 OFFCURVE",
"396 737 CURVE SMOOTH",
"193 737 OFFCURVE",
"67 597 OFFCURVE",
"67 365 CURVE SMOOTH",
"67 132 OFFCURVE",
"193 -8 OFFCURVE",
"396 -8 CURVE SMOOTH"
);
}
);
};
layerId = "9E718F8A-2CEA-4931-B05D-987794BD97DA";
paths = (
{
closed = 1;
nodes = (
"479 -8 OFFCURVE",
"564 25 OFFCURVE",
"631 88 CURVE",
"609 133 LINE",
"540 68 OFFCURVE",
"464 43 OFFCURVE",
"388 43 CURVE SMOOTH",
"226 43 OFFCURVE",
"134 147 OFFCURVE",
"134 331 CURVE SMOOTH",
"134 552 OFFCURVE",
"238 685 OFFCURVE",
"414 685 CURVE SMOOTH",
"514 685 OFFCURVE",
"580 659 OFFCURVE",
"646 596 CURVE",
"675 640 LINE",
"614 705 OFFCURVE",
"524 737 OFFCURVE",
"416 737 CURVE SMOOTH",
"206 737 OFFCURVE",
"75 578 OFFCURVE",
"75 332 CURVE SMOOTH",
"75 120 OFFCURVE",
"194 -8 OFFCURVE",
"375 -8 CURVE SMOOTH"
);
}
);
width = 699;
},
{
anchors = (
{
name = bottom;
position = "{388, 0}";
},
{
name = top;
position = "{445, 728}";
}
);
background = {
paths = (
{
closed = 1;
nodes = (
"511 -9 OFFCURVE",
"605 22 OFFCURVE",
"662 73 CURVE",
"609 192 LINE",
"545 145 OFFCURVE",
"484 124 OFFCURVE",
"418 124 CURVE SMOOTH",
"291 124 OFFCURVE",
"220 207 OFFCURVE",
"220 365 CURVE SMOOTH",
"220 523 OFFCURVE",
"291 604 OFFCURVE",
"418 604 CURVE SMOOTH",
"484 604 OFFCURVE",
"545 584 OFFCURVE",
"609 536 CURVE",
"662 655 LINE",
"605 707 OFFCURVE",
"511 738 OFFCURVE",
"415 738 CURVE SMOOTH",
"190 738 OFFCURVE",
"51 590 OFFCURVE",
"51 365 CURVE SMOOTH",
"51 139 OFFCURVE",
"190 -9 OFFCURVE",
"415 -9 CURVE SMOOTH"
);
}
);
};
layerId = "E1B555A7-F4E1-459C-9C1A-AE952106EEF9";
paths = (
{
closed = 1;
nodes = (
"501 -9 OFFCURVE",
"596 23 OFFCURVE",
"649 73 CURVE",
"605 192 LINE",
"534 146 OFFCURVE",
"471 124 OFFCURVE",
"411 124 CURVE SMOOTH",
"292 124 OFFCURVE",
"228 199 OFFCURVE",
"228 340 CURVE SMOOTH",
"228 503 OFFCURVE",
"307 604 OFFCURVE",
"448 604 CURVE SMOOTH",
"515 604 OFFCURVE",
"571 584 OFFCURVE",
"632 536 CURVE",
"694 655 LINE",
"629 709 OFFCURVE",
"540 738 OFFCURVE",
"441 738 CURVE SMOOTH",
"210 738 OFFCURVE",
"59 582 OFFCURVE",
"59 340 CURVE SMOOTH",
"59 125 OFFCURVE",
"191 -9 OFFCURVE",
"405 -9 CURVE SMOOTH"
);
}
);
width = 700;
}
);
leftKerningGroup = O;
leftMetricsKey = O;
rightKerningGroup = C;
unicode = 0043;
userData = {
anchors = (
);
b = {
};
com.typemytype.robofont.layerData = {
b = {
anchors = (
);
components = (
);
contours = (
);
lib = {
};
name = C;
unicodes = (
);
width = 1353.8900;
};
};
components = (
);
contours = (
);
lib = {
};
name = C;
unicodes = (
);
width = 1354;
};
},
{
glyphname = D;
lastChange = "2016-09-21 08:58:58 +0000";
layers = (
{
anchors = (
{
name = bottom;
position = "{357, 0}";
},
{
name = center;
position = "{386, 365}";
},
{
name = top;
position = "{413, 728}";
}
);
background = {
paths = (
{
closed = 1;
nodes = (
"326 0 LINE SMOOTH",
"556 0 OFFCURVE",
"686 131 OFFCURVE",
"686 365 CURVE SMOOTH",
"686 598 OFFCURVE",
"557 728 OFFCURVE",
"326 728 CURVE SMOOTH",
"96 728 LINE",
"96 0 LINE"
);
},
{
closed = 1;
nodes = (
"152 679 LINE",
"324 679 LINE SMOOTH",
"526 679 OFFCURVE",
"627 573 OFFCURVE",
"627 365 CURVE SMOOTH",
"627 156 OFFCURVE",
"525 50 OFFCURVE",
"324 50 CURVE SMOOTH",
"152 50 LINE"
);
}
);
};
guideLines = (
{
angle = 88.6493;
position = "{373, 365}";
}
);
layerId = "9E718F8A-2CEA-4931-B05D-987794BD97DA";
paths = (
{
closed = 1;
nodes = (
"334 0 LINE SMOOTH",
"566 0 OFFCURVE",
"695 150 OFFCURVE",
"695 396 CURVE SMOOTH",
"695 608 OFFCURVE",
"577 728 OFFCURVE",
"358 728 CURVE SMOOTH",
"133 728 LINE",
"76 0 LINE"
);
},
{
closed = 1;
nodes = (
"186 679 LINE",
"357 679 LINE SMOOTH",
"545 679 OFFCURVE",
"636 582 OFFCURVE",
"636 397 CURVE SMOOTH",
"636 177 OFFCURVE",
"534 50 OFFCURVE",
"333 50 CURVE SMOOTH",
"136 50 LINE"
);
}
);
width = 753;
},
{
anchors = (
{
name = bottom;
position = "{376, 0}";
},
{
name = center;
position = "{405, 365}";
},
{
name = top;
position = "{433, 728}";
}
);
background = {
paths = (
{
closed = 1;
nodes = (
"357 0 LINE SMOOTH",
"599 0 OFFCURVE",
"741 135 OFFCURVE",
"741 365 CURVE SMOOTH",
"741 593 OFFCURVE",
"598 728 OFFCURVE",
"357 728 CURVE SMOOTH",
"72 728 LINE",
"72 0 LINE"
);
},
{
closed = 1;
nodes = (
"239 594 LINE",
"346 594 LINE SMOOTH",
"499 594 OFFCURVE",
"574 519 OFFCURVE",
"574 365 CURVE SMOOTH",
"574 211 OFFCURVE",
"499 134 OFFCURVE",
"346 134 CURVE SMOOTH",
"239 134 LINE"
);
}
);
};
layerId = "E1B555A7-F4E1-459C-9C1A-AE952106EEF9";
paths = (
{
closed = 1;
nodes = (
"350 0 LINE SMOOTH",
"602 0 OFFCURVE",
"750 143 OFFCURVE",
"750 388 CURVE SMOOTH",
"750 598 OFFCURVE",
"614 728 OFFCURVE",
"394 728 CURVE SMOOTH",
"109 728 LINE",
"53 0 LINE"
);
},
{
closed = 1;
nodes = (
"265 594 LINE",
"372 594 LINE SMOOTH",
"510 594 OFFCURVE",
"584 523 OFFCURVE",
"584 389 CURVE SMOOTH",
"584 216 OFFCURVE",
"503 134 OFFCURVE",
"336 134 CURVE SMOOTH",
"229 134 LINE"
);
}
);
width = 791;
}
);
leftKerningGroup = H;
leftMetricsKey = I;
rightKerningGroup = O;
rightMetricsKey = O;
unicode = 0044;
userData = {
anchors = (
);
b = {
};
com.typemytype.robofont.layerData = {
b = {
anchors = (
);
components = (
);
contours = (
{
points = (
{
segmentType = curve;
smooth = 1;
x = 266;
y = 0;
},
{
segmentType = line;
smooth = 1;
x = 1035;
y = 0;
},
{
smooth = 0;
x = 1084;
y = 0;
},
{
smooth = 0;
x = 1108;
y = 34;
},
{
segmentType = curve;
smooth = 1;
x = 1108;
y = 71;
},
{
smooth = 0;
x = 1108;
y = 107;
},
{
smooth = 0;
x = 1084;
y = 141;
},
{
segmentType = curve;
smooth = 1;
x = 1035;
y = 141;
},
{
segmentType = line;
smooth = 0;
x = 356;
y = 141;
},
{
segmentType = line;
smooth = 0;
x = 356;
y = 665;
},
{
segmentType = line;
smooth = 1;
x = 975;
y = 665;
},
{
smooth = 0;
x = 1024;
y = 665;
},
{
smooth = 0;
x = 1049;
y = 698;
},
{
segmentType = curve;
smooth = 1;
x = 1049;
y = 734;
},
{
smooth = 0;
x = 1049;
y = 770;
},
{
smooth = 0;
x = 1026;
y = 803;
},
{
segmentType = curve;
smooth = 1;
x = 975;
y = 803;
},
{
segmentType = line;
smooth = 0;
x = 356;
y = 803;
},
{
segmentType = line;
smooth = 0;
x = 356;
y = 1285;
},
{
segmentType = line;
smooth = 1;
x = 1007;
y = 1285;
},
{
smooth = 0;
x = 1056;
y = 1285;
},
{
smooth = 0;
x = 1080;
y = 1319;
},
{
segmentType = curve;
smooth = 1;
x = 1080;
y = 1356;
},
{
smooth = 0;
x = 1080;
y = 1392;
},
{
smooth = 0;
x = 1056;
y = 1426;
},
{
segmentType = curve;
smooth = 1;
x = 1007;
y = 1426;
},
{
segmentType = line;
smooth = 1;
x = 261;
y = 1426;
},
{
smooth = 0;
x = 213;
y = 1426;
},
{
smooth = 0;
x = 178;
y = 1383;
},
{
segmentType = curve;
smooth = 1;
x = 178;
y = 1340;
},
{
segmentType = line;
smooth = 1;
x = 178;
y = 86;
},
{
smooth = 0;
x = 178;
y = 41;
},
{
smooth = 0;
x = 222;
y = 0;
}
);
}
);
lib = {
};
name = D;
unicodes = (
);
width = 1499;
};
};
components = (
);
contours = (
);
lib = {
};
name = D;
unicodes = (
);
width = 1535;
};
},
{
glyphname = Eth;
lastChange = "2016-09-21 08:56:34 +0000";
layers = (
{
background = {
paths = (
{
closed = 1;
nodes = (
"361 346 LINE",
"361 394 LINE",
"5 394 LINE",
"5 346 LINE"
);
},
{
closed = 1;
nodes = (
"334 0 LINE SMOOTH",
"563 0 OFFCURVE",
"693 131 OFFCURVE",
"693 365 CURVE SMOOTH",
"693 598 OFFCURVE",
"564 728 OFFCURVE",
"334 728 CURVE SMOOTH",
"103 728 LINE",
"103 0 LINE"
);
},
{
closed = 1;
nodes = (
"159 679 LINE",
"332 679 LINE SMOOTH",
"533 679 OFFCURVE",
"634 573 OFFCURVE",
"634 365 CURVE SMOOTH",
"634 156 OFFCURVE",
"532 50 OFFCURVE",
"332 50 CURVE SMOOTH",
"159 50 LINE"
);
}
);
};
layerId = "9E718F8A-2CEA-4931-B05D-987794BD97DA";
paths = (
{
closed = 1;
nodes = (
"368 346 LINE",
"372 394 LINE",
"17 394 LINE",
"12 346 LINE"
);
},
{
closed = 1;
nodes = (
"341 0 LINE SMOOTH",
"573 0 OFFCURVE",
"702 150 OFFCURVE",
"702 396 CURVE SMOOTH",
"702 608 OFFCURVE",
"585 728 OFFCURVE",
"366 728 CURVE SMOOTH",
"140 728 LINE",
"84 0 LINE"
);
},
{
closed = 1;
nodes = (
"193 679 LINE",
"365 679 LINE SMOOTH",
"553 679 OFFCURVE",
"644 582 OFFCURVE",
"644 397 CURVE SMOOTH",
"644 177 OFFCURVE",
"541 50 OFFCURVE",
"340 50 CURVE SMOOTH",
"144 50 LINE"
);
}
);
width = 760;
},
{
background = {
paths = (
{
closed = 1;
nodes = (
"461 305 LINE",
"461 431 LINE",
"15 431 LINE",
"15 305 LINE"
);
},
{
closed = 1;
nodes = (
"388 0 LINE SMOOTH",
"630 0 OFFCURVE",
"772 135 OFFCURVE",
"772 365 CURVE SMOOTH",
"772 593 OFFCURVE",
"629 728 OFFCURVE",
"388 728 CURVE SMOOTH",
"103 728 LINE",
"103 0 LINE"
);
},
{
closed = 1;
nodes = (
"270 594 LINE",
"377 594 LINE SMOOTH",
"530 594 OFFCURVE",
"605 519 OFFCURVE",
"605 365 CURVE SMOOTH",
"605 211 OFFCURVE",
"530 134 OFFCURVE",
"377 134 CURVE SMOOTH",
"270 134 LINE"
);
}
);
};
layerId = "E1B555A7-F4E1-459C-9C1A-AE952106EEF9";
paths = (
{
closed = 1;
nodes = (
"465 305 LINE",
"475 431 LINE",
"30 431 LINE",
"20 305 LINE"
);
},
{
closed = 1;
nodes = (
"381 0 LINE SMOOTH",
"633 0 OFFCURVE",
"781 143 OFFCURVE",
"781 388 CURVE SMOOTH",
"781 598 OFFCURVE",
"645 728 OFFCURVE",
"425 728 CURVE SMOOTH",
"140 728 LINE",
"84 0 LINE"
);
},
{
closed = 1;
nodes = (
"296 594 LINE",
"403 594 LINE SMOOTH",
"541 594 OFFCURVE",
"615 523 OFFCURVE",
"615 389 CURVE SMOOTH",
"615 216 OFFCURVE",
"534 134 OFFCURVE",
"367 134 CURVE SMOOTH",
"260 134 LINE"
);
}
);
width = 822;
}
);
leftKerningGroup = H;
rightKerningGroup = O;
rightMetricsKey = O;
unicode = 00D0;
},
{
glyphname = E;
lastChange = "2016-09-21 08:56:34 +0000";
layers = (
{
anchors = (
{
name = bottom;
position = "{312, 0}";
},
{
name = ogonek;
position = "{503, 10}";
},
{
name = top;
position = "{369, 728}";
},
{
name = topleft;
position = "{64, 728}";
}
);
background = {
anchors = (
{
name = bottom;
position = "{332, 0}";
},
{
name = ogonek;
position = "{523, 10}";
},
{
name = top;
position = "{388, 728}";
},
{
name = topleft;
position = "{84, 728}";
}
);
paths = (
{
closed = 1;
nodes = (
"541 0 LINE",
"541 50 LINE",
"152 50 LINE",
"152 345 LINE",
"521 345 LINE",
"521 395 LINE",
"152 395 LINE",
"152 679 LINE",
"541 679 LINE",
"541 728 LINE",
"96 728 LINE",
"96 0 LINE"
);
}
);
};
guideLines = (
{
angle = 90;
position = "{489, 255}";
}
);
layerId = "9E718F8A-2CEA-4931-B05D-987794BD97DA";
paths = (
{
closed = 1;
nodes = (
"522 0 LINE",
"526 50 LINE",
"136 50 LINE",
"186 679 LINE",
"575 679 LINE",
"578 728 LINE",
"133 728 LINE",
"76 0 LINE"
);
},
{
closed = 1;
nodes = (
"528 345 LINE",
"532 395 LINE",
"151 395 LINE",
"147 345 LINE"
);
}
);
width = 597;
},
{
anchors = (
{
name = bottom;
position = "{322, 0}";
},
{
name = ogonek;
position = "{535, 10}";
},
{
name = top;
position = "{379, 728}";
},
{
name = topleft;
position = "{59, 728}";
}
);
background = {
anchors = (
{
name = bottom;
position = "{342, 0}";
},
{
name = ogonek;
position = "{555, 10}";
},
{
name = top;
position = "{399, 728}";
},
{
name = topleft;
position = "{79, 728}";
}
);
paths = (
{
closed = 1;
nodes = (
"576 0 LINE",
"576 129 LINE",
"233 129 LINE",
"233 306 LINE",
"556 306 LINE",
"556 435 LINE",
"233 435 LINE",
"233 599 LINE",
"576 599 LINE",
"576 728 LINE",
"71 728 LINE",
"71 0 LINE"
);
}
);
};
guideLines = (
{
angle = 90;
position = "{723, 627}";
}
);
layerId = "E1B555A7-F4E1-459C-9C1A-AE952106EEF9";
paths = (
{
closed = 1;
nodes = (
"557 0 LINE",
"567 129 LINE",
"224 129 LINE",
"261 599 LINE",
"604 599 LINE",
"615 728 LINE",
"109 728 LINE",
"52 0 LINE"
);
},
{
closed = 1;
nodes = (
"560 306 LINE",
"570 435 LINE",
"231 435 LINE",
"221 306 LINE"
);
}
);
width = 614;
}
);
leftKerningGroup = H;
leftMetricsKey = H;
rightKerningGroup = E;
unicode = 0045;
userData = {
anchors = (
);
b = {
};
com.typemytype.robofont.layerData = {
b = {
anchors = (
);
components = (
);
contours = (
);
lib = {
};
name = E;
unicodes = (
);
width = 1234;
};
};
components = (
);
contours = (
);
lib = {
};
name = E;
unicodes = (
);
width = 1258;
};
},
{
glyphname = Eogonek;
lastChange = "2016-09-21 08:56:34 +0000";
layers = (
{
anchors = (
{
name = top;
position = "{369, 728}";
}
);
background = {
anchors = (
{
name = top;
position = "{388, 728}";
}
);
paths = (
{
closed = 1;
nodes = (
"536 -147 OFFCURVE",
"513 -153 OFFCURVE",
"497 -153 CURVE SMOOTH",
"456 -153 OFFCURVE",
"427 -129 OFFCURVE",
"427 -85 CURVE SMOOTH",
"427 -37 OFFCURVE",
"460 0 OFFCURVE",
"528 0 CURVE SMOOTH",
"541 0 LINE",
"541 50 LINE",
"152 50 LINE",
"152 345 LINE",
"521 345 LINE",
"521 395 LINE",
"152 395 LINE",
"152 679 LINE",
"541 679 LINE",
"541 728 LINE",
"96 728 LINE",
"96 0 LINE",
"463 0 LINE",
"446 20 LINE",
"400 -5 OFFCURVE",
"375 -43 OFFCURVE",
"375 -91 CURVE SMOOTH",
"375 -153 OFFCURVE",
"421 -197 OFFCURVE",
"492 -197 CURVE SMOOTH",
"526 -197 OFFCURVE",
"555 -187 OFFCURVE",
"574 -174 CURVE",
"558 -134 LINE"
);
}
);
};
layerId = "9E718F8A-2CEA-4931-B05D-987794BD97DA";
paths = (
{
closed = 1;
nodes = (
"147 345 LINE",
"528 345 LINE",
"532 395 LINE",
"151 395 LINE"
);
},
{
closed = 1;
nodes = (
"186 679 LINE",
"575 679 LINE",
"578 728 LINE",
"133 728 LINE",
"76 0 LINE",
"443 0 LINE",
"424 20 LINE",
"376 -5 OFFCURVE",
"348 -45 OFFCURVE",
"348 -98 CURVE SMOOTH",
"348 -157 OFFCURVE",
"390 -197 OFFCURVE",
"459 -197 CURVE SMOOTH",
"491 -197 OFFCURVE",
"523 -186 OFFCURVE",
"541 -174 CURVE",
"528 -133 LINE",
"505 -147 OFFCURVE",
"481 -153 OFFCURVE",
"465 -153 CURVE SMOOTH",
"425 -153 OFFCURVE",
"401 -131 OFFCURVE",
"401 -88 CURVE SMOOTH",
"401 -41 OFFCURVE",
"431 0 OFFCURVE",
"508 0 CURVE SMOOTH",
"522 0 LINE",
"526 50 LINE",
"136 50 LINE"
);
}
);
width = 597;
},
{
anchors = (
{
name = top;
position = "{379, 728}";
}
);
background = {
anchors = (
{
name = top;
position = "{399, 728}";
}
);
paths = (
{
closed = 1;
nodes = (
"580 -117 OFFCURVE",
"561 -121 OFFCURVE",
"543 -121 CURVE SMOOTH",
"504 -121 OFFCURVE",
"482 -102 OFFCURVE",
"482 -66 CURVE SMOOTH",
"482 -26 OFFCURVE",
"510 0 OFFCURVE",
"554 0 CURVE SMOOTH",
"576 0 LINE",
"576 129 LINE",
"233 129 LINE",
"233 306 LINE",
"556 306 LINE",
"556 435 LINE",
"233 435 LINE",
"233 599 LINE",
"576 599 LINE",
"576 728 LINE",
"71 728 LINE",
"71 0 LINE",
"467 0 LINE",
"448 21 LINE",
"403 -5 OFFCURVE",
"380 -43 OFFCURVE",
"380 -90 CURVE SMOOTH",
"380 -156 OFFCURVE",
"435 -204 OFFCURVE",
"512 -204 CURVE SMOOTH",
"550 -204 OFFCURVE",
"586 -196 OFFCURVE",
"617 -183 CURVE",
"599 -108 LINE"
);
}
);
};
layerId = "E1B555A7-F4E1-459C-9C1A-AE952106EEF9";
paths = (
{
closed = 1;
nodes = (
"221 306 LINE",
"560 306 LINE",
"570 435 LINE",
"231 435 LINE"
);
},
{
closed = 1;
nodes = (
"261 599 LINE",
"603 599 LINE",
"614 728 LINE",
"109 728 LINE",
"52 0 LINE",
"447 0 LINE",
"431 21 LINE",
"378 -5 OFFCURVE",
"353 -48 OFFCURVE",
"353 -94 CURVE SMOOTH",
"353 -158 OFFCURVE",
"404 -204 OFFCURVE",
"484 -204 CURVE SMOOTH",
"518 -204 OFFCURVE",
"551 -196 OFFCURVE",
"583 -183 CURVE",
"571 -108 LINE",
"549 -117 OFFCURVE",
"530 -121 OFFCURVE",
"512 -121 CURVE SMOOTH",
"479 -121 OFFCURVE",
"458 -102 OFFCURVE",
"458 -69 CURVE SMOOTH",
"458 -29 OFFCURVE",
"491 0 OFFCURVE",
"534 0 CURVE SMOOTH",
"557 0 LINE",
"567 129 LINE",
"224 129 LINE"
);
}
);
width = 614;
}
);
leftKerningGroup = H;
leftMetricsKey = E;
widthMetricsKey = E;
rightKerningGroup = E;
unicode = 0118;
userData = {
com.typemytype.robofont.layerData = {
b = {
anchors = (
);
components = (
);
contours = (
);
lib = {
};
name = Eogonek;
unicodes = (
);
width = 1234;
};
};
};
},
{
glyphname = F;
lastChange = "2016-09-21 08:56:34 +0000";
layers = (
{
anchors = (
{
name = bottom;
position = "{296, 0}";
},
{
name = top;
position = "{332, 728}";
}
);
background = {
anchors = (
{
name = bottom;
position = "{316, 0}";
},
{
name = top;
position = "{351, 728}";
}
);
paths = (
{
closed = 1;
nodes = (
"152 0 LINE",
"152 345 LINE",
"510 345 LINE",
"510 395 LINE",
"152 395 LINE",
"152 679 LINE",
"531 679 LINE",
"531 728 LINE",
"96 728 LINE",
"96 0 LINE"
);
}
);
};
layerId = "9E718F8A-2CEA-4931-B05D-987794BD97DA";
paths = (
{
closed = 1;
nodes = (
"147 345 LINE",
"518 345 LINE",
"522 395 LINE",
"151 395 LINE"
);
},
{
closed = 1;
nodes = (
"186 679 LINE",
"565 679 LINE",
"568 728 LINE",
"133 728 LINE",
"76 0 LINE",
"132 0 LINE"
);
}
);
width = 569;
},
{
anchors = (
{
name = bottom;
position = "{307, 0}";
},
{
name = top;
position = "{335, 728}";
}
);
background = {
anchors = (
{
name = bottom;
position = "{326, 0}";
},
{
name = top;
position = "{354, 728}";
}
);
paths = (
{
closed = 1;
nodes = (
"236 0 LINE",
"236 305 LINE",
"545 305 LINE",
"545 436 LINE",
"236 436 LINE",
"236 597 LINE",
"566 597 LINE",
"566 728 LINE",
"71 728 LINE",
"71 0 LINE"
);
}
);
};
layerId = "E1B555A7-F4E1-459C-9C1A-AE952106EEF9";
paths = (
{
closed = 1;
nodes = (
"223 305 LINE",
"550 305 LINE",
"560 436 LINE",
"233 436 LINE"
);
},
{
closed = 1;
nodes = (
"263 597 LINE",
"593 597 LINE",
"603 728 LINE",
"109 728 LINE",
"52 0 LINE",
"216 0 LINE"
);
}
);
width = 592;
}
);
leftKerningGroup = H;
leftMetricsKey = H;
rightKerningGroup = F;
unicode = 0046;
userData = {
anchors = (
);
b = {
};
com.typemytype.robofont.layerData = {
b = {
anchors = (
);
components = (
);
contours = (
{
points = (
{
segmentType = curve;
smooth = 1;
x = 266;
y = 0;
},
{
segmentType = line;
smooth = 1;
x = 1035;
y = 0;
},
{
smooth = 0;
x = 1084;
y = 0;
},
{
smooth = 0;
x = 1108;
y = 34;
},
{
segmentType = curve;
smooth = 1;
x = 1108;
y = 71;
},
{
smooth = 0;
x = 1108;
y = 107;
},
{
smooth = 0;
x = 1084;
y = 141;
},
{
segmentType = curve;
smooth = 1;
x = 1035;
y = 141;
},
{
segmentType = line;
smooth = 0;
x = 353;
y = 141;
},
{
segmentType = line;
smooth = 0;
x = 353;
y = 665;
},
{
segmentType = line;
smooth = 1;
x = 975;
y = 665;
},
{
smooth = 0;
x = 1024;
y = 665;
},
{
smooth = 0;
x = 1049;
y = 698;
},
{
segmentType = curve;
smooth = 1;
x = 1049;
y = 734;
},
{
smooth = 0;
x = 1049;
y = 770;
},
{
smooth = 0;
x = 1026;
y = 803;
},
{
segmentType = curve;
smooth = 1;
x = 975;
y = 803;
},
{
segmentType = line;
smooth = 0;
x = 353;
y = 803;
},
{
segmentType = line;
smooth = 0;
x = 353;
y = 1285;
},
{
segmentType = line;
smooth = 1;
x = 1007;
y = 1285;
},
{
smooth = 0;
x = 1056;
y = 1285;
},
{
smooth = 0;
x = 1080;
y = 1319;
},
{
segmentType = curve;
smooth = 1;
x = 1080;
y = 1356;
},
{
smooth = 0;
x = 1080;
y = 1392;
},
{
smooth = 0;
x = 1056;
y = 1426;
},
{
segmentType = curve;
smooth = 1;
x = 1007;
y = 1426;
},
{
segmentType = line;
smooth = 1;
x = 261;
y = 1426;
},
{
smooth = 0;
x = 213;
y = 1426;
},
{
smooth = 0;
x = 178;
y = 1383;
},
{
segmentType = curve;
smooth = 1;
x = 178;
y = 1340;
},
{
segmentType = line;
smooth = 1;
x = 178;
y = 86;
},
{
smooth = 0;
x = 178;
y = 41;
},
{
smooth = 0;
x = 222;
y = 0;
}
);
}
);
lib = {
};
name = F;
unicodes = (
);
width = 1142;
};
};
components = (
);
contours = (
);
lib = {
};
name = F;
unicodes = (
);
width = 1175;
};
},
{
glyphname = G;
lastChange = "2016-09-21 08:56:34 +0000";
layers = (
{
anchors = (
{
name = bottom;
position = "{386, 0}";
},
{
name = top;
position = "{436, 728}";
}
);
background = {
anchors = (
{
name = bottom;
position = "{406, 0}";
},
{
name = top;
position = "{456, 728}";
}
);
paths = (
{
closed = 1;
nodes = (
"500 -8 OFFCURVE",
"601 12 OFFCURVE",
"654 41 CURVE",
"654 371 LINE",
"407 371 LINE",
"407 321 LINE",
"602 321 LINE",
"602 42 LINE",
"617 83 LINE",
"562 58 OFFCURVE",
"484 42 OFFCURVE",
"406 42 CURVE SMOOTH",
"225 42 OFFCURVE",
"126 156 OFFCURVE",
"126 365 CURVE SMOOTH",
"126 569 OFFCURVE",
"225 685 OFFCURVE",
"399 685 CURVE SMOOTH",
"486 685 OFFCURVE",
"552 660 OFFCURVE",
"623 595 CURVE",
"648 640 LINE",
"585 705 OFFCURVE",
"500 737 OFFCURVE",
"401 737 CURVE SMOOTH",
"194 737 OFFCURVE",
"67 599 OFFCURVE",
"67 365 CURVE SMOOTH",
"67 130 OFFCURVE",
"193 -8 OFFCURVE",
"406 -8 CURVE SMOOTH"
);
}
);
};
layerId = "9E718F8A-2CEA-4931-B05D-987794BD97DA";
paths = (
{
closed = 1;
nodes = (
"479 -8 OFFCURVE",
"578 12 OFFCURVE",
"637 41 CURVE",
"663 371 LINE",
"416 371 LINE",
"412 321 LINE",
"607 321 LINE",
"586 42 LINE",
"603 83 LINE",
"546 58 OFFCURVE",
"468 42 OFFCURVE",
"400 42 CURVE SMOOTH",
"221 42 OFFCURVE",
"133 147 OFFCURVE",
"133 325 CURVE SMOOTH",
"133 551 OFFCURVE",
"244 685 OFFCURVE",
"430 685 CURVE SMOOTH",
"514 685 OFFCURVE",
"578 659 OFFCURVE",
"650 595 CURVE",
"679 640 LINE",
"614 705 OFFCURVE",
"530 735 OFFCURVE",
"430 735 CURVE SMOOTH",
"212 735 OFFCURVE",
"74 575 OFFCURVE",
"74 321 CURVE SMOOTH",
"74 116 OFFCURVE",
"187 -8 OFFCURVE",
"401 -8 CURVE SMOOTH"
);
}
);
width = 742;
},
{
anchors = (
{
name = bottom;
position = "{409, 0}";
},
{
name = top;
position = "{459, 728}";
}
);
background = {
paths = (
{
closed = 1;
nodes = (
"528 -9 OFFCURVE",
"628 10 OFFCURVE",
"700 45 CURVE",
"700 404 LINE",
"411 404 LINE",
"411 288 LINE",
"552 288 LINE",
"552 91 LINE",
"588 144 LINE",
"538 127 OFFCURVE",
"486 119 OFFCURVE",
"436 119 CURVE SMOOTH",
"290 119 OFFCURVE",
"219 199 OFFCURVE",
"219 365 CURVE SMOOTH",
"219 526 OFFCURVE",
"288 605 OFFCURVE",
"427 605 CURVE SMOOTH",
"500 605 OFFCURVE",
"560 586 OFFCURVE",
"628 538 CURVE",
"681 657 LINE",
"622 708 OFFCURVE",
"526 738 OFFCURVE",
"421 738 CURVE SMOOTH",
"195 738 OFFCURVE",
"51 594 OFFCURVE",
"51 365 CURVE SMOOTH",
"51 131 OFFCURVE",
"194 -9 OFFCURVE",
"429 -9 CURVE SMOOTH"
);
}
);
};
layerId = "E1B555A7-F4E1-459C-9C1A-AE952106EEF9";
paths = (
{
closed = 1;
nodes = (
"515 -9 OFFCURVE",
"616 11 OFFCURVE",
"685 48 CURVE",
"713 404 LINE",
"424 404 LINE",
"414 288 LINE",
"555 288 LINE",
"539 91 LINE",
"580 147 LINE",
"529 128 OFFCURVE",
"479 119 OFFCURVE",
"433 119 CURVE SMOOTH",
"292 119 OFFCURVE",
"227 199 OFFCURVE",
"227 340 CURVE SMOOTH",
"227 503 OFFCURVE",
"307 602 OFFCURVE",
"449 605 CURVE SMOOTH",
"533 607 OFFCURVE",
"589 584 OFFCURVE",
"650 536 CURVE",
"712 655 LINE",
"647 709 OFFCURVE",
"558 738 OFFCURVE",
"447 738 CURVE SMOOTH",
"210 738 OFFCURVE",
"59 582 OFFCURVE",
"59 340 CURVE SMOOTH",
"59 125 OFFCURVE",
"191 -9 OFFCURVE",
"410 -9 CURVE SMOOTH"
);
}
);
width = 763;
}
);
leftKerningGroup = O;
leftMetricsKey = O;
rightKerningGroup = G;
unicode = 0047;
userData = {
anchors = (
);
b = {
};
com.typemytype.robofont.layerData = {
b = {
anchors = (
);
components = (
);
contours = (
{
points = (
{
segmentType = curve;
smooth = 1;
x = 783;
y = "-22";
},
{
smooth = 0;
x = 965;
y = "-22";
},
{
smooth = 0;
x = 1086;
y = 34;
},
{
segmentType = curve;
smooth = 1;
x = 1166;
y = 86;
},
{
smooth = 0;
x = 1270;
y = 154;
},
{
smooth = 0;
x = 1186;
y = 258;
},
{
segmentType = curve;
smooth = 1;
x = 1112;
y = 214;
},
{
smooth = 0;
x = 1024;
y = 162;
},
{
smooth = 0;
x = 939;
y = 120;
},
{
segmentType = curve;
smooth = 1;
x = 806;
y = 120;
},
{
smooth = 0;
x = 446;
y = 120;
},
{
smooth = 0;
x = 316;
y = 406;
},
{
segmentType = curve;
smooth = 1;
x = 316;
y = 706;
},
{
smooth = 0;
x = 316;
y = 1005;
},
{
smooth = 0;
x = 450;
y = 1296;
},
{
segmentType = curve;
smooth = 1;
x = 801;
y = 1296;
},
{
smooth = 0;
x = 980;
y = 1296;
},
{
smooth = 0;
x = 1053;
y = 1246;
},
{
segmentType = curve;
smooth = 1;
x = 1094;
y = 1225;
},
{
smooth = 0;
x = 1174;
y = 1184;
},
{
smooth = 0;
x = 1231;
y = 1300;
},
{
segmentType = curve;
smooth = 1;
x = 1156;
y = 1343;
},
{
smooth = 0;
x = 1106;
y = 1372;
},
{
smooth = 0;
x = 995;
y = 1438;
},
{
segmentType = curve;
smooth = 1;
x = 797;
y = 1438;
},
{
smooth = 0;
x = 359;
y = 1438;
},
{
smooth = 0;
x = 128;
y = 1093;
},
{
segmentType = curve;
smooth = 1;
x = 128;
y = 704;
},
{
smooth = 0;
x = 128;
y = 307;
},
{
smooth = 0;
x = 350;
y = "-22";
}
);
}
);
lib = {
};
name = G;
unicodes = (
);
width = 1448;
};
};
components = (
);
contours = (
);
lib = {
};
name = G;
unicodes = (
);
width = 1538;
};
},
{
glyphname = H;
lastChange = "2016-09-21 08:56:34 +0000";
layers = (
{
anchors = (
{
name = bottom;
position = "{370, 0}";
},
{
name = center;
position = "{399, 370}";
},
{
name = top;
position = "{426, 728}";
},
{
name = topleft;
position = "{64, 728}";
}
);
background = {
anchors = (
{
name = bottom;
position = "{389, 0}";
},
{
name = center;
position = "{418, 370}";
},
{
name = top;
position = "{445, 728}";
},
{
name = topleft;
position = "{84, 728}";
}
);
paths = (
{
closed = 1;
nodes = (
"682 0 LINE",
"682 728 LINE",
"626 728 LINE",
"626 0 LINE"
);
},
{
closed = 1;
nodes = (
"152 0 LINE",
"152 728 LINE",
"96 728 LINE",
"96 0 LINE"
);
},
{
closed = 1;
nodes = (
"635 345 LINE",
"635 395 LINE",
"131 395 LINE",
"131 345 LINE"
);
}
);
};
layerId = "9E718F8A-2CEA-4931-B05D-987794BD97DA";
paths = (
{
closed = 1;
nodes = (
"662 0 LINE",
"719 728 LINE",
"663 728 LINE",
"606 0 LINE"
);
},
{
closed = 1;
nodes = (
"132 0 LINE",
"189 728 LINE",
"133 728 LINE",
"76 0 LINE"
);
},
{
closed = 1;
nodes = (
"643 345 LINE",
"647 395 LINE",
"143 395 LINE",
"138 345 LINE"
);
}
);
width = 778;
},
{
anchors = (
{
name = bottom;
position = "{379, 0}";
},
{
name = center;
position = "{408, 370}";
},
{
name = top;
position = "{436, 728}";
},
{
name = topleft;
position = "{59, 728}";
}
);
background = {
anchors = (
{
name = bottom;
position = "{399, 0}";
},
{
name = center;
position = "{428, 370}";
},
{
name = top;
position = "{456, 728}";
},
{
name = topleft;
position = "{79, 728}";
}
);
paths = (
{
closed = 1;
nodes = (
"726 0 LINE",
"726 728 LINE",
"563 728 LINE",
"563 0 LINE"
);
},
{
closed = 1;
nodes = (
"234 0 LINE",
"234 728 LINE",
"71 728 LINE",
"71 0 LINE"
);
},
{
closed = 1;
nodes = (
"661 304 LINE",
"661 436 LINE",
"124 436 LINE",
"124 304 LINE"
);
}
);
};
layerId = "E1B555A7-F4E1-459C-9C1A-AE952106EEF9";
paths = (
{
closed = 1;
nodes = (
"706 0 LINE",
"763 728 LINE",
"600 728 LINE",
"542 0 LINE"
);
},
{
closed = 1;
nodes = (
"215 0 LINE",
"273 728 LINE",
"109 728 LINE",
"52 0 LINE"
);
},
{
closed = 1;
nodes = (
"665 304 LINE",
"676 436 LINE",
"138 436 LINE",
"128 304 LINE"
);
}
);
width = 797;
}
);
leftKerningGroup = H;
rightKerningGroup = H;
unicode = 0048;
userData = {
anchors = (
);
b = {
};
com.typemytype.robofont.layerData = {
b = {
anchors = (
);
components = (
);
contours = (
);
lib = {
};
name = H;
unicodes = (
);
width = 1464;
};
};
components = (
);
contours = (
);
lib = {
};
name = H;
unicodes = (
);
width = 1524;
};
},
{
glyphname = Hbar;
lastChange = "2016-09-21 08:56:34 +0000";
layers = (
{
background = {
paths = (
{
closed = 1;
nodes = (
"787 542 LINE",
"787 590 LINE",
"5 590 LINE",
"5 542 LINE"
);
},
{
closed = 1;
nodes = (
"689 0 LINE",
"689 728 LINE",
"633 728 LINE",
"633 0 LINE"
);
},
{
closed = 1;
nodes = (
"159 0 LINE",
"159 728 LINE",
"103 728 LINE",
"103 0 LINE"
);
},
{
closed = 1;
nodes = (
"644 345 LINE",
"644 395 LINE",
"139 395 LINE",
"139 345 LINE"
);
}
);
};
layerId = "9E718F8A-2CEA-4931-B05D-987794BD97DA";
paths = (
{
closed = 1;
nodes = (
"810 542 LINE",
"814 590 LINE",
"32 590 LINE",
"28 542 LINE"
);
},
{
closed = 1;
nodes = (
"669 0 LINE",
"726 728 LINE",
"670 728 LINE",
"614 0 LINE"
);
},
{
closed = 1;
nodes = (
"139 0 LINE",
"196 728 LINE",
"140 728 LINE",
"84 0 LINE"
);
},
{
closed = 1;
nodes = (
"651 345 LINE",
"655 395 LINE",
"151 395 LINE",
"147 345 LINE"
);
}
);
width = 792;
},
{
background = {
paths = (
{
closed = 1;
nodes = (
"846 524 LINE",
"846 646 LINE",
"15 646 LINE",
"15 524 LINE"
);
},
{
closed = 1;
nodes = (
"758 0 LINE",
"758 728 LINE",
"595 728 LINE",
"595 0 LINE"
);
},
{
closed = 1;
nodes = (
"267 0 LINE",
"267 728 LINE",
"103 728 LINE",
"103 0 LINE"
);
},
{
closed = 1;
nodes = (
"693 304 LINE",
"693 436 LINE",
"156 436 LINE",
"156 304 LINE"
);
}
);
};
layerId = "E1B555A7-F4E1-459C-9C1A-AE952106EEF9";
paths = (
{
closed = 1;
nodes = (
"868 524 LINE",
"877 646 LINE",
"46 646 LINE",
"37 524 LINE"
);
},
{
closed = 1;
nodes = (
"757 0 LINE",
"815 728 LINE",
"652 728 LINE",
"594 0 LINE"
);
},
{
closed = 1;
nodes = (
"267 0 LINE",
"324 728 LINE",
"161 728 LINE",
"103 0 LINE"
);
},
{
closed = 1;
nodes = (
"717 304 LINE",
"727 436 LINE",
"190 436 LINE",
"180 304 LINE"
);
}
);
width = 862;
}
);
leftKerningGroup = H;
rightKerningGroup = H;
unicode = 0126;
userData = {
com.typemytype.robofont.layerData = {
b = {
anchors = (
);
components = (
);
contours = (
);
lib = {
};
name = Hbar;
unicodes = (
);
width = 1464;
};
};
};
},
{
glyphname = I;
lastChange = "2016-09-21 08:58:57 +0000";
layers = (
{
anchors = (
{
name = bottom;
position = "{104, 0}";
},
{
name = ogonek;
position = "{130, 10}";
},
{
name = top;
position = "{161, 728}";
},
{
name = topleft;
position = "{64, 728}";
}
);
background = {
anchors = (
{
name = bottom;
position = "{124, 0}";
},
{
name = ogonek;
position = "{150, 10}";
},
{
name = top;
position = "{181, 728}";
},
{
name = topleft;
position = "{84, 728}";
}
);
paths = (
{
closed = 1;
nodes = (
"152 0 LINE",
"152 728 LINE",
"96 728 LINE",
"96 0 LINE"
);
}
);
};
layerId = "9E718F8A-2CEA-4931-B05D-987794BD97DA";
paths = (
{
closed = 1;
nodes = (
"132 0 LINE",
"189 728 LINE",
"133 728 LINE",
"76 0 LINE"
);
}
);
width = 248;
},
{
anchors = (
{
name = bottom;
position = "{136, 0}";
},
{
name = ogonek;
position = "{189, 10}";
},
{
name = top;
position = "{193, 728}";
},
{
name = topleft;
position = "{60, 728}";
}
);
background = {
anchors = (
{
name = bottom;
position = "{155, 0}";
},
{
name = ogonek;
position = "{209, 10}";
},
{
name = top;
position = "{212, 728}";
},
{
name = topleft;
position = "{80, 728}";
}
);
paths = (
{
closed = 1;
nodes = (
"239 0 LINE",
"239 728 LINE",
"72 728 LINE",
"72 0 LINE"
);
}
);
};
layerId = "E1B555A7-F4E1-459C-9C1A-AE952106EEF9";
paths = (
{
closed = 1;
nodes = (
"219 0 LINE",
"276 728 LINE",
"109 728 LINE",
"53 0 LINE"
);
}
);
width = 310;
}
);
leftKerningGroup = H;
leftMetricsKey = H;
rightKerningGroup = H;
rightMetricsKey = H;
unicode = 0049;
userData = {
anchors = (
);
b = {
};
com.typemytype.robofont.layerData = {
b = {
anchors = (
);
components = (
);
contours = (
);
lib = {
};
name = I;
unicodes = (
);
width = 592;
};
};
components = (
);
contours = (
);
lib = {
};
name = I;
unicodes = (
);
width = 637;
};
},
{
glyphname = Iogonek;
lastChange = "2016-09-21 08:56:34 +0000";
layers = (
{
background = {
paths = (
{
closed = 1;
nodes = (
"152 -197 OFFCURVE",
"181 -187 OFFCURVE",
"200 -174 CURVE",
"184 -134 LINE",
"162 -147 OFFCURVE",
"139 -153 OFFCURVE",
"123 -153 CURVE SMOOTH",
"82 -153 OFFCURVE",
"53 -129 OFFCURVE",
"53 -85 CURVE SMOOTH",
"53 -39 OFFCURVE",
"87 0 OFFCURVE",
"148 0 CURVE SMOOTH",
"152 0 LINE",
"152 728 LINE",
"96 728 LINE",
"96 0 LINE",
"114 0 LINE",
"134 39 LINE",
"48 25 OFFCURVE",
"1 -28 OFFCURVE",
"1 -91 CURVE SMOOTH",
"1 -153 OFFCURVE",
"48 -197 OFFCURVE",
"118 -197 CURVE SMOOTH"
);
}
);
};
layerId = "9E718F8A-2CEA-4931-B05D-987794BD97DA";
paths = (
{
closed = 1;
nodes = (
"117 -197 OFFCURVE",
"149 -186 OFFCURVE",
"167 -174 CURVE",
"154 -133 LINE",
"131 -147 OFFCURVE",
"107 -153 OFFCURVE",
"91 -153 CURVE SMOOTH",
"51 -153 OFFCURVE",
"27 -131 OFFCURVE",
"27 -87 CURVE SMOOTH",
"27 -42 OFFCURVE",
"54 0 OFFCURVE",
"128 0 CURVE SMOOTH",
"132 0 LINE",
"189 728 LINE",
"133 728 LINE",
"76 0 LINE",
"94 0 LINE",
"119 42 LINE",
"22 31 OFFCURVE",
"-26 -25 OFFCURVE",
"-26 -95 CURVE SMOOTH",
"-26 -157 OFFCURVE",
"17 -197 OFFCURVE",
"85 -197 CURVE SMOOTH"
);
}
);
width = 248;
},
{
background = {
paths = (
{
closed = 1;
nodes = (
"204 -204 OFFCURVE",
"240 -196 OFFCURVE",
"271 -183 CURVE",
"253 -108 LINE",
"233 -117 OFFCURVE",
"215 -121 OFFCURVE",
"197 -121 CURVE SMOOTH",
"158 -121 OFFCURVE",
"136 -102 OFFCURVE",
"136 -66 CURVE SMOOTH",
"136 -28 OFFCURVE",
"169 0 OFFCURVE",
"222 0 CURVE SMOOTH",
"238 0 LINE",
"238 728 LINE",
"71 728 LINE",
"71 0 LINE",
"118 0 LINE",
"131 38 LINE",
"65 11 OFFCURVE",
"34 -36 OFFCURVE",
"34 -88 CURVE SMOOTH",
"34 -159 OFFCURVE",
"92 -204 OFFCURVE",
"166 -204 CURVE SMOOTH"
);
}
);
};
layerId = "E1B555A7-F4E1-459C-9C1A-AE952106EEF9";
paths = (
{
closed = 1;
nodes = (
"171 -204 OFFCURVE",
"205 -196 OFFCURVE",
"237 -183 CURVE",
"225 -108 LINE",
"202 -117 OFFCURVE",
"184 -121 OFFCURVE",
"166 -121 CURVE SMOOTH",
"133 -121 OFFCURVE",
"112 -102 OFFCURVE",
"112 -69 CURVE SMOOTH",
"112 -31 OFFCURVE",
"139 0 OFFCURVE",
"202 0 CURVE SMOOTH",
"218 0 LINE",
"275 728 LINE",
"108 728 LINE",
"52 0 LINE",
"98 0 LINE",
"115 38 LINE",
"46 11 OFFCURVE",
"7 -27 OFFCURVE",
"7 -92 CURVE SMOOTH",
"7 -158 OFFCURVE",
"58 -204 OFFCURVE",
"138 -204 CURVE SMOOTH"
);
}
);
width = 309;
}
);
leftKerningGroup = H;
rightKerningGroup = H;
unicode = 012E;
},
{
color = 4;
glyphname = J;
lastChange = "2016-09-21 08:58:57 +0000";
layers = (
{
anchors = (
{
name = bottom;
position = "{173, 0}";
},
{
name = top;
position = "{229, 728}";
}
);
background = {
anchors = (
{
name = bottom;
position = "{173, 0}";
},
{
name = top;
position = "{286, 728}";
}
);
paths = (
{
closed = 1;
nodes = (
"118 -211 OFFCURVE",
"187 -165 OFFCURVE",
"199 -2 CURVE SMOOTH",
"256 728 LINE",
"200 728 LINE",
"144 0 LINE SMOOTH",
"133 -131 OFFCURVE",
"87 -156 OFFCURVE",
"-38 -131 CURVE",
"-42 -182 LINE"
);
},
{
closed = 1;
nodes = (
"32 -2 LINE SMOOTH",
"143 6 OFFCURVE",
"206 67 OFFCURVE",
"215 186 CURVE SMOOTH",
"257 728 LINE",
"201 728 LINE",
"159 188 LINE SMOOTH",
"152 100 OFFCURVE",
"107 53 OFFCURVE",
"30 46 CURVE SMOOTH",
"-26 42 LINE",
"-25 -6 LINE"
);
}
);
};
layerId = "9E718F8A-2CEA-4931-B05D-987794BD97DA";
paths = (
{
closed = 1;
nodes = (
"108 -211 OFFCURVE",
"187 -165 OFFCURVE",
"200 -2 CURVE SMOOTH",
"258 728 LINE",
"202 728 LINE",
"145 0 LINE SMOOTH",
"134 -131 OFFCURVE",
"77 -156 OFFCURVE",
"-37 -131 CURVE",
"-41 -182 LINE"
);
}
);
width = 316;
},
{
anchors = (
{
name = bottom;
position = "{219, 0}";
},
{
name = top;
position = "{276, 728}";
}
);
background = {
paths = (
{
closed = 1;
nodes = (
"73 -5 LINE SMOOTH",
"229 4 OFFCURVE",
"309 76 OFFCURVE",
"320 224 CURVE SMOOTH",
"359 728 LINE",
"192 728 LINE",
"153 222 LINE SMOOTH",
"148 157 OFFCURVE",
"121 131 OFFCURVE",
"56 127 CURVE SMOOTH",
"-18 123 LINE",
"-9 -10 LINE"
);
}
);
};
layerId = "E1B555A7-F4E1-459C-9C1A-AE952106EEF9";
paths = (
{
closed = 1;
nodes = (
"198 -219 OFFCURVE",
"290 -145 OFFCURVE",
"306 46 CURVE SMOOTH",
"359 728 LINE",
"192 728 LINE",
"138 44 LINE SMOOTH",
"131 -53 OFFCURVE",
"94 -65 OFFCURVE",
"-24 -50 CURVE",
"-34 -183 LINE"
);
}
);
width = 393;
}
);
leftKerningGroup = J;
rightKerningGroup = J;
rightMetricsKey = H;
unicode = 004A;
userData = {
anchors = (
);
b = {
};
com.typemytype.robofont.layerData = {
b = {
anchors = (
);
components = (
);
contours = (
);
lib = {
};
name = J;
unicodes = (
);
width = 1003;
};
};
components = (
);
contours = (
);
lib = {
};
name = J;
unicodes = (
);
width = 1126;
};
},
{
glyphname = K;
lastChange = "2016-09-21 08:58:57 +0000";
layers = (
{
anchors = (
{
name = bottom;
position = "{296, 0}";
},
{
name = top;
position = "{352, 728}";
}
);
background = {
anchors = (
{
name = bottom;
position = "{296, 0}";
},
{
name = top;
position = "{352, 728}";
}
);
paths = (
{
closed = 1;
nodes = (
"627 0 LINE",
"185 392 LINE",
"183 350 LINE",
"604 728 LINE",
"529 728 LINE",
"129 369 LINE",
"550 0 LINE"
);
},
{
closed = 1;
nodes = (
"152 0 LINE",
"152 728 LINE",
"96 728 LINE",
"96 0 LINE"
);
}
);
};
layerId = "9E718F8A-2CEA-4931-B05D-987794BD97DA";
paths = (
{
closed = 1;
nodes = (
"607 0 LINE",
"197 388 LINE",
"187 350 LINE",
"641 728 LINE",
"562 728 LINE",
"138 372 LINE",
"535 0 LINE"
);
},
{
closed = 1;
nodes = (
"132 0 LINE",
"189 728 LINE",
"133 728 LINE",
"76 0 LINE"
);
}
);
width = 628;
},
{
anchors = (
{
name = bottom;
position = "{336, 0}";
},
{
name = top;
position = "{393, 728}";
}
);
background = {
paths = (
{
closed = 1;
nodes = (
"750 0 LINE",
"367 418 LINE",
"354 332 LINE",
"736 728 LINE",
"540 728 LINE",
"203 372 LINE",
"551 0 LINE"
);
},
{
closed = 1;
nodes = (
"239 0 LINE",
"239 728 LINE",
"72 728 LINE",
"72 0 LINE"
);
}
);
};
layerId = "E1B555A7-F4E1-459C-9C1A-AE952106EEF9";
paths = (
{
closed = 1;
nodes = (
"730 0 LINE",
"375 418 LINE",
"369 331 LINE",
"774 728 LINE",
"570 728 LINE",
"213 370 LINE",
"536 0 LINE"
);
},
{
closed = 1;
nodes = (
"219 0 LINE",
"276 728 LINE",
"109 728 LINE",
"53 0 LINE"
);
}
);
width = 706;
}
);
leftKerningGroup = H;
leftMetricsKey = H;
rightKerningGroup = K;
unicode = 004B;
userData = {
anchors = (
);
b = {
};
com.typemytype.robofont.layerData = {
b = {
anchors = (
);
components = (
);
contours = (
);
lib = {
};
name = K;
unicodes = (
);
width = 1210;
};
};
components = (
);
contours = (
);
lib = {
};
name = K;
unicodes = (
);
width = 1329;
};
},
{
glyphname = L;
lastChange = "2016-09-21 08:56:34 +0000";
layers = (
{
anchors = (
{
name = bottom;
position = "{298, 0}";
},
{
name = center;
position = "{354, 365}";
},
{
name = top;
position = "{161, 728}";
},
{
name = topright;
position = "{282, 728}";
}
);
background = {
anchors = (
{
name = bottom;
position = "{298, 0}";
},
{
name = center;
position = "{354, 365}";
},
{
name = top;
position = "{161, 728}";
},
{
name = topright;
position = "{282, 728}";
}
);
paths = (
{
closed = 1;
nodes = (
"532 0 LINE",
"532 50 LINE",
"152 50 LINE",
"152 728 LINE",
"96 728 LINE",
"96 0 LINE"
);
}
);
};
layerId = "9E718F8A-2CEA-4931-B05D-987794BD97DA";
paths = (
{
closed = 1;
nodes = (
"512 0 LINE",
"517 50 LINE",
"136 50 LINE",
"189 728 LINE",
"133 728 LINE",
"76 0 LINE"
);
}
);
width = 549;
},
{
anchors = (
{
name = bottom;
position = "{304, 0}";
},
{
name = center;
position = "{416, 365}";
},
{
name = top;
position = "{191, 728}";
},
{
name = topright;
position = "{368, 728}";
}
);
background = {
anchors = (
{
name = bottom;
position = "{323, 0}";
},
{
name = center;
position = "{436, 365}";
},
{
name = top;
position = "{211, 728}";
},
{
name = topright;
position = "{387, 728}";
}
);
paths = (
{
closed = 1;
nodes = (
"560 0 LINE",
"560 135 LINE",
"238 135 LINE",
"238 728 LINE",
"71 728 LINE",
"71 0 LINE"
);
}
);
};
layerId = "E1B555A7-F4E1-459C-9C1A-AE952106EEF9";
paths = (
{
closed = 1;
nodes = (
"540 0 LINE",
"551 135 LINE",
"228 135 LINE",
"276 728 LINE",
"109 728 LINE",
"52 0 LINE"
);
}
);
width = 584;
}
);
leftKerningGroup = H;
leftMetricsKey = H;
rightKerningGroup = L;
unicode = 004C;
userData = {
anchors = (
);
b = {
};
com.typemytype.robofont.layerData = {
b = {
anchors = (
);
components = (
);
contours = (
{
points = (
{
segmentType = curve;
smooth = 1;
x = 266;
y = 0;
},
{
segmentType = line;
smooth = 1;
x = 1035;
y = 0;
},
{
smooth = 0;
x = 1084;
y = 0;
},
{
smooth = 0;
x = 1108;
y = 34;
},
{
segmentType = curve;
smooth = 1;
x = 1108;
y = 71;
},
{
smooth = 0;
x = 1108;
y = 107;
},
{
smooth = 0;
x = 1084;
y = 141;
},
{
segmentType = curve;
smooth = 1;
x = 1035;
y = 141;
},
{
segmentType = line;
smooth = 0;
x = 356;
y = 141;
},
{
segmentType = line;
smooth = 0;
x = 356;
y = 665;
},
{
segmentType = line;
smooth = 1;
x = 975;
y = 665;
},
{
smooth = 0;
x = 1024;
y = 665;
},
{
smooth = 0;
x = 1049;
y = 698;
},
{
segmentType = curve;
smooth = 1;
x = 1049;
y = 734;
},
{
smooth = 0;
x = 1049;
y = 770;
},
{
smooth = 0;
x = 1026;
y = 803;
},
{
segmentType = curve;
smooth = 1;
x = 975;
y = 803;
},
{
segmentType = line;
smooth = 0;
x = 356;
y = 803;
},
{
segmentType = line;
smooth = 0;
x = 356;
y = 1285;
},
{
segmentType = line;
smooth = 1;
x = 1007;
y = 1285;
},
{
smooth = 0;
x = 1056;
y = 1285;
},
{
smooth = 0;
x = 1080;
y = 1319;
},
{
segmentType = curve;
smooth = 1;
x = 1080;
y = 1356;
},
{
smooth = 0;
x = 1080;
y = 1392;
},
{
smooth = 0;
x = 1056;
y = 1426;
},
{
segmentType = curve;
smooth = 1;
x = 1007;
y = 1426;
},
{
segmentType = line;
smooth = 1;
x = 261;
y = 1426;
},
{
smooth = 0;
x = 213;
y = 1426;
},
{
smooth = 0;
x = 178;
y = 1383;
},
{
segmentType = curve;
smooth = 1;
x = 178;
y = 1340;
},
{
segmentType = line;
smooth = 1;
x = 178;
y = 86;
},
{
smooth = 0;
x = 178;
y = 41;
},
{
smooth = 0;
x = 222;
y = 0;
}
);
}
);
lib = {
};
name = L;
unicodes = (
);
width = 1095;
};
};
components = (
);
contours = (
);
lib = {
};
name = L;
unicodes = (
);
width = 1169;
};
},
{
color = 4;
glyphname = LJ;
lastChange = "2016-09-21 08:58:57 +0000";
layers = (
{
background = {
paths = (
{
closed = 1;
nodes = (
"480 0 LINE",
"484 50 LINE",
"135 50 LINE",
"188 728 LINE",
"132 728 LINE",
"75 0 LINE"
);
},
{
closed = 1;
nodes = (
"576 -211 OFFCURVE",
"646 -165 OFFCURVE",
"658 -2 CURVE SMOOTH",
"715 728 LINE",
"659 728 LINE",
"602 0 LINE SMOOTH",
"592 -131 OFFCURVE",
"545 -156 OFFCURVE",
"420 -131 CURVE",
"416 -182 LINE"
);
}
);
};
layerId = "9E718F8A-2CEA-4931-B05D-987794BD97DA";
paths = (
{
closed = 1;
nodes = (
"481 0 LINE",
"486 50 LINE",
"136 50 LINE",
"189 728 LINE",
"133 728 LINE",
"76 0 LINE"
);
},
{
closed = 1;
nodes = (
"567 -211 OFFCURVE",
"646 -165 OFFCURVE",
"659 -2 CURVE SMOOTH",
"717 728 LINE",
"661 728 LINE",
"603 0 LINE SMOOTH",
"593 -131 OFFCURVE",
"536 -156 OFFCURVE",
"421 -131 CURVE",
"417 -182 LINE"
);
}
);
width = 775;
},
{
background = {
paths = (
{
closed = 1;
nodes = (
"509 0 LINE",
"520 135 LINE",
"228 135 LINE",
"275 728 LINE",
"108 728 LINE",
"52 0 LINE"
);
},
{
closed = 1;
nodes = (
"745 -219 OFFCURVE",
"828 -145 OFFCURVE",
"843 46 CURVE SMOOTH",
"896 728 LINE",
"728 728 LINE",
"675 44 LINE SMOOTH",
"667 -53 OFFCURVE",
"640 -65 OFFCURVE",
"512 -50 CURVE",
"502 -183 LINE"
);
}
);
};
layerId = "E1B555A7-F4E1-459C-9C1A-AE952106EEF9";
paths = (
{
closed = 1;
nodes = (
"509 0 LINE",
"520 135 LINE",
"228 135 LINE",
"276 728 LINE",
"109 728 LINE",
"52 0 LINE"
);
},
{
closed = 1;
nodes = (
"734 -219 OFFCURVE",
"826 -145 OFFCURVE",
"842 46 CURVE SMOOTH",
"896 728 LINE",
"728 728 LINE",
"675 44 LINE SMOOTH",
"667 -53 OFFCURVE",
"630 -65 OFFCURVE",
"512 -50 CURVE",
"502 -183 LINE"
);
}
);
width = 929;
}
);
leftKerningGroup = H;
leftMetricsKey = L;
rightKerningGroup = J;
rightMetricsKey = J;
unicode = 01C7;
},
{
color = 4;
glyphname = Lslash;
lastChange = "2016-09-21 08:56:34 +0000";
layers = (
{
background = {
paths = (
{
closed = 1;
nodes = (
"520 0 LINE",
"524 50 LINE",
"144 50 LINE",
"196 728 LINE",
"140 728 LINE",
"84 0 LINE"
);
}
);
};
guideLines = (
{
position = "{356, 370}";
},
{
angle = 90;
position = "{-77, 129}";
},
{
angle = 90;
position = "{185, 129}";
},
{
angle = 90;
position = "{288, 129}";
}
);
layerId = "9E718F8A-2CEA-4931-B05D-987794BD97DA";
paths = (
{
closed = 1;
nodes = (
"520 0 LINE",
"524 50 LINE",
"144 50 LINE",
"196 728 LINE",
"140 728 LINE",
"84 0 LINE"
);
},
{
closed = 1;
nodes = (
"372 469 LINE",
"376 526 LINE",
"14 326 LINE",
"10 270 LINE"
);
}
);
width = 556;
},
{
background = {
paths = (
{
closed = 1;
nodes = (
"475 453 LINE",
"487 595 LINE",
"18 337 LINE",
"6 195 LINE"
);
},
{
closed = 1;
nodes = (
"572 0 LINE",
"583 135 LINE",
"260 135 LINE",
"307 728 LINE",
"140 728 LINE",
"84 0 LINE"
);
}
);
};
guideLines = (
{
angle = 90;
position = "{500, 613}";
},
{
angle = 90;
position = "{127, 613}";
},
{
position = "{501, 740}";
},
{
angle = 90;
position = "{603, 613}";
}
);
layerId = "E1B555A7-F4E1-459C-9C1A-AE952106EEF9";
paths = (
{
closed = 1;
nodes = (
"572 0 LINE",
"583 135 LINE",
"260 135 LINE",
"308 728 LINE",
"142 728 LINE",
"84 0 LINE"
);
},
{
closed = 1;
nodes = (
"475 453 LINE",
"487 595 LINE",
"18 337 LINE",
"6 195 LINE"
);
}
);
width = 616;
}
);
leftKerningGroup = L;
rightKerningGroup = L;
rightMetricsKey = L;
unicode = 0141;
},
{
color = 4;
glyphname = M;
lastChange = "2016-09-21 08:56:34 +0000";
layers = (
{
anchors = (
{
name = bottom;
position = "{414, 0}";
},
{
name = top;
position = "{471, 728}";
}
);
background = {
paths = (
{
closed = 1;
nodes = (
"130 0 LINE",
"183 667 LINE",
"155 665 LINE",
"403 115 LINE",
"446 115 LINE",
"779 664 LINE",
"751 667 LINE",
"698 0 LINE",
"752 0 LINE",
"809 728 LINE",
"761 728 LINE",
"413 144 LINE",
"440 144 LINE",
"182 728 LINE",
"133 728 LINE",
"76 0 LINE"
);
}
);
};
layerId = "9E718F8A-2CEA-4931-B05D-987794BD97DA";
paths = (
{
closed = 1;
nodes = (
"130 0 LINE",
"182 667 LINE",
"151 665 LINE",
"394 0 LINE",
"437 0 LINE",
"782 664 LINE",
"752 667 LINE",
"698 0 LINE",
"752 0 LINE",
"809 728 LINE",
"761 728 LINE",
"401 29 LINE",
"433 29 LINE",
"182 728 LINE",
"133 728 LINE",
"76 0 LINE"
);
}
);
width = 868;
},
{
anchors = (
{
name = bottom;
position = "{415, 0}";
},
{
name = top;
position = "{472, 728}";
}
);
background = {
paths = (
{
closed = 1;
nodes = (
"199 0 LINE",
"238 480 LINE",
"197 471 LINE",
"362 0 LINE",
"469 0 LINE",
"705 471 LINE",
"669 480 LINE",
"631 0 LINE",
"777 0 LINE",
"834 728 LINE",
"705 728 LINE",
"399 134 LINE",
"456 134 LINE",
"242 728 LINE",
"111 728 LINE",
"54 0 LINE"
);
},
{
closed = 1;
nodes = (
"199 0 LINE",
"238 480 LINE",
"205 471 LINE",
"371 120 LINE",
"478 120 LINE",
"694 471 LINE",
"668 480 LINE",
"630 0 LINE",
"776 0 LINE",
"834 728 LINE",
"705 728 LINE",
"412 254 LINE",
"456 254 LINE",
"243 728 LINE",
"112 728 LINE",
"54 0 LINE"
);
}
);
};
layerId = "E1B555A7-F4E1-459C-9C1A-AE952106EEF9";
leftMetricsKey = "=H+2";
rightMetricsKey = "=H+2";
paths = (
{
closed = 1;
nodes = (
"199 0 LINE",
"238 480 LINE",
"197 471 LINE",
"362 0 LINE",
"469 0 LINE",
"707 471 LINE",
"669 480 LINE",
"631 0 LINE",
"777 0 LINE",
"834 728 LINE",
"703 728 LINE",
"400 134 LINE",
"453 134 LINE",
"242 728 LINE",
"111 728 LINE",
"54 0 LINE"
);
}
);
width = 870;
}
);
leftKerningGroup = H;
leftMetricsKey = H;
rightKerningGroup = H;
rightMetricsKey = H;
unicode = 004D;
userData = {
anchors = (
);
b = {
};
com.typemytype.robofont.layerData = {
b = {
anchors = (
);
components = (
);
contours = (
);
lib = {
};
name = M;
unicodes = (
);
width = 1899;
};
};
components = (
);
contours = (
);
lib = {
};
name = M;
unicodes = (
);
width = 1984;
};
},
{
glyphname = N;
lastChange = "2016-09-21 08:58:59 +0000";
layers = (
{
anchors = (
{
name = bottom;
position = "{359, 0}";
},
{
name = top;
position = "{416, 728}";
}
);
background = {
anchors = (
{
name = bottom;
position = "{359, 0}";
},
{
name = top;
position = "{416, 728}";
}
);
paths = (
{
closed = 1;
nodes = (
"149 0 LINE",
"149 665 LINE",
"126 664 LINE",
"618 0 LINE",
"662 0 LINE",
"662 728 LINE",
"609 728 LINE",
"609 63 LINE",
"633 64 LINE",
"142 728 LINE",
"96 728 LINE",
"96 0 LINE"
);
}
);
};
layerId = "9E718F8A-2CEA-4931-B05D-987794BD97DA";
paths = (
{
closed = 1;
nodes = (
"129 0 LINE",
"182 665 LINE",
"160 664 LINE",
"598 0 LINE",
"643 0 LINE",
"699 728 LINE",
"647 728 LINE",
"594 63 LINE",
"618 64 LINE",
"179 728 LINE",
"133 728 LINE",
"76 0 LINE"
);
}
);
width = 759;
},
{
anchors = (
{
name = bottom;
position = "{370, 0}";
},
{
name = top;
position = "{426, 728}";
}
);
background = {
paths = (
{
closed = 1;
nodes = (
"226 0 LINE",
"226 511 LINE",
"198 490 LINE",
"583 0 LINE",
"707 0 LINE",
"707 728 LINE",
"551 728 LINE",
"551 217 LINE",
"580 238 LINE",
"193 728 LINE",
"71 728 LINE",
"71 0 LINE"
);
}
);
};
layerId = "E1B555A7-F4E1-459C-9C1A-AE952106EEF9";
paths = (
{
closed = 1;
nodes = (
"207 0 LINE",
"248 511 LINE",
"214 490 LINE",
"562 0 LINE",
"686 0 LINE",
"744 728 LINE",
"588 728 LINE",
"547 217 LINE",
"582 238 LINE",
"231 728 LINE",
"109 728 LINE",
"52 0 LINE"
);
}
);
width = 777;
}
);
leftKerningGroup = H;
leftMetricsKey = H;
rightKerningGroup = H;
rightMetricsKey = H;
unicode = 004E;
userData = {
anchors = (
);
b = {
};
com.typemytype.robofont.layerData = {
b = {
anchors = (
);
components = (
);
contours = (
);
lib = {
};
name = N;
unicodes = (
);
width = 1499;
};
};
components = (
);
contours = (
);
lib = {
};
name = N;
unicodes = (
);
width = 1557;
};
},
{
glyphname = Eng;
lastChange = "2016-09-21 08:58:57 +0000";
layers = (
{
background = {
paths = (
{
closed = 1;
nodes = (
"609 63 LINE",
"633 64 LINE",
"142 728 LINE",
"96 728 LINE",
"96 0 LINE",
"149 0 LINE",
"149 665 LINE",
"126 664 LINE",
"618 0 LINE",
"609 39 LINE",
"609 -13 LINE SMOOTH",
"609 -93 OFFCURVE",
"566 -133 OFFCURVE",
"488 -139 CURVE SMOOTH",
"433 -144 LINE",
"437 -192 LINE",
"494 -188 LINE SMOOTH",
"614 -180 OFFCURVE",
"662 -112 OFFCURVE",
"662 -9 CURVE SMOOTH",
"662 728 LINE",
"609 728 LINE"
);
}
);
};
layerId = "9E718F8A-2CEA-4931-B05D-987794BD97DA";
paths = (
{
closed = 1;
nodes = (
"594 63 LINE",
"618 64 LINE",
"179 728 LINE",
"133 728 LINE",
"76 0 LINE",
"129 0 LINE",
"182 665 LINE",
"160 664 LINE",
"598 0 LINE",
"593 39 LINE",
"589 -13 LINE SMOOTH",
"583 -93 OFFCURVE",
"536 -133 OFFCURVE",
"457 -139 CURVE SMOOTH",
"402 -144 LINE",
"402 -192 LINE",
"460 -188 LINE SMOOTH",
"580 -180 OFFCURVE",
"634 -112 OFFCURVE",
"641 -9 CURVE SMOOTH",
"699 728 LINE",
"647 728 LINE"
);
}
);
width = 758;
},
{
background = {
paths = (
{
closed = 1;
nodes = (
"551 217 LINE",
"580 238 LINE",
"193 728 LINE",
"71 728 LINE",
"71 0 LINE",
"226 0 LINE",
"226 511 LINE",
"198 490 LINE",
"577 7 LINE",
"550 94 LINE",
"550 25 LINE SMOOTH",
"550 -28 OFFCURVE",
"517 -61 OFFCURVE",
"460 -64 CURVE SMOOTH",
"380 -69 LINE",
"390 -194 LINE",
"488 -189 LINE SMOOTH",
"633 -181 OFFCURVE",
"707 -107 OFFCURVE",
"707 31 CURVE SMOOTH",
"707 728 LINE",
"551 728 LINE"
);
}
);
};
layerId = "E1B555A7-F4E1-459C-9C1A-AE952106EEF9";
paths = (
{
closed = 1;
nodes = (
"547 217 LINE",
"582 238 LINE",
"231 728 LINE",
"109 728 LINE",
"52 0 LINE",
"207 0 LINE",
"248 511 LINE",
"214 490 LINE",
"562 0 LINE",
"537 94 LINE",
"532 29 LINE SMOOTH",
"528 -28 OFFCURVE",
"492 -61 OFFCURVE",
"430 -65 CURVE SMOOTH",
"351 -69 LINE",
"359 -194 LINE",
"443 -189 LINE SMOOTH",
"599 -181 OFFCURVE",
"677 -107 OFFCURVE",
"689 41 CURVE SMOOTH",
"744 728 LINE",
"588 728 LINE"
);
}
);
width = 777;
}
);
leftKerningGroup = H;
leftMetricsKey = H;
rightKerningGroup = H;
rightMetricsKey = H;
unicode = 014A;
userData = {
com.typemytype.robofont.layerData = {
b = {
anchors = (
);
components = (
);
contours = (
);
lib = {
};
name = Eng;
unicodes = (
);
width = 1495;
};
};
};
},
{
glyphname = O;
lastChange = "2016-09-21 08:56:34 +0000";
layers = (
{
anchors = (
{
name = bottom;
position = "{370, 0}";
},
{
name = center;
position = "{400, 365}";
},
{
name = ogonek;
position = "{479, 10}";
},
{
name = top;
position = "{427, 728}";
},
{
name = topleft;
position = "{64, 728}";
},
{
name = topright;
position = "{458, 728}";
}
);
background = {
anchors = (
{
name = bottom;
position = "{1196, 0}";
},
{
name = center;
position = "{1255, 365}";
},
{
name = ogonek;
position = "{1307, 10}";
},
{
name = top;
position = "{1310, 728}";
},
{
name = topleft;
position = "{947, 728}";
},
{
name = topright;
position = "{1341, 728}";
}
);
paths = (
{
closed = 1;
nodes = (
"589 -8 OFFCURVE",
"713 134 OFFCURVE",
"713 365 CURVE SMOOTH",
"713 595 OFFCURVE",
"590 737 OFFCURVE",
"389 737 CURVE SMOOTH",
"189 737 OFFCURVE",
"67 595 OFFCURVE",
"67 364 CURVE SMOOTH",
"67 134 OFFCURVE",
"191 -8 OFFCURVE",
"389 -8 CURVE SMOOTH"
);
},
{
closed = 1;
nodes = (
"223 43 OFFCURVE",
"126 161 OFFCURVE",
"126 365 CURVE SMOOTH",
"126 568 OFFCURVE",
"223 685 OFFCURVE",
"389 685 CURVE SMOOTH",
"558 685 OFFCURVE",
"654 569 OFFCURVE",
"654 365 CURVE SMOOTH",
"654 160 OFFCURVE",
"557 43 OFFCURVE",
"389 43 CURVE SMOOTH"
);
}
);
};
layerId = "9E718F8A-2CEA-4931-B05D-987794BD97DA";
paths = (
{
closed = 1;
nodes = (
"592 -8 OFFCURVE",
"722 150 OFFCURVE",
"722 396 CURVE SMOOTH",
"722 608 OFFCURVE",
"603 737 OFFCURVE",
"407 737 CURVE SMOOTH",
"206 737 OFFCURVE",
"75 578 OFFCURVE",
"75 332 CURVE SMOOTH",
"75 120 OFFCURVE",
"194 -8 OFFCURVE",
"389 -8 CURVE SMOOTH"
);
},
{
closed = 1;
nodes = (
"226 44 OFFCURVE",
"134 147 OFFCURVE",
"134 331 CURVE SMOOTH",
"134 552 OFFCURVE",
"238 684 OFFCURVE",
"407 684 CURVE SMOOTH",
"571 684 OFFCURVE",
"663 582 OFFCURVE",
"663 397 CURVE SMOOTH",
"663 177 OFFCURVE",
"560 44 OFFCURVE",
"390 44 CURVE SMOOTH"
);
}
);
width = 780;
},
{
anchors = (
{
name = bottom;
position = "{388, 0}";
},
{
name = center;
position = "{417, 365}";
},
{
name = ogonek;
position = "{511, 10}";
},
{
name = top;
position = "{444, 728}";
},
{
name = topleft;
position = "{60, 728}";
},
{
name = topright;
position = "{476, 728}";
}
);
background = {
paths = (
{
closed = 1;
nodes = (
"628 -9 OFFCURVE",
"764 136 OFFCURVE",
"764 365 CURVE SMOOTH",
"764 593 OFFCURVE",
"628 738 OFFCURVE",
"408 738 CURVE SMOOTH",
"188 738 OFFCURVE",
"51 593 OFFCURVE",
"51 365 CURVE SMOOTH",
"51 136 OFFCURVE",
"188 -9 OFFCURVE",
"408 -9 CURVE SMOOTH"
);
},
{
closed = 1;
nodes = (
"290 120 OFFCURVE",
"217 202 OFFCURVE",
"217 365 CURVE SMOOTH",
"217 527 OFFCURVE",
"290 608 OFFCURVE",
"408 608 CURVE SMOOTH",
"526 608 OFFCURVE",
"599 526 OFFCURVE",
"599 365 CURVE SMOOTH",
"599 204 OFFCURVE",
"526 120 OFFCURVE",
"408 120 CURVE SMOOTH"
);
}
);
};
layerId = "E1B555A7-F4E1-459C-9C1A-AE952106EEF9";
paths = (
{
closed = 1;
nodes = (
"630 -10 OFFCURVE",
"774 148 OFFCURVE",
"774 388 CURVE SMOOTH",
"774 605 OFFCURVE",
"637 739 OFFCURVE",
"421 739 CURVE SMOOTH",
"202 739 OFFCURVE",
"59 581 OFFCURVE",
"59 340 CURVE SMOOTH",
"59 123 OFFCURVE",
"195 -10 OFFCURVE",
"411 -10 CURVE SMOOTH"
);
},
{
closed = 1;
nodes = (
"291 120 OFFCURVE",
"225 198 OFFCURVE",
"225 340 CURVE SMOOTH",
"225 507 OFFCURVE",
"300 608 OFFCURVE",
"424 608 CURVE SMOOTH",
"539 608 OFFCURVE",
"607 530 OFFCURVE",
"607 388 CURVE SMOOTH",
"607 219 OFFCURVE",
"531 120 OFFCURVE",
"410 120 CURVE SMOOTH"
);
}
);
width = 815;
}
);
leftKerningGroup = O;
rightKerningGroup = O;
unicode = 004F;
userData = {
anchors = (
);
b = {
};
com.typemytype.robofont.guides = (
);
com.typemytype.robofont.layerData = {
b = {
anchors = (
);
components = (
);
contours = (
);
lib = {
};
name = O;
unicodes = (
);
width = 1597;
};
};
components = (
);
contours = (
);
lib = {
};
name = O;
unicodes = (
);
width = 1604;
};
},
{
glyphname = Ohorn;
lastChange = "2016-09-21 08:56:34 +0000";
layers = (
{
anchors = (
{
name = bottom;
position = "{371, 0}";
},
{
name = top;
position = "{427, 728}";
}
);
background = {
anchors = (
{
name = bottom;
position = "{1094, 0}";
},
{
name = top;
position = "{1150, 728}";
}
);
paths = (
{
closed = 1;
nodes = (
"588 -8 OFFCURVE",
"713 134 OFFCURVE",
"713 365 CURVE SMOOTH",
"713 525 OFFCURVE",
"654 641 OFFCURVE",
"546 698 CURVE",
"553 685 LINE",
"654 685 OFFCURVE",
"713 741 OFFCURVE",
"713 836 CURVE SMOOTH",
"713 858 LINE",
"661 858 LINE",
"661 845 LINE SMOOTH",
"661 761 OFFCURVE",
"628 729 OFFCURVE",
"539 728 CURVE SMOOTH",
"498 728 OFFCURVE",
"443 737 OFFCURVE",
"394 737 CURVE SMOOTH",
"189 737 OFFCURVE",
"67 595 OFFCURVE",
"67 364 CURVE SMOOTH",
"67 134 OFFCURVE",
"192 -8 OFFCURVE",
"389 -8 CURVE SMOOTH"
);
},
{
closed = 1;
nodes = (
"223 43 OFFCURVE",
"126 161 OFFCURVE",
"126 365 CURVE SMOOTH",
"126 568 OFFCURVE",
"223 685 OFFCURVE",
"389 685 CURVE SMOOTH",
"558 685 OFFCURVE",
"654 569 OFFCURVE",
"654 365 CURVE SMOOTH",
"654 160 OFFCURVE",
"557 43 OFFCURVE",
"389 43 CURVE SMOOTH"
);
}
);
};
guideLines = (
{
angle = 90;
position = "{690, 479}";
}
);
layerId = "9E718F8A-2CEA-4931-B05D-987794BD97DA";
paths = (
{
closed = 1;
nodes = (
"592 -8 OFFCURVE",
"722 150 OFFCURVE",
"722 396 CURVE SMOOTH",
"722 556 OFFCURVE",
"654 653 OFFCURVE",
"577 695 CURVE",
"582 685 LINE",
"698 685 OFFCURVE",
"751 741 OFFCURVE",
"759 836 CURVE SMOOTH",
"760 858 LINE",
"709 858 LINE",
"708 845 LINE SMOOTH",
"701 761 OFFCURVE",
"666 728 OFFCURVE",
"576 728 CURVE SMOOTH",
"514 728 OFFCURVE",
"467 737 OFFCURVE",
"417 737 CURVE SMOOTH",
"204 737 OFFCURVE",
"75 578 OFFCURVE",
"75 332 CURVE SMOOTH",
"75 120 OFFCURVE",
"194 -8 OFFCURVE",
"389 -8 CURVE SMOOTH"
);
},
{
closed = 1;
nodes = (
"226 44 OFFCURVE",
"134 147 OFFCURVE",
"134 331 CURVE SMOOTH",
"134 552 OFFCURVE",
"238 684 OFFCURVE",
"407 684 CURVE SMOOTH",
"571 684 OFFCURVE",
"663 582 OFFCURVE",
"663 397 CURVE SMOOTH",
"663 177 OFFCURVE",
"560 44 OFFCURVE",
"390 44 CURVE SMOOTH"
);
}
);
width = 780;
},
{
anchors = (
{
name = bottom;
position = "{388, 0}";
},
{
name = top;
position = "{444, 728}";
}
);
background = {
anchors = (
{
name = bottom;
position = "{408, 0}";
},
{
name = top;
position = "{464, 728}";
}
);
paths = (
{
closed = 1;
nodes = (
"628 -9 OFFCURVE",
"764 136 OFFCURVE",
"764 365 CURVE SMOOTH",
"764 503 OFFCURVE",
"717 609 OFFCURVE",
"624 672 CURVE",
"607 651 LINE",
"699 651 OFFCURVE",
"764 718 OFFCURVE",
"764 813 CURVE SMOOTH",
"764 853 LINE",
"626 853 LINE",
"626 833 LINE SMOOTH",
"626 756 OFFCURVE",
"602 728 OFFCURVE",
"537 728 CURVE SMOOTH",
"492 728 OFFCURVE",
"460 738 OFFCURVE",
"410 738 CURVE SMOOTH",
"188 738 OFFCURVE",
"51 593 OFFCURVE",
"51 365 CURVE SMOOTH",
"51 136 OFFCURVE",
"188 -9 OFFCURVE",
"408 -9 CURVE SMOOTH"
);
},
{
closed = 1;
nodes = (
"290 120 OFFCURVE",
"217 202 OFFCURVE",
"217 365 CURVE SMOOTH",
"217 527 OFFCURVE",
"290 608 OFFCURVE",
"408 608 CURVE SMOOTH",
"526 608 OFFCURVE",
"599 526 OFFCURVE",
"599 365 CURVE SMOOTH",
"599 204 OFFCURVE",
"526 120 OFFCURVE",
"408 120 CURVE SMOOTH"
);
}
);
};
guideLines = (
{
angle = 90;
position = "{991, 1033}";
}
);
layerId = "E1B555A7-F4E1-459C-9C1A-AE952106EEF9";
paths = (
{
closed = 1;
nodes = (
"630 -10 OFFCURVE",
"774 148 OFFCURVE",
"774 388 CURVE SMOOTH",
"774 517 OFFCURVE",
"727 615 OFFCURVE",
"647 672 CURVE",
"641 651 LINE",
"737 651 OFFCURVE",
"802 718 OFFCURVE",
"809 813 CURVE SMOOTH",
"812 853 LINE",
"674 853 LINE",
"671 833 LINE SMOOTH",
"666 756 OFFCURVE",
"644 728 OFFCURVE",
"574 728 CURVE SMOOTH",
"529 728 OFFCURVE",
"492 739 OFFCURVE",
"432 739 CURVE SMOOTH",
"202 739 OFFCURVE",
"59 581 OFFCURVE",
"59 340 CURVE SMOOTH",
"59 123 OFFCURVE",
"195 -10 OFFCURVE",
"411 -10 CURVE SMOOTH"
);
},
{
closed = 1;
nodes = (
"291 120 OFFCURVE",
"225 198 OFFCURVE",
"225 340 CURVE SMOOTH",
"225 507 OFFCURVE",
"300 608 OFFCURVE",
"424 608 CURVE SMOOTH",
"539 608 OFFCURVE",
"607 530 OFFCURVE",
"607 388 CURVE SMOOTH",
"607 219 OFFCURVE",
"531 120 OFFCURVE",
"410 120 CURVE SMOOTH"
);
}
);
width = 815;
}
);
leftKerningGroup = O;
leftMetricsKey = O;
widthMetricsKey = O;
rightKerningGroup = O;
unicode = 01A0;
},
{
glyphname = Oogonek;
lastChange = "2016-09-21 08:56:34 +0000";
layers = (
{
anchors = (
{
name = top;
position = "{427, 728}";
}
);
background = {
anchors = (
{
name = top;
position = "{1253, 728}";
}
);
paths = (
{
closed = 1;
nodes = (
"629 44 OFFCURVE",
"713 174 OFFCURVE",
"713 365 CURVE SMOOTH",
"713 595 OFFCURVE",
"589 737 OFFCURVE",
"389 737 CURVE SMOOTH",
"190 737 OFFCURVE",
"67 595 OFFCURVE",
"67 364 CURVE SMOOTH",
"67 123 OFFCURVE",
"205 -22 OFFCURVE",
"417 -7 CURVE",
"409 11 LINE",
"373 -11 OFFCURVE",
"351 -50 OFFCURVE",
"351 -91 CURVE SMOOTH",
"351 -154 OFFCURVE",
"399 -197 OFFCURVE",
"468 -197 CURVE SMOOTH",
"500 -197 OFFCURVE",
"529 -189 OFFCURVE",
"551 -174 CURVE",
"534 -134 LINE",
"512 -146 OFFCURVE",
"491 -153 OFFCURVE",
"473 -153 CURVE SMOOTH",
"430 -153 OFFCURVE",
"403 -127 OFFCURVE",
"403 -85 CURVE SMOOTH",
"403 -41 OFFCURVE",
"430 -11 OFFCURVE",
"481 3 CURVE SMOOTH"
);
},
{
closed = 1;
nodes = (
"126 568 OFFCURVE",
"223 685 OFFCURVE",
"389 685 CURVE SMOOTH",
"558 685 OFFCURVE",
"654 569 OFFCURVE",
"654 365 CURVE SMOOTH",
"654 160 OFFCURVE",
"557 43 OFFCURVE",
"389 43 CURVE SMOOTH",
"223 43 OFFCURVE",
"126 161 OFFCURVE",
"126 365 CURVE SMOOTH"
);
}
);
};
layerId = "9E718F8A-2CEA-4931-B05D-987794BD97DA";
paths = (
{
closed = 1;
nodes = (
"614 34 OFFCURVE",
"722 166 OFFCURVE",
"722 396 CURVE SMOOTH",
"722 608 OFFCURVE",
"603 737 OFFCURVE",
"407 737 CURVE SMOOTH",
"206 737 OFFCURVE",
"75 578 OFFCURVE",
"75 332 CURVE SMOOTH",
"75 120 OFFCURVE",
"194 -7 OFFCURVE",
"382 -7 CURVE",
"390 10 LINE",
"350 -9 OFFCURVE",
"324 -48 OFFCURVE",
"324 -96 CURVE SMOOTH",
"324 -157 OFFCURVE",
"367 -197 OFFCURVE",
"435 -197 CURVE SMOOTH",
"467 -197 OFFCURVE",
"499 -186 OFFCURVE",
"518 -174 CURVE",
"504 -133 LINE",
"481 -147 OFFCURVE",
"458 -153 OFFCURVE",
"441 -153 CURVE SMOOTH",
"401 -153 OFFCURVE",
"377 -131 OFFCURVE",
"377 -89 CURVE SMOOTH",
"377 -45 OFFCURVE",
"405 -13 OFFCURVE",
"465 0 CURVE SMOOTH"
);
},
{
closed = 1;
nodes = (
"226 44 OFFCURVE",
"134 147 OFFCURVE",
"134 331 CURVE SMOOTH",
"134 552 OFFCURVE",
"238 684 OFFCURVE",
"407 684 CURVE SMOOTH",
"571 684 OFFCURVE",
"663 582 OFFCURVE",
"663 397 CURVE SMOOTH",
"663 177 OFFCURVE",
"560 44 OFFCURVE",
"390 44 CURVE SMOOTH"
);
}
);
width = 780;
},
{
anchors = (
{
name = top;
position = "{444, 728}";
}
);
background = {
paths = (
{
closed = 1;
nodes = (
"677 51 OFFCURVE",
"764 181 OFFCURVE",
"764 365 CURVE SMOOTH",
"764 593 OFFCURVE",
"628 738 OFFCURVE",
"408 738 CURVE SMOOTH",
"188 738 OFFCURVE",
"51 593 OFFCURVE",
"51 365 CURVE SMOOTH",
"51 129 OFFCURVE",
"196 -17 OFFCURVE",
"425 -9 CURVE",
"411 12 LINE",
"376 -11 OFFCURVE",
"356 -50 OFFCURVE",
"356 -90 CURVE SMOOTH",
"356 -156 OFFCURVE",
"411 -204 OFFCURVE",
"489 -204 CURVE SMOOTH",
"526 -204 OFFCURVE",
"562 -196 OFFCURVE",
"593 -183 CURVE",
"575 -108 LINE",
"556 -117 OFFCURVE",
"537 -121 OFFCURVE",
"520 -121 CURVE SMOOTH",
"480 -121 OFFCURVE",
"459 -102 OFFCURVE",
"459 -66 CURVE SMOOTH",
"459 -32 OFFCURVE",
"480 -8 OFFCURVE",
"524 5 CURVE SMOOTH"
);
},
{
closed = 1;
nodes = (
"217 527 OFFCURVE",
"290 608 OFFCURVE",
"408 608 CURVE SMOOTH",
"526 608 OFFCURVE",
"599 526 OFFCURVE",
"599 365 CURVE SMOOTH",
"599 204 OFFCURVE",
"526 120 OFFCURVE",
"408 120 CURVE SMOOTH",
"290 120 OFFCURVE",
"217 202 OFFCURVE",
"217 365 CURVE SMOOTH"
);
}
);
};
layerId = "E1B555A7-F4E1-459C-9C1A-AE952106EEF9";
paths = (
{
closed = 1;
nodes = (
"661 35 OFFCURVE",
"774 173 OFFCURVE",
"774 388 CURVE SMOOTH",
"774 605 OFFCURVE",
"641 739 OFFCURVE",
"421 739 CURVE SMOOTH",
"202 739 OFFCURVE",
"59 581 OFFCURVE",
"59 340 CURVE SMOOTH",
"59 123 OFFCURVE",
"195 -10 OFFCURVE",
"404 -9 CURVE",
"393 12 LINE",
"350 -13 OFFCURVE",
"330 -50 OFFCURVE",
"330 -94 CURVE SMOOTH",
"330 -158 OFFCURVE",
"380 -204 OFFCURVE",
"461 -204 CURVE SMOOTH",
"494 -204 OFFCURVE",
"527 -196 OFFCURVE",
"559 -183 CURVE",
"547 -108 LINE",
"525 -117 OFFCURVE",
"506 -121 OFFCURVE",
"489 -121 CURVE SMOOTH",
"456 -121 OFFCURVE",
"434 -102 OFFCURVE",
"434 -69 CURVE SMOOTH",
"434 -35 OFFCURVE",
"459 -10 OFFCURVE",
"507 1 CURVE SMOOTH"
);
},
{
closed = 1;
nodes = (
"291 120 OFFCURVE",
"225 198 OFFCURVE",
"225 340 CURVE SMOOTH",
"225 507 OFFCURVE",
"300 608 OFFCURVE",
"424 608 CURVE SMOOTH",
"539 608 OFFCURVE",
"607 530 OFFCURVE",
"607 388 CURVE SMOOTH",
"607 219 OFFCURVE",
"531 120 OFFCURVE",
"410 120 CURVE SMOOTH"
);
}
);
width = 815;
}
);
leftKerningGroup = O;
leftMetricsKey = O;
rightKerningGroup = O;
rightMetricsKey = O;
unicode = 01EA;
},
{
glyphname = Oslash;
lastChange = "2016-09-21 08:56:34 +0000";
layers = (
{
anchors = (
{
name = bottom;
position = "{370, 0}";
},
{
name = top;
position = "{427, 728}";
}
);
background = {
anchors = (
{
name = bottom;
position = "{370, 0}";
},
{
name = top;
position = "{427, 728}";
}
);
paths = (
{
closed = 1;
nodes = (
"589 -8 OFFCURVE",
"713 134 OFFCURVE",
"713 365 CURVE SMOOTH",
"713 595 OFFCURVE",
"590 737 OFFCURVE",
"389 737 CURVE SMOOTH",
"189 737 OFFCURVE",
"67 595 OFFCURVE",
"67 364 CURVE SMOOTH",
"67 134 OFFCURVE",
"191 -8 OFFCURVE",
"389 -8 CURVE SMOOTH"
);
},
{
closed = 1;
nodes = (
"639 745 LINE",
"598 769 LINE",
"140 -17 LINE",
"182 -40 LINE"
);
},
{
closed = 1;
nodes = (
"223 43 OFFCURVE",
"126 161 OFFCURVE",
"126 365 CURVE SMOOTH",
"126 568 OFFCURVE",
"223 685 OFFCURVE",
"389 685 CURVE SMOOTH",
"558 685 OFFCURVE",
"654 569 OFFCURVE",
"654 365 CURVE SMOOTH",
"654 160 OFFCURVE",
"557 43 OFFCURVE",
"389 43 CURVE SMOOTH"
);
}
);
};
layerId = "9E718F8A-2CEA-4931-B05D-987794BD97DA";
paths = (
{
closed = 1;
nodes = (
"592 -8 OFFCURVE",
"722 150 OFFCURVE",
"722 396 CURVE SMOOTH",
"722 608 OFFCURVE",
"603 737 OFFCURVE",
"407 737 CURVE SMOOTH",
"206 737 OFFCURVE",
"75 578 OFFCURVE",
"75 332 CURVE SMOOTH",
"75 120 OFFCURVE",
"194 -8 OFFCURVE",
"389 -8 CURVE SMOOTH"
);
},
{
closed = 1;
nodes = (
"226 44 OFFCURVE",
"134 147 OFFCURVE",
"134 331 CURVE SMOOTH",
"134 552 OFFCURVE",
"238 684 OFFCURVE",
"407 684 CURVE SMOOTH",
"571 684 OFFCURVE",
"663 582 OFFCURVE",
"663 397 CURVE SMOOTH",
"663 177 OFFCURVE",
"560 44 OFFCURVE",
"390 44 CURVE SMOOTH"
);
},
{
closed = 1;
nodes = (
"680 742 LINE",
"639 769 LINE",
"119 -13 LINE",
"159 -40 LINE"
);
}
);
width = 780;
},
{
anchors = (
{
name = bottom;
position = "{388, 0}";
},
{
name = top;
position = "{444, 728}";
}
);
background = {
paths = (
{
closed = 1;
nodes = (
"628 -9 OFFCURVE",
"764 136 OFFCURVE",
"764 365 CURVE SMOOTH",
"764 593 OFFCURVE",
"628 738 OFFCURVE",
"408 738 CURVE SMOOTH",
"188 738 OFFCURVE",
"51 593 OFFCURVE",
"51 365 CURVE SMOOTH",
"51 136 OFFCURVE",
"188 -9 OFFCURVE",
"408 -9 CURVE SMOOTH"
);
},
{
closed = 1;
nodes = (
"695 737 LINE",
"590 800 LINE",
"120 -8 LINE",
"225 -71 LINE"
);
},
{
closed = 1;
nodes = (
"290 120 OFFCURVE",
"217 202 OFFCURVE",
"217 365 CURVE SMOOTH",
"217 527 OFFCURVE",
"290 608 OFFCURVE",
"408 608 CURVE SMOOTH",
"526 608 OFFCURVE",
"599 526 OFFCURVE",
"599 365 CURVE SMOOTH",
"599 204 OFFCURVE",
"526 120 OFFCURVE",
"408 120 CURVE SMOOTH"
);
}
);
};
layerId = "E1B555A7-F4E1-459C-9C1A-AE952106EEF9";
paths = (
{
closed = 1;
nodes = (
"630 -10 OFFCURVE",
"774 148 OFFCURVE",
"774 388 CURVE SMOOTH",
"774 605 OFFCURVE",
"637 739 OFFCURVE",
"421 739 CURVE SMOOTH",
"202 739 OFFCURVE",
"59 581 OFFCURVE",
"59 340 CURVE SMOOTH",
"59 123 OFFCURVE",
"195 -10 OFFCURVE",
"411 -10 CURVE SMOOTH"
);
},
{
closed = 1;
nodes = (
"291 120 OFFCURVE",
"225 198 OFFCURVE",
"225 340 CURVE SMOOTH",
"225 507 OFFCURVE",
"300 608 OFFCURVE",
"424 608 CURVE SMOOTH",
"539 608 OFFCURVE",
"607 530 OFFCURVE",
"607 388 CURVE SMOOTH",
"607 219 OFFCURVE",
"531 120 OFFCURVE",
"410 120 CURVE SMOOTH"
);
},
{
closed = 1;
nodes = (
"733 737 LINE",
"633 800 LINE",
"99 -8 LINE",
"200 -71 LINE"
);
}
);
width = 815;
}
);
leftKerningGroup = O;
leftMetricsKey = O;
rightKerningGroup = O;
rightMetricsKey = O;
unicode = 00D8;
userData = {
com.typemytype.robofont.layerData = {
b = {
anchors = (
);
components = (
);
contours = (
);
lib = {
};
name = Oslash;
unicodes = (
);
width = 1597;
};
};
};
},
{
color = 4;
glyphname = OE;
lastChange = "2016-09-21 08:58:59 +0000";
layers = (
{
anchors = (
{
name = bottom;
position = "{530, 0}";
},
{
name = top;
position = "{586, 728}";
}
);
background = {
anchors = (
{
name = bottom;
position = "{1356, 0}";
},
{
name = top;
position = "{1469, 728}";
}
);
paths = (
{
closed = 1;
nodes = (
"1005 0 LINE",
"1009 50 LINE",
"620 50 LINE",
"643 345 LINE",
"1011 345 LINE",
"1015 395 LINE",
"647 395 LINE",
"669 679 LINE",
"1059 679 LINE",
"1062 728 LINE",
"618 728 LINE",
"613 660 LINE",
"611 644 LINE",
"567 88 LINE",
"566 68 LINE",
"561 0 LINE"
);
},
{
closed = 1;
nodes = (
"630 666 LINE",
"578 713 OFFCURVE",
"510 737 OFFCURVE",
"428 737 CURVE SMOOTH",
"227 737 OFFCURVE",
"94 595 OFFCURVE",
"76 364 CURVE SMOOTH",
"59 134 OFFCURVE",
"170 -8 OFFCURVE",
"369 -8 CURVE SMOOTH",
"452 -8 OFFCURVE",
"524 15 OFFCURVE",
"583 63 CURVE",
"588 128 LINE",
"537 72 OFFCURVE",
"463 43 OFFCURVE",
"373 43 CURVE SMOOTH",
"207 43 OFFCURVE",
"119 161 OFFCURVE",
"135 365 CURVE SMOOTH",
"152 567 OFFCURVE",
"256 685 OFFCURVE",
"424 685 CURVE SMOOTH",
"513 685 OFFCURVE",
"583 656 OFFCURVE",
"625 601 CURVE"
);
}
);
};
layerId = "9E718F8A-2CEA-4931-B05D-987794BD97DA";
paths = (
{
closed = 1;
nodes = (
"465 -8 OFFCURVE",
"530 14 OFFCURVE",
"583 57 CURVE",
"588 128 LINE",
"537 72 OFFCURVE",
"463 44 OFFCURVE",
"390 44 CURVE SMOOTH",
"226 44 OFFCURVE",
"134 147 OFFCURVE",
"134 331 CURVE SMOOTH",
"134 552 OFFCURVE",
"238 684 OFFCURVE",
"417 684 CURVE SMOOTH",
"503 684 OFFCURVE",
"583 656 OFFCURVE",
"625 601 CURVE",
"629 669 LINE",
"563 720 OFFCURVE",
"489 737 OFFCURVE",
"417 737 CURVE SMOOTH",
"206 737 OFFCURVE",
"75 578 OFFCURVE",
"75 332 CURVE SMOOTH",
"75 120 OFFCURVE",
"194 -8 OFFCURVE",
"389 -8 CURVE SMOOTH"
);
},
{
closed = 1;
nodes = (
"1005 0 LINE",
"1009 50 LINE",
"620 50 LINE",
"669 679 LINE",
"1059 679 LINE",
"1062 728 LINE",
"618 728 LINE",
"613 660 LINE",
"611 644 LINE",
"567 88 LINE",
"566 68 LINE",
"561 0 LINE"
);
},
{
closed = 1;
nodes = (
"1011 345 LINE",
"1015 395 LINE",
"634 395 LINE",
"630 345 LINE"
);
}
);
width = 1080;
},
{
anchors = (
{
name = bottom;
position = "{527, 0}";
},
{
name = top;
position = "{584, 728}";
}
);
background = {
paths = (
{
closed = 1;
nodes = (
"1022 0 LINE",
"1032 129 LINE",
"689 129 LINE",
"702 306 LINE",
"1025 306 LINE",
"1035 435 LINE",
"713 435 LINE",
"726 599 LINE",
"1069 599 LINE",
"1078 728 LINE",
"584 728 LINE",
"577 647 LINE",
"566 627 LINE",
"526 114 LINE",
"533 79 LINE",
"527 0 LINE"
);
},
{
closed = 1;
nodes = (
"604 669 LINE",
"571 714 OFFCURVE",
"509 738 OFFCURVE",
"426 738 CURVE SMOOTH",
"227 738 OFFCURVE",
"76 584 OFFCURVE",
"60 365 CURVE SMOOTH",
"43 145 OFFCURVE",
"168 -9 OFFCURVE",
"367 -9 CURVE SMOOTH",
"451 -9 OFFCURVE",
"517 15 OFFCURVE",
"557 62 CURVE",
"566 189 LINE",
"532 144 OFFCURVE",
"473 120 OFFCURVE",
"398 120 CURVE SMOOTH",
"276 120 OFFCURVE",
"214 208 OFFCURVE",
"226 365 CURVE SMOOTH",
"239 521 OFFCURVE",
"313 608 OFFCURVE",
"436 608 CURVE SMOOTH",
"511 608 OFFCURVE",
"567 585 OFFCURVE",
"594 539 CURVE"
);
}
);
};
layerId = "E1B555A7-F4E1-459C-9C1A-AE952106EEF9";
paths = (
{
closed = 1;
nodes = (
"453 -10 OFFCURVE",
"517 15 OFFCURVE",
"557 62 CURVE",
"566 189 LINE",
"532 144 OFFCURVE",
"473 120 OFFCURVE",
"410 120 CURVE SMOOTH",
"291 120 OFFCURVE",
"225 198 OFFCURVE",
"225 340 CURVE SMOOTH",
"225 507 OFFCURVE",
"300 608 OFFCURVE",
"444 608 CURVE SMOOTH",
"511 608 OFFCURVE",
"567 585 OFFCURVE",
"594 539 CURVE",
"604 675 LINE",
"571 718 OFFCURVE",
"491 739 OFFCURVE",
"421 739 CURVE SMOOTH",
"202 739 OFFCURVE",
"59 581 OFFCURVE",
"59 340 CURVE SMOOTH",
"59 123 OFFCURVE",
"195 -10 OFFCURVE",
"380 -10 CURVE SMOOTH"
);
},
{
closed = 1;
nodes = (
"1022 0 LINE",
"1032 129 LINE",
"689 129 LINE",
"726 599 LINE",
"1069 599 LINE",
"1078 728 LINE",
"584 728 LINE",
"577 647 LINE",
"566 627 LINE",
"526 114 LINE",
"533 79 LINE",
"527 0 LINE"
);
},
{
closed = 1;
nodes = (
"1025 306 LINE",
"1035 435 LINE",
"696 435 LINE",
"686 306 LINE"
);
}
);
width = 1079;
}
);
leftKerningGroup = O;
leftMetricsKey = O;
rightKerningGroup = E;
rightMetricsKey = E;
unicode = 0152;
},
{
color = 4;
glyphname = P;
lastChange = "2016-09-21 08:56:34 +0000";
layers = (
{
anchors = (
{
name = bottom;
position = "{309, 0}";
},
{
name = top;
position = "{366, 728}";
}
);
background = {
anchors = (
{
name = bottom;
position = "{309, 0}";
},
{
name = top;
position = "{479, 728}";
}
);
paths = (
{
closed = 1;
nodes = (
"132 0 LINE",
"158 330 LINE",
"378 330 LINE SMOOTH",
"523 330 OFFCURVE",
"617 406 OFFCURVE",
"626 530 CURVE SMOOTH",
"635 654 OFFCURVE",
"555 728 OFFCURVE",
"409 728 CURVE SMOOTH",
"133 728 LINE",
"76 0 LINE"
);
},
{
closed = 1;
nodes = (
"186 679 LINE",
"403 679 LINE SMOOTH",
"521 679 OFFCURVE",
"577 625 OFFCURVE",
"569 530 CURVE SMOOTH",
"561 435 OFFCURVE",
"497 379 OFFCURVE",
"379 379 CURVE SMOOTH",
"162 379 LINE"
);
}
);
};
layerId = "9E718F8A-2CEA-4931-B05D-987794BD97DA";
paths = (
{
closed = 1;
nodes = (
"185 679 LINE",
"398 679 LINE SMOOTH",
"517 679 OFFCURVE",
"570 623 OFFCURVE",
"570 541 CURVE SMOOTH",
"570 432 OFFCURVE",
"498 379 OFFCURVE",
"372 379 CURVE SMOOTH",
"149 379 LINE",
"145 330 LINE",
"372 330 LINE SMOOTH",
"527 330 OFFCURVE",
"627 402 OFFCURVE",
"627 542 CURVE SMOOTH",
"627 651 OFFCURVE",
"550 728 OFFCURVE",
"399 728 CURVE SMOOTH",
"133 728 LINE",
"76 0 LINE",
"132 0 LINE"
);
}
);
width = 657;
},
{
anchors = (
{
name = bottom;
position = "{330, 0}";
},
{
name = top;
position = "{385, 728}";
}
);
background = {
paths = (
{
closed = 1;
nodes = (
"218 0 LINE",
"241 292 LINE",
"408 292 LINE SMOOTH",
"570 292 OFFCURVE",
"671 378 OFFCURVE",
"682 510 CURVE SMOOTH",
"692 644 OFFCURVE",
"605 728 OFFCURVE",
"442 728 CURVE SMOOTH",
"108 728 LINE",
"52 0 LINE"
);
},
{
closed = 1;
nodes = (
"265 601 LINE",
"411 601 LINE SMOOTH",
"495 601 OFFCURVE",
"530 568 OFFCURVE",
"526 509 CURVE SMOOTH",
"521 451 OFFCURVE",
"479 418 OFFCURVE",
"397 418 CURVE SMOOTH",
"251 418 LINE"
);
}
);
};
layerId = "E1B555A7-F4E1-459C-9C1A-AE952106EEF9";
paths = (
{
closed = 1;
nodes = (
"265 601 LINE",
"414 601 LINE SMOOTH",
"490 601 OFFCURVE",
"525 570 OFFCURVE",
"525 515 CURVE SMOOTH",
"525 455 OFFCURVE",
"482 418 OFFCURVE",
"399 418 CURVE SMOOTH",
"230 418 LINE",
"223 292 LINE",
"414 292 LINE SMOOTH",
"586 292 OFFCURVE",
"681 379 OFFCURVE",
"681 525 CURVE SMOOTH",
"681 645 OFFCURVE",
"592 728 OFFCURVE",
"436 728 CURVE SMOOTH",
"109 728 LINE",
"52 0 LINE",
"218 0 LINE"
);
}
);
width = 692;
}
);
leftKerningGroup = H;
leftMetricsKey = H;
rightKerningGroup = P;
unicode = 0050;
userData = {
anchors = (
);
b = {
};
com.typemytype.robofont.layerData = {
b = {
anchors = (
);
components = (
);
contours = (
{
points = (
{
segmentType = curve;
smooth = 1;
x = 266;
y = 0;
},
{
segmentType = line;
smooth = 1;
x = 1035;
y = 0;
},
{
smooth = 0;
x = 1084;
y = 0;
},
{
smooth = 0;
x = 1108;
y = 34;
},
{
segmentType = curve;
smooth = 1;
x = 1108;
y = 71;
},
{
smooth = 0;
x = 1108;
y = 107;
},
{
smooth = 0;
x = 1084;
y = 141;
},
{
segmentType = curve;
smooth = 1;
x = 1035;
y = 141;
},
{
segmentType = line;
smooth = 0;
x = 356;
y = 141;
},
{
segmentType = line;
smooth = 0;
x = 356;
y = 665;
},
{
segmentType = line;
smooth = 1;
x = 975;
y = 665;
},
{
smooth = 0;
x = 1024;
y = 665;
},
{
smooth = 0;
x = 1049;
y = 698;
},
{
segmentType = curve;
smooth = 1;
x = 1049;
y = 734;
},
{
smooth = 0;
x = 1049;
y = 770;
},
{
smooth = 0;
x = 1026;
y = 803;
},
{
segmentType = curve;
smooth = 1;
x = 975;
y = 803;
},
{
segmentType = line;
smooth = 0;
x = 356;
y = 803;
},
{
segmentType = line;
smooth = 0;
x = 356;
y = 1285;
},
{
segmentType = line;
smooth = 1;
x = 1007;
y = 1285;
},
{
smooth = 0;
x = 1056;
y = 1285;
},
{
smooth = 0;
x = 1080;
y = 1319;
},
{
segmentType = curve;
smooth = 1;
x = 1080;
y = 1356;
},
{
smooth = 0;
x = 1080;
y = 1392;
},
{
smooth = 0;
x = 1056;
y = 1426;
},
{
segmentType = curve;
smooth = 1;
x = 1007;
y = 1426;
},
{
segmentType = line;
smooth = 1;
x = 261;
y = 1426;
},
{
smooth = 0;
x = 213;
y = 1426;
},
{
smooth = 0;
x = 178;
y = 1383;
},
{
segmentType = curve;
smooth = 1;
x = 178;
y = 1340;
},
{
segmentType = line;
smooth = 1;
x = 178;
y = 86;
},
{
smooth = 0;
x = 178;
y = 41;
},
{
smooth = 0;
x = 222;
y = 0;
}
);
}
);
lib = {
};
name = P;
unicodes = (
);
width = 1201;
};
};
components = (
);
contours = (
);
lib = {
};
name = P;
unicodes = (
);
width = 1319;
};
},
{
glyphname = Thorn;
lastChange = "2016-09-21 08:56:34 +0000";
layers = (
{
anchors = (
{
name = bottom;
position = "{309, 0}";
},
{
name = top;
position = "{366, 728}";
}
);
background = {
paths = (
{
closed = 1;
nodes = (
"377 178 LINE SMOOTH",
"521 178 OFFCURVE",
"604 249 OFFCURVE",
"604 372 CURVE SMOOTH",
"604 494 OFFCURVE",
"523 563 OFFCURVE",
"377 563 CURVE SMOOTH",
"140 563 LINE",
"140 513 LINE",
"374 513 LINE SMOOTH",
"492 513 OFFCURVE",
"547 468 OFFCURVE",
"547 372 CURVE SMOOTH",
"547 275 OFFCURVE",
"491 227 OFFCURVE",
"374 227 CURVE SMOOTH",
"140 227 LINE",
"140 178 LINE"
);
},
{
closed = 1;
nodes = (
"152 0 LINE",
"152 728 LINE",
"96 728 LINE",
"96 0 LINE"
);
}
);
};
layerId = "9E718F8A-2CEA-4931-B05D-987794BD97DA";
paths = (
{
closed = 1;
nodes = (
"374 178 LINE SMOOTH",
"533 178 OFFCURVE",
"615 256 OFFCURVE",
"615 381 CURVE SMOOTH",
"615 502 OFFCURVE",
"535 563 OFFCURVE",
"397 563 CURVE SMOOTH",
"165 563 LINE",
"161 513 LINE",
"395 513 LINE SMOOTH",
"500 513 OFFCURVE",
"558 474 OFFCURVE",
"558 380 CURVE SMOOTH",
"558 280 OFFCURVE",
"500 227 OFFCURVE",
"372 227 CURVE SMOOTH",
"138 227 LINE",
"135 178 LINE"
);
},
{
closed = 1;
nodes = (
"132 0 LINE",
"189 728 LINE",
"133 728 LINE",
"76 0 LINE"
);
}
);
width = 657;
},
{
anchors = (
{
name = bottom;
position = "{330, 0}";
},
{
name = top;
position = "{385, 728}";
}
);
background = {
paths = (
{
closed = 1;
nodes = (
"410 157 LINE SMOOTH",
"566 157 OFFCURVE",
"661 238 OFFCURVE",
"661 370 CURVE SMOOTH",
"661 503 OFFCURVE",
"568 583 OFFCURVE",
"410 583 CURVE SMOOTH",
"214 583 LINE",
"214 456 LINE",
"382 456 LINE SMOOTH",
"467 456 OFFCURVE",
"505 430 OFFCURVE",
"505 370 CURVE SMOOTH",
"505 310 OFFCURVE",
"467 284 OFFCURVE",
"382 284 CURVE SMOOTH",
"214 284 LINE",
"214 157 LINE"
);
},
{
closed = 1;
nodes = (
"234 0 LINE",
"234 728 LINE",
"71 728 LINE",
"71 0 LINE"
);
}
);
};
layerId = "E1B555A7-F4E1-459C-9C1A-AE952106EEF9";
paths = (
{
closed = 1;
nodes = (
"422 157 LINE SMOOTH",
"582 157 OFFCURVE",
"670 238 OFFCURVE",
"670 383 CURVE SMOOTH",
"670 508 OFFCURVE",
"585 583 OFFCURVE",
"442 583 CURVE SMOOTH",
"200 583 LINE",
"200 456 LINE",
"422 456 LINE SMOOTH",
"486 456 OFFCURVE",
"515 430 OFFCURVE",
"515 374 CURVE SMOOTH",
"515 314 OFFCURVE",
"479 283 OFFCURVE",
"409 283 CURVE SMOOTH",
"183 283 LINE",
"183 157 LINE"
);
},
{
closed = 1;
nodes = (
"215 0 LINE",
"273 728 LINE",
"109 728 LINE",
"52 0 LINE"
);
}
);
width = 693;
}
);
leftKerningGroup = H;
leftMetricsKey = H;
rightKerningGroup = THORN;
unicode = 00DE;
},
{
color = 4;
glyphname = Q;
lastChange = "2016-09-21 08:56:34 +0000";
layers = (
{
anchors = (
{
name = bottom;
position = "{370, 0}";
},
{
name = center;
position = "{400, 365}";
},
{
name = ogonek;
position = "{479, 10}";
},
{
name = top;
position = "{427, 728}";
},
{
name = topleft;
position = "{64, 728}";
},
{
name = topright;
position = "{458, 728}";
}
);
background = {
anchors = (
{
name = bottom;
position = "{1177, 0}";
},
{
name = top;
position = "{1290, 728}";
}
);
paths = (
{
closed = 1;
nodes = (
"593 -153 LINE",
"544 -108 OFFCURVE",
"502 -56 OFFCURVE",
"470 12 CURVE",
"410 -4 LINE",
"445 -76 OFFCURVE",
"500 -154 OFFCURVE",
"551 -195 CURVE"
);
},
{
closed = 1;
nodes = (
"568 -8 OFFCURVE",
"703 134 OFFCURVE",
"722 365 CURVE SMOOTH",
"740 595 OFFCURVE",
"628 737 OFFCURVE",
"428 737 CURVE SMOOTH",
"227 737 OFFCURVE",
"94 595 OFFCURVE",
"76 364 CURVE SMOOTH",
"58 134 OFFCURVE",
"170 -8 OFFCURVE",
"369 -8 CURVE SMOOTH"
);
},
{
closed = 1;
nodes = (
"207 43 OFFCURVE",
"119 161 OFFCURVE",
"135 365 CURVE SMOOTH",
"151 568 OFFCURVE",
"257 685 OFFCURVE",
"424 685 CURVE SMOOTH",
"592 685 OFFCURVE",
"679 569 OFFCURVE",
"663 365 CURVE SMOOTH",
"647 160 OFFCURVE",
"540 43 OFFCURVE",
"373 43 CURVE SMOOTH"
);
}
);
};
layerId = "9E718F8A-2CEA-4931-B05D-987794BD97DA";
paths = (
{
closed = 1;
nodes = (
"593 -153 LINE",
"544 -108 OFFCURVE",
"502 -56 OFFCURVE",
"470 12 CURVE",
"410 -4 LINE",
"445 -76 OFFCURVE",
"500 -154 OFFCURVE",
"551 -195 CURVE"
);
},
{
closed = 1;
nodes = (
"592 -8 OFFCURVE",
"722 150 OFFCURVE",
"722 396 CURVE SMOOTH",
"722 608 OFFCURVE",
"603 737 OFFCURVE",
"407 737 CURVE SMOOTH",
"206 737 OFFCURVE",
"75 578 OFFCURVE",
"75 332 CURVE SMOOTH",
"75 120 OFFCURVE",
"194 -8 OFFCURVE",
"389 -8 CURVE SMOOTH"
);
},
{
closed = 1;
nodes = (
"226 44 OFFCURVE",
"134 147 OFFCURVE",
"134 331 CURVE SMOOTH",
"134 552 OFFCURVE",
"238 684 OFFCURVE",
"407 684 CURVE SMOOTH",
"571 684 OFFCURVE",
"663 582 OFFCURVE",
"663 397 CURVE SMOOTH",
"663 177 OFFCURVE",
"560 44 OFFCURVE",
"390 44 CURVE SMOOTH"
);
}
);
width = 780;
},
{
anchors = (
{
name = bottom;
position = "{388, 0}";
},
{
name = center;
position = "{417, 365}";
},
{
name = ogonek;
position = "{511, 10}";
},
{
name = top;
position = "{444, 728}";
},
{
name = topleft;
position = "{60, 728}";
},
{
name = topright;
position = "{476, 728}";
}
);
background = {
anchors = (
{
name = bottom;
position = "{388, 0}";
},
{
name = top;
position = "{501, 728}";
}
);
paths = (
{
closed = 1;
nodes = (
"690 -112 LINE",
"640 -67 OFFCURVE",
"586 -14 OFFCURVE",
"558 54 CURVE",
"410 -4 LINE",
"445 -76 OFFCURVE",
"501 -146 OFFCURVE",
"571 -195 CURVE"
);
},
{
closed = 1;
nodes = (
"607 -9 OFFCURVE",
"755 136 OFFCURVE",
"774 365 CURVE SMOOTH",
"791 593 OFFCURVE",
"666 738 OFFCURVE",
"446 738 CURVE SMOOTH",
"226 738 OFFCURVE",
"77 593 OFFCURVE",
"60 365 CURVE SMOOTH",
"41 136 OFFCURVE",
"167 -9 OFFCURVE",
"387 -9 CURVE SMOOTH"
);
},
{
closed = 1;
nodes = (
"280 120 OFFCURVE",
"213 202 OFFCURVE",
"226 365 CURVE SMOOTH",
"239 527 OFFCURVE",
"318 608 OFFCURVE",
"436 608 CURVE SMOOTH",
"554 608 OFFCURVE",
"621 526 OFFCURVE",
"608 365 CURVE SMOOTH",
"596 204 OFFCURVE",
"515 120 OFFCURVE",
"398 120 CURVE SMOOTH"
);
}
);
};
layerId = "E1B555A7-F4E1-459C-9C1A-AE952106EEF9";
paths = (
{
closed = 1;
nodes = (
"690 -112 LINE",
"640 -67 OFFCURVE",
"586 -14 OFFCURVE",
"558 54 CURVE",
"410 -4 LINE",
"445 -76 OFFCURVE",
"501 -146 OFFCURVE",
"571 -195 CURVE"
);
},
{
closed = 1;
nodes = (
"630 -10 OFFCURVE",
"774 148 OFFCURVE",
"774 388 CURVE SMOOTH",
"774 605 OFFCURVE",
"637 739 OFFCURVE",
"421 739 CURVE SMOOTH",
"202 739 OFFCURVE",
"59 581 OFFCURVE",
"59 340 CURVE SMOOTH",
"59 123 OFFCURVE",
"195 -10 OFFCURVE",
"411 -10 CURVE SMOOTH"
);
},
{
closed = 1;
nodes = (
"291 120 OFFCURVE",
"225 198 OFFCURVE",
"225 340 CURVE SMOOTH",
"225 507 OFFCURVE",
"300 608 OFFCURVE",
"424 608 CURVE SMOOTH",
"539 608 OFFCURVE",
"607 530 OFFCURVE",
"607 388 CURVE SMOOTH",
"607 219 OFFCURVE",
"531 120 OFFCURVE",
"410 120 CURVE SMOOTH"
);
}
);
width = 815;
}
);
leftKerningGroup = O;
leftMetricsKey = O;
widthMetricsKey = O;
rightKerningGroup = O;
unicode = 0051;
userData = {
anchors = (
);
b = {
};
com.typemytype.robofont.layerData = {
b = {
anchors = (
);
components = (
);
contours = (
);
lib = {
};
name = Q;
unicodes = (
);
width = 1597;
};
};
components = (
);
contours = (
);
lib = {
};
name = Q;
unicodes = (
);
width = 1604;
};
},
{
color = 4;
glyphname = R;
lastChange = "2016-09-21 08:58:57 +0000";
layers = (
{
anchors = (
{
name = bottom;
position = "{327, 0}";
},
{
name = top;
position = "{384, 728}";
}
);
background = {
paths = (
{
closed = 1;
nodes = (
"132 0 LINE",
"158 327 LINE",
"369 327 LINE SMOOTH",
"445 327 OFFCURVE",
"483 313 OFFCURVE",
"503 243 CURVE SMOOTH",
"574 0 LINE",
"632 0 LINE",
"559 255 LINE SMOOTH",
"540 320 OFFCURVE",
"505 347 OFFCURVE",
"451 347 CURVE",
"378 334 LINE",
"529 334 OFFCURVE",
"623 406 OFFCURVE",
"632 530 CURVE SMOOTH",
"643 659 OFFCURVE",
"561 728 OFFCURVE",
"410 728 CURVE SMOOTH",
"133 728 LINE",
"76 0 LINE"
);
},
{
closed = 1;
nodes = (
"186 679 LINE",
"405 679 LINE SMOOTH",
"529 679 OFFCURVE",
"584 629 OFFCURVE",
"575 531 CURVE SMOOTH",
"568 430 OFFCURVE",
"503 377 OFFCURVE",
"381 377 CURVE SMOOTH",
"162 377 LINE"
);
}
);
};
layerId = "9E718F8A-2CEA-4931-B05D-987794BD97DA";
paths = (
{
closed = 1;
nodes = (
"186 679 LINE",
"415 679 LINE SMOOTH",
"528 679 OFFCURVE",
"587 634 OFFCURVE",
"587 541 CURVE SMOOTH",
"587 431 OFFCURVE",
"523 377 OFFCURVE",
"390 377 CURVE SMOOTH",
"149 377 LINE",
"145 327 LINE",
"356 327 LINE SMOOTH",
"433 327 OFFCURVE",
"481 313 OFFCURVE",
"502 243 CURVE SMOOTH",
"574 0 LINE",
"632 0 LINE",
"564 237 LINE SMOOTH",
"539 321 OFFCURVE",
"497 347 OFFCURVE",
"434 347 CURVE",
"396 334 LINE",
"559 334 OFFCURVE",
"644 414 OFFCURVE",
"644 544 CURVE SMOOTH",
"644 664 OFFCURVE",
"561 728 OFFCURVE",
"415 728 CURVE SMOOTH",
"133 728 LINE",
"76 0 LINE",
"132 0 LINE"
);
}
);
width = 702;
},
{
anchors = (
{
name = bottom;
position = "{347, 0}";
},
{
name = top;
position = "{403, 728}";
}
);
background = {
paths = (
{
closed = 1;
nodes = (
"217 0 LINE",
"240 291 LINE",
"336 291 LINE SMOOTH",
"376 291 OFFCURVE",
"410 280 OFFCURVE",
"420 243 CURVE SMOOTH",
"495 0 LINE",
"670 0 LINE",
"601 224 LINE SMOOTH",
"583 285 OFFCURVE",
"542 315 OFFCURVE",
"492 315 CURVE",
"406 298 LINE",
"568 298 OFFCURVE",
"669 383 OFFCURVE",
"680 513 CURVE SMOOTH",
"691 651 OFFCURVE",
"608 728 OFFCURVE",
"436 728 CURVE SMOOTH",
"109 728 LINE",
"53 0 LINE"
);
},
{
closed = 1;
nodes = (
"262 601 LINE",
"402 601 LINE SMOOTH",
"493 601 OFFCURVE",
"529 572 OFFCURVE",
"524 509 CURVE SMOOTH",
"519 447 OFFCURVE",
"478 417 OFFCURVE",
"387 417 CURVE SMOOTH",
"248 417 LINE"
);
}
);
};
layerId = "E1B555A7-F4E1-459C-9C1A-AE952106EEF9";
paths = (
{
closed = 1;
nodes = (
"262 601 LINE",
"430 601 LINE SMOOTH",
"502 601 OFFCURVE",
"535 571 OFFCURVE",
"535 514 CURVE SMOOTH",
"535 452 OFFCURVE",
"495 417 OFFCURVE",
"415 417 CURVE SMOOTH",
"230 417 LINE",
"222 291 LINE",
"336 291 LINE SMOOTH",
"377 291 OFFCURVE",
"409 280 OFFCURVE",
"420 243 CURVE SMOOTH",
"495 0 LINE",
"670 0 LINE",
"600 215 LINE SMOOTH",
"577 285 OFFCURVE",
"543 315 OFFCURVE",
"472 315 CURVE",
"417 298 LINE",
"607 298 OFFCURVE",
"691 383 OFFCURVE",
"691 524 CURVE SMOOTH",
"691 647 OFFCURVE",
"604 728 OFFCURVE",
"451 728 CURVE SMOOTH",
"109 728 LINE",
"53 0 LINE",
"217 0 LINE"
);
}
);
width = 726;
}
);
leftKerningGroup = H;
leftMetricsKey = H;
rightKerningGroup = R;
unicode = 0052;
userData = {
anchors = (
);
b = {
};
com.typemytype.robofont.guides = (
);
com.typemytype.robofont.layerData = {
b = {
anchors = (
);
components = (
);
contours = (
{
points = (
{
segmentType = curve;
smooth = 1;
x = 267;
y = 0;
},
{
smooth = 0;
x = 311;
y = 0;
},
{
smooth = 0;
x = 356;
y = 27;
},
{
segmentType = curve;
smooth = 1;
x = 356;
y = 84;
},
{
segmentType = line;
smooth = 0;
x = 356;
y = 628;
},
{
segmentType = line;
smooth = 1;
x = 669;
y = 628;
},
{
smooth = 0;
x = 962;
y = 628;
},
{
smooth = 0;
x = 1182;
y = 722;
},
{
segmentType = curve;
smooth = 1;
x = 1182;
y = 1026;
},
{
smooth = 0;
x = 1182;
y = 1324;
},
{
smooth = 0;
x = 993;
y = 1426;
},
{
segmentType = curve;
smooth = 1;
x = 684;
y = 1426;
},
{
segmentType = line;
smooth = 1;
x = 268;
y = 1426;
},
{
smooth = 0;
x = 217;
y = 1426;
},
{
smooth = 0;
x = 178;
y = 1387;
},
{
segmentType = curve;
smooth = 1;
x = 178;
y = 1339;
},
{
segmentType = line;
smooth = 1;
x = 178;
y = 84;
},
{
smooth = 0;
x = 178;
y = 28;
},
{
smooth = 0;
x = 222;
y = 0;
}
);
},
{
points = (
{
segmentType = line;
smooth = 0;
x = 356;
y = 764;
},
{
segmentType = line;
smooth = 0;
x = 356;
y = 1285;
},
{
segmentType = line;
smooth = 1;
x = 684;
y = 1285;
},
{
smooth = 0;
x = 914;
y = 1285;
},
{
smooth = 0;
x = 1008;
y = 1210;
},
{
segmentType = curve;
smooth = 1;
x = 1008;
y = 1026;
},
{
smooth = 0;
x = 1008;
y = 838;
},
{
smooth = 0;
x = 901;
y = 764;
},
{
segmentType = curve;
smooth = 1;
x = 670;
y = 764;
}
);
}
);
lib = {
};
name = R;
unicodes = (
);
width = 1363;
};
};
components = (
);
contours = (
);
lib = {
};
name = R;
unicodes = (
);
width = 1408;
};
},
{
glyphname = S;
lastChange = "2016-09-21 08:56:34 +0000";
layers = (
{
anchors = (
{
name = bottom;
position = "{298, 0}";
},
{
name = top;
position = "{349, 728}";
}
);
background = {
anchors = (
{
name = bottom;
position = "{298, 0}";
},
{
name = top;
position = "{406, 728}";
}
);
paths = (
{
closed = 1;
nodes = (
"474 -8 OFFCURVE",
"574 72 OFFCURVE",
"574 191 CURVE SMOOTH",
"574 336 OFFCURVE",
"426 356 OFFCURVE",
"299 387 CURVE SMOOTH",
"204 410 OFFCURVE",
"121 440 OFFCURVE",
"121 532 CURVE SMOOTH",
"121 628 OFFCURVE",
"194 685 OFFCURVE",
"320 685 CURVE SMOOTH",
"406 685 OFFCURVE",
"473 658 OFFCURVE",
"542 595 CURVE",
"567 640 LINE",
"505 703 OFFCURVE",
"419 737 OFFCURVE",
"320 737 CURVE SMOOTH",
"163 737 OFFCURVE",
"64 655 OFFCURVE",
"64 532 CURVE SMOOTH",
"64 386 OFFCURVE",
"201 356 OFFCURVE",
"324 327 CURVE SMOOTH",
"426 304 OFFCURVE",
"518 280 OFFCURVE",
"518 192 CURVE SMOOTH",
"518 97 OFFCURVE",
"445 43 OFFCURVE",
"319 43 CURVE SMOOTH",
"216 43 OFFCURVE",
"150 67 OFFCURVE",
"76 133 CURVE",
"52 88 LINE",
"121 22 OFFCURVE",
"206 -8 OFFCURVE",
"319 -8 CURVE SMOOTH"
);
}
);
};
layerId = "9E718F8A-2CEA-4931-B05D-987794BD97DA";
paths = (
{
closed = 1;
nodes = (
"469 -8 OFFCURVE",
"570 68 OFFCURVE",
"570 189 CURVE SMOOTH",
"570 434 OFFCURVE",
"145 330 OFFCURVE",
"145 537 CURVE SMOOTH",
"145 629 OFFCURVE",
"214 686 OFFCURVE",
"346 686 CURVE SMOOTH",
"430 686 OFFCURVE",
"503 656 OFFCURVE",
"569 595 CURVE",
"598 640 LINE",
"535 702 OFFCURVE",
"446 737 OFFCURVE",
"346 737 CURVE SMOOTH",
"188 737 OFFCURVE",
"87 658 OFFCURVE",
"87 536 CURVE SMOOTH",
"87 275 OFFCURVE",
"512 377 OFFCURVE",
"512 187 CURVE SMOOTH",
"512 97 OFFCURVE",
"443 42 OFFCURVE",
"311 42 CURVE SMOOTH",
"214 42 OFFCURVE",
"143 68 OFFCURVE",
"67 133 CURVE",
"39 88 LINE",
"114 22 OFFCURVE",
"196 -8 OFFCURVE",
"311 -8 CURVE SMOOTH"
);
}
);
width = 624;
},
{
anchors = (
{
name = bottom;
position = "{316, 0}";
},
{
name = top;
position = "{378, 728}";
}
);
background = {
paths = (
{
closed = 1;
nodes = (
"521 -9 OFFCURVE",
"632 76 OFFCURVE",
"632 214 CURVE SMOOTH",
"632 327 OFFCURVE",
"558 387 OFFCURVE",
"369 429 CURVE SMOOTH",
"251 455 OFFCURVE",
"218 475 OFFCURVE",
"218 521 CURVE SMOOTH",
"218 574 OFFCURVE",
"269 608 OFFCURVE",
"349 608 CURVE SMOOTH",
"422 608 OFFCURVE",
"494 585 OFFCURVE",
"560 536 CURVE",
"613 655 LINE",
"556 706 OFFCURVE",
"451 738 OFFCURVE",
"348 738 CURVE SMOOTH",
"171 738 OFFCURVE",
"55 640 OFFCURVE",
"55 508 CURVE SMOOTH",
"55 390 OFFCURVE",
"125 331 OFFCURVE",
"318 290 CURVE SMOOTH",
"431 267 OFFCURVE",
"469 245 OFFCURVE",
"469 199 CURVE SMOOTH",
"469 150 OFFCURVE",
"420 120 OFFCURVE",
"330 120 CURVE SMOOTH",
"245 120 OFFCURVE",
"165 144 OFFCURVE",
"94 192 CURVE",
"41 73 LINE",
"108 22 OFFCURVE",
"219 -9 OFFCURVE",
"327 -9 CURVE SMOOTH"
);
}
);
};
layerId = "E1B555A7-F4E1-459C-9C1A-AE952106EEF9";
paths = (
{
closed = 1;
nodes = (
"517 -9 OFFCURVE",
"629 72 OFFCURVE",
"629 214 CURVE SMOOTH",
"629 459 OFFCURVE",
"239 392 OFFCURVE",
"239 526 CURVE SMOOTH",
"239 577 OFFCURVE",
"289 608 OFFCURVE",
"374 608 CURVE SMOOTH",
"445 608 OFFCURVE",
"521 583 OFFCURVE",
"582 536 CURVE",
"644 655 LINE",
"585 706 OFFCURVE",
"482 738 OFFCURVE",
"378 738 CURVE SMOOTH",
"193 738 OFFCURVE",
"73 649 OFFCURVE",
"73 511 CURVE SMOOTH",
"73 260 OFFCURVE",
"464 326 OFFCURVE",
"464 195 CURVE SMOOTH",
"464 147 OFFCURVE",
"416 120 OFFCURVE",
"328 120 CURVE SMOOTH",
"241 120 OFFCURVE",
"162 144 OFFCURVE",
"89 192 CURVE",
"27 73 LINE",
"103 21 OFFCURVE",
"210 -9 OFFCURVE",
"322 -9 CURVE SMOOTH"
);
}
);
width = 675;
}
);
leftKerningGroup = S;
rightKerningGroup = S;
unicode = 0053;
userData = {
anchors = (
);
b = {
};
com.typemytype.robofont.layerData = {
b = {
anchors = (
);
components = (
);
contours = (
);
lib = {
};
name = S;
unicodes = (
);
width = 1274;
};
};
components = (
);
contours = (
);
lib = {
};
name = S;
unicodes = (
);
width = 1317;
};
},
{
glyphname = Germandbls;
lastChange = "2016-09-21 08:58:57 +0000";
layers = (
{
background = {
paths = (
{
closed = 1;
nodes = (
"152 0 LINE",
"152 470 LINE SMOOTH",
"152 617 OFFCURVE",
"217 684 OFFCURVE",
"357 684 CURVE SMOOTH",
"465 684 OFFCURVE",
"529 631 OFFCURVE",
"529 543 CURVE SMOOTH",
"529 448 OFFCURVE",
"465 395 OFFCURVE",
"354 395 CURVE SMOOTH",
"249 395 LINE",
"249 345 LINE",
"390 345 LINE SMOOTH",
"511 345 OFFCURVE",
"576 295 OFFCURVE",
"576 199 CURVE SMOOTH",
"576 104 OFFCURVE",
"513 46 OFFCURVE",
"408 44 CURVE SMOOTH",
"353 43 OFFCURVE",
"305 62 OFFCURVE",
"248 108 CURVE",
"224 61 LINE",
"274 17 OFFCURVE",
"342 -7 OFFCURVE",
"411 -7 CURVE SMOOTH",
"544 -7 OFFCURVE",
"633 75 OFFCURVE",
"633 198 CURVE SMOOTH",
"633 300 OFFCURVE",
"572 366 OFFCURVE",
"462 382 CURVE",
"452 371 LINE",
"537 390 OFFCURVE",
"586 455 OFFCURVE",
"586 544 CURVE SMOOTH",
"586 662 OFFCURVE",
"498 735 OFFCURVE",
"357 735 CURVE SMOOTH",
"183 735 OFFCURVE",
"96 650 OFFCURVE",
"96 477 CURVE SMOOTH",
"96 0 LINE"
);
}
);
};
layerId = "9E718F8A-2CEA-4931-B05D-987794BD97DA";
paths = (
{
closed = 1;
nodes = (
"131 0 LINE",
"168 470 LINE SMOOTH",
"180 617 OFFCURVE",
"244 684 OFFCURVE",
"389 684 CURVE SMOOTH",
"489 684 OFFCURVE",
"553 636 OFFCURVE",
"553 556 CURVE SMOOTH",
"553 453 OFFCURVE",
"484 395 OFFCURVE",
"367 395 CURVE SMOOTH",
"259 395 LINE",
"255 345 LINE",
"397 345 LINE SMOOTH",
"512 345 OFFCURVE",
"573 301 OFFCURVE",
"573 214 CURVE SMOOTH",
"573 106 OFFCURVE",
"504 44 OFFCURVE",
"390 44 CURVE SMOOTH",
"338 44 OFFCURVE",
"289 64 OFFCURVE",
"236 108 CURVE",
"209 61 LINE",
"257 18 OFFCURVE",
"322 -7 OFFCURVE",
"396 -7 CURVE SMOOTH",
"535 -7 OFFCURVE",
"630 82 OFFCURVE",
"630 213 CURVE SMOOTH",
"630 308 OFFCURVE",
"574 367 OFFCURVE",
"472 382 CURVE",
"462 371 LINE",
"555 390 OFFCURVE",
"609 460 OFFCURVE",
"609 558 CURVE SMOOTH",
"609 668 OFFCURVE",
"524 735 OFFCURVE",
"390 735 CURVE SMOOTH",
"220 735 OFFCURVE",
"127 652 OFFCURVE",
"114 481 CURVE SMOOTH",
"75 0 LINE"
);
}
);
width = 702;
},
{
background = {
paths = (
{
closed = 1;
nodes = (
"233 0 LINE",
"233 459 LINE SMOOTH",
"233 555 OFFCURVE",
"284 606 OFFCURVE",
"376 606 CURVE SMOOTH",
"444 606 OFFCURVE",
"488 572 OFFCURVE",
"488 517 CURVE SMOOTH",
"488 463 OFFCURVE",
"454 433 OFFCURVE",
"386 433 CURVE SMOOTH",
"304 433 LINE",
"304 304 LINE",
"405 304 LINE SMOOTH",
"503 304 OFFCURVE",
"540 276 OFFCURVE",
"540 210 CURVE SMOOTH",
"540 152 OFFCURVE",
"508 117 OFFCURVE",
"457 117 CURVE SMOOTH",
"415 117 OFFCURVE",
"370 133 OFFCURVE",
"315 168 CURVE",
"272 52 LINE",
"326 11 OFFCURVE",
"386 -6 OFFCURVE",
"466 -6 CURVE SMOOTH",
"599 -6 OFFCURVE",
"697 83 OFFCURVE",
"697 204 CURVE SMOOTH",
"697 304 OFFCURVE",
"630 372 OFFCURVE",
"520 384 CURVE",
"520 370 LINE",
"595 393 OFFCURVE",
"643 453 OFFCURVE",
"643 531 CURVE SMOOTH",
"643 656 OFFCURVE",
"540 735 OFFCURVE",
"380 735 CURVE SMOOTH",
"184 735 OFFCURVE",
"70 633 OFFCURVE",
"70 456 CURVE SMOOTH",
"70 0 LINE"
);
}
);
};
layerId = "E1B555A7-F4E1-459C-9C1A-AE952106EEF9";
paths = (
{
closed = 1;
nodes = (
"214 0 LINE",
"251 472 LINE SMOOTH",
"258 561 OFFCURVE",
"308 606 OFFCURVE",
"400 606 CURVE SMOOTH",
"465 606 OFFCURVE",
"508 574 OFFCURVE",
"508 523 CURVE SMOOTH",
"508 465 OFFCURVE",
"474 433 OFFCURVE",
"411 433 CURVE SMOOTH",
"318 433 LINE",
"308 304 LINE",
"409 304 LINE SMOOTH",
"502 304 OFFCURVE",
"537 277 OFFCURVE",
"537 212 CURVE SMOOTH",
"537 151 OFFCURVE",
"505 117 OFFCURVE",
"446 117 CURVE SMOOTH",
"406 117 OFFCURVE",
"358 134 OFFCURVE",
"309 168 CURVE",
"256 52 LINE",
"319 10 OFFCURVE",
"374 -6 OFFCURVE",
"449 -6 CURVE SMOOTH",
"594 -6 OFFCURVE",
"695 87 OFFCURVE",
"695 209 CURVE SMOOTH",
"695 309 OFFCURVE",
"631 371 OFFCURVE",
"530 384 CURVE",
"529 370 LINE",
"621 394 OFFCURVE",
"665 457 OFFCURVE",
"665 539 CURVE SMOOTH",
"665 656 OFFCURVE",
"568 735 OFFCURVE",
"408 735 CURVE SMOOTH",
"217 735 OFFCURVE",
"102 638 OFFCURVE",
"88 466 CURVE SMOOTH",
"51 0 LINE"
);
}
);
width = 734;
}
);
leftKerningGroup = H;
leftMetricsKey = B;
rightKerningGroup = Germandbls;
unicode = 1E9E;
},
{
glyphname = Schwa;
lastChange = "2016-09-21 08:58:59 +0000";
layers = (
{
anchors = (
{
name = bottom;
position = "{357, 0}";
},
{
name = top;
position = "{414, 728}";
}
);
background = {
anchors = (
{
name = bottom;
position = "{1081, 0}";
},
{
name = top;
position = "{1137, 728}";
}
);
paths = (
{
closed = 1;
nodes = (
"568 -8 OFFCURVE",
"688 134 OFFCURVE",
"688 365 CURVE SMOOTH",
"688 596 OFFCURVE",
"561 737 OFFCURVE",
"354 737 CURVE SMOOTH",
"253 737 OFFCURVE",
"157 701 OFFCURVE",
"96 640 CURVE",
"121 595 LINE",
"188 657 OFFCURVE",
"264 686 OFFCURVE",
"355 686 CURVE SMOOTH",
"530 686 OFFCURVE",
"630 569 OFFCURVE",
"630 365 CURVE SMOOTH",
"630 161 OFFCURVE",
"537 43 OFFCURVE",
"377 43 CURVE SMOOTH",
"218 43 OFFCURVE",
"124 162 OFFCURVE",
"124 365 CURVE",
"108 344 LINE",
"662 344 LINE",
"662 396 LINE",
"66 396 LINE",
"66 361 LINE SMOOTH",
"66 133 OFFCURVE",
"186 -8 OFFCURVE",
"377 -8 CURVE SMOOTH"
);
}
);
};
layerId = "9E718F8A-2CEA-4931-B05D-987794BD97DA";
paths = (
{
closed = 1;
nodes = (
"568 -8 OFFCURVE",
"697 150 OFFCURVE",
"697 396 CURVE SMOOTH",
"697 608 OFFCURVE",
"580 737 OFFCURVE",
"393 737 CURVE SMOOTH",
"282 737 OFFCURVE",
"194 703 OFFCURVE",
"127 640 CURVE",
"149 595 LINE",
"218 660 OFFCURVE",
"298 685 OFFCURVE",
"382 685 CURVE SMOOTH",
"548 685 OFFCURVE",
"638 582 OFFCURVE",
"638 397 CURVE SMOOTH",
"638 177 OFFCURVE",
"536 44 OFFCURVE",
"364 43 CURVE SMOOTH",
"191 42 OFFCURVE",
"118 169 OFFCURVE",
"134 365 CURVE",
"117 344 LINE",
"668 344 LINE",
"673 396 LINE",
"79 396 LINE",
"75 362 LINE SMOOTH",
"56 149 OFFCURVE",
"154 -8 OFFCURVE",
"358 -8 CURVE SMOOTH"
);
}
);
width = 755;
},
{
anchors = (
{
name = bottom;
position = "{377, 0}";
},
{
name = top;
position = "{433, 728}";
}
);
background = {
paths = (
{
closed = 1;
nodes = (
"607 -9 OFFCURVE",
"743 146 OFFCURVE",
"743 365 CURVE SMOOTH",
"743 593 OFFCURVE",
"598 738 OFFCURVE",
"372 738 CURVE SMOOTH",
"273 738 OFFCURVE",
"165 706 OFFCURVE",
"101 655 CURVE",
"154 536 LINE",
"217 583 OFFCURVE",
"289 605 OFFCURVE",
"366 605 CURVE SMOOTH",
"503 605 OFFCURVE",
"577 524 OFFCURVE",
"577 365 CURVE SMOOTH",
"577 202 OFFCURVE",
"518 120 OFFCURVE",
"402 120 CURVE SMOOTH",
"280 120 OFFCURVE",
"211 202 OFFCURVE",
"216 365 CURVE",
"174 305 LINE",
"640 305 LINE",
"640 432 LINE",
"50 432 LINE",
"50 368 LINE SMOOTH",
"50 126 OFFCURVE",
"185 -9 OFFCURVE",
"407 -9 CURVE SMOOTH"
);
}
);
};
layerId = "E1B555A7-F4E1-459C-9C1A-AE952106EEF9";
paths = (
{
closed = 1;
nodes = (
"607 -9 OFFCURVE",
"752 147 OFFCURVE",
"752 388 CURVE SMOOTH",
"752 603 OFFCURVE",
"616 738 OFFCURVE",
"404 738 CURVE SMOOTH",
"298 738 OFFCURVE",
"199 706 OFFCURVE",
"133 655 CURVE",
"177 536 LINE",
"248 583 OFFCURVE",
"303 604 OFFCURVE",
"386 605 CURVE SMOOTH",
"513 606 OFFCURVE",
"587 529 OFFCURVE",
"587 388 CURVE SMOOTH",
"587 225 OFFCURVE",
"514 120 OFFCURVE",
"392 120 CURVE SMOOTH",
"270 120 OFFCURVE",
"196 202 OFFCURVE",
"225 365 CURVE",
"178 305 LINE",
"643 305 LINE",
"653 432 LINE",
"64 432 LINE",
"60 378 LINE SMOOTH",
"41 132 OFFCURVE",
"164 -9 OFFCURVE",
"394 -9 CURVE SMOOTH"
);
}
);
width = 793;
}
);
leftKerningGroup = O;
leftMetricsKey = O;
rightKerningGroup = O;
rightMetricsKey = O;
unicode = 018F;
},
{
glyphname = T;
lastChange = "2016-09-21 08:56:34 +0000";
layers = (
{
anchors = (
{
name = bottom;
position = "{284, 0}";
},
{
name = center;
position = "{313, 365}";
},
{
name = top;
position = "{341, 728}";
}
);
background = {
anchors = (
{
name = bottom;
position = "{284, 0}";
},
{
name = center;
position = "{313, 365}";
},
{
name = top;
position = "{341, 728}";
}
);
paths = (
{
closed = 1;
nodes = (
"332 0 LINE",
"332 679 LINE",
"595 679 LINE",
"595 728 LINE",
"12 728 LINE",
"12 679 LINE",
"276 679 LINE",
"276 0 LINE"
);
}
);
};
layerId = "9E718F8A-2CEA-4931-B05D-987794BD97DA";
paths = (
{
closed = 1;
nodes = (
"312 0 LINE",
"366 679 LINE",
"629 679 LINE",
"633 728 LINE",
"51 728 LINE",
"46 679 LINE",
"310 679 LINE",
"256 0 LINE"
);
}
);
width = 607;
},
{
anchors = (
{
name = bottom;
position = "{303, 0}";
},
{
name = center;
position = "{332, 365}";
},
{
name = top;
position = "{359, 728}";
}
);
background = {
anchors = (
{
name = bottom;
position = "{322, 0}";
},
{
name = center;
position = "{351, 365}";
},
{
name = top;
position = "{379, 728}";
}
);
paths = (
{
closed = 1;
nodes = (
"406 0 LINE",
"406 593 LINE",
"632 593 LINE",
"632 728 LINE",
"12 728 LINE",
"12 593 LINE",
"239 593 LINE",
"239 0 LINE"
);
}
);
};
layerId = "E1B555A7-F4E1-459C-9C1A-AE952106EEF9";
paths = (
{
closed = 1;
nodes = (
"386 0 LINE",
"433 593 LINE",
"659 593 LINE",
"669 728 LINE",
"50 728 LINE",
"39 593 LINE",
"265 593 LINE",
"219 0 LINE"
);
}
);
width = 645;
}
);
leftKerningGroup = T;
rightKerningGroup = T;
unicode = 0054;
userData = {
anchors = (
);
b = {
};
com.typemytype.robofont.layerData = {
b = {
anchors = (
);
components = (
);
contours = (
{
points = (
{
segmentType = curve;
smooth = 1;
x = 581;
y = 0;
},
{
segmentType = line;
smooth = 1;
x = 1350;
y = 0;
},
{
smooth = 0;
x = 1399;
y = 0;
},
{
smooth = 0;
x = 1423;
y = 34;
},
{
segmentType = curve;
smooth = 1;
x = 1423;
y = 71;
},
{
smooth = 0;
x = 1423;
y = 107;
},
{
smooth = 0;
x = 1399;
y = 141;
},
{
segmentType = curve;
smooth = 1;
x = 1350;
y = 141;
},
{
segmentType = line;
smooth = 0;
x = 671;
y = 141;
},
{
segmentType = line;
smooth = 0;
x = 671;
y = 665;
},
{
segmentType = line;
smooth = 1;
x = 1290;
y = 665;
},
{
smooth = 0;
x = 1339;
y = 665;
},
{
smooth = 0;
x = 1364;
y = 698;
},
{
segmentType = curve;
smooth = 1;
x = 1364;
y = 734;
},
{
smooth = 0;
x = 1364;
y = 770;
},
{
smooth = 0;
x = 1341;
y = 803;
},
{
segmentType = curve;
smooth = 1;
x = 1290;
y = 803;
},
{
segmentType = line;
smooth = 0;
x = 671;
y = 803;
},
{
segmentType = line;
smooth = 0;
x = 671;
y = 1285;
},
{
segmentType = line;
smooth = 1;
x = 1322;
y = 1285;
},
{
smooth = 0;
x = 1371;
y = 1285;
},
{
smooth = 0;
x = 1395;
y = 1319;
},
{
segmentType = curve;
smooth = 1;
x = 1395;
y = 1356;
},
{
smooth = 0;
x = 1395;
y = 1392;
},
{
smooth = 0;
x = 1371;
y = 1426;
},
{
segmentType = curve;
smooth = 1;
x = 1322;
y = 1426;
},
{
segmentType = line;
smooth = 1;
x = 576;
y = 1426;
},
{
smooth = 0;
x = 528;
y = 1426;
},
{
smooth = 0;
x = 493;
y = 1383;
},
{
segmentType = curve;
smooth = 1;
x = 493;
y = 1340;
},
{
segmentType = line;
smooth = 1;
x = 493;
y = 86;
},
{
smooth = 0;
x = 493;
y = 41;
},
{
smooth = 0;
x = 537;
y = 0;
}
);
}
);
lib = {
};
name = T;
unicodes = (
);
width = 1158;
};
};
components = (
);
contours = (
);
lib = {
};
name = T;
unicodes = (
);
width = 1199;
};
},
{
glyphname = Tbar;
lastChange = "2016-09-21 08:56:34 +0000";
layers = (
{
background = {
paths = (
{
closed = 1;
nodes = (
"481 346 LINE",
"481 394 LINE",
"126 394 LINE",
"126 346 LINE"
);
},
{
closed = 1;
nodes = (
"332 0 LINE",
"332 679 LINE",
"595 679 LINE",
"595 728 LINE",
"12 728 LINE",
"12 679 LINE",
"276 679 LINE",
"276 0 LINE"
);
}
);
};
layerId = "9E718F8A-2CEA-4931-B05D-987794BD97DA";
paths = (
{
closed = 1;
nodes = (
"489 346 LINE",
"493 394 LINE",
"137 394 LINE",
"133 346 LINE"
);
},
{
closed = 1;
nodes = (
"312 0 LINE",
"366 679 LINE",
"629 679 LINE",
"633 728 LINE",
"51 728 LINE",
"46 679 LINE",
"310 679 LINE",
"256 0 LINE"
);
}
);
width = 607;
},
{
background = {
paths = (
{
closed = 1;
nodes = (
"545 305 LINE",
"545 431 LINE",
"99 431 LINE",
"99 305 LINE"
);
},
{
closed = 1;
nodes = (
"406 0 LINE",
"406 593 LINE",
"632 593 LINE",
"632 728 LINE",
"12 728 LINE",
"12 593 LINE",
"239 593 LINE",
"239 0 LINE"
);
}
);
};
layerId = "E1B555A7-F4E1-459C-9C1A-AE952106EEF9";
paths = (
{
closed = 1;
nodes = (
"550 305 LINE",
"560 431 LINE",
"114 431 LINE",
"103 305 LINE"
);
},
{
closed = 1;
nodes = (
"386 0 LINE",
"433 593 LINE",
"659 593 LINE",
"669 728 LINE",
"50 728 LINE",
"39 593 LINE",
"265 593 LINE",
"219 0 LINE"
);
}
);
width = 645;
}
);
leftKerningGroup = T;
leftMetricsKey = T;
rightKerningGroup = T;
rightMetricsKey = T;
unicode = 0166;
userData = {
com.typemytype.robofont.layerData = {
b = {
anchors = (
);
components = (
);
contours = (
);
lib = {
};
name = Tbar;
unicodes = (
);
width = 1158;
};
};
};
},
{
glyphname = U;
lastChange = "2016-09-21 08:56:34 +0000";
layers = (
{
anchors = (
{
name = bottom;
position = "{351, 0}";
},
{
name = ogonek;
position = "{468, 10}";
},
{
name = top;
position = "{408, 728}";
},
{
name = topright;
position = "{660, 728}";
}
);
background = {
anchors = (
{
name = bottom;
position = "{351, 0}";
},
{
name = ogonek;
position = "{468, 10}";
},
{
name = top;
position = "{408, 728}";
},
{
name = topright;
position = "{660, 728}";
}
);
paths = (
{
closed = 1;
nodes = (
"555 -8 OFFCURVE",
"651 90 OFFCURVE",
"651 279 CURVE SMOOTH",
"651 728 LINE",
"595 728 LINE",
"595 272 LINE SMOOTH",
"595 120 OFFCURVE",
"519 43 OFFCURVE",
"371 43 CURVE SMOOTH",
"222 43 OFFCURVE",
"147 120 OFFCURVE",
"147 272 CURVE SMOOTH",
"147 728 LINE",
"91 728 LINE",
"91 279 LINE SMOOTH",
"91 90 OFFCURVE",
"187 -8 OFFCURVE",
"371 -8 CURVE SMOOTH"
);
}
);
};
layerId = "9E718F8A-2CEA-4931-B05D-987794BD97DA";
paths = (
{
closed = 1;
nodes = (
"535 -8 OFFCURVE",
"637 86 OFFCURVE",
"653 279 CURVE SMOOTH",
"688 728 LINE",
"632 728 LINE",
"597 272 LINE SMOOTH",
"586 118 OFFCURVE",
"505 43 OFFCURVE",
"354 43 CURVE SMOOTH",
"206 43 OFFCURVE",
"136 123 OFFCURVE",
"149 282 CURVE SMOOTH",
"184 728 LINE",
"128 728 LINE",
"93 279 LINE SMOOTH",
"79 97 OFFCURVE",
"165 -8 OFFCURVE",
"354 -8 CURVE SMOOTH"
);
}
);
width = 742;
},
{
anchors = (
{
name = bottom;
position = "{363, 0}";
},
{
name = ogonek;
position = "{490, 10}";
},
{
name = top;
position = "{419, 728}";
},
{
name = topright;
position = "{653, 728}";
}
);
background = {
paths = (
{
closed = 1;
nodes = (
"587 -9 OFFCURVE",
"697 100 OFFCURVE",
"697 302 CURVE SMOOTH",
"697 728 LINE",
"534 728 LINE",
"534 294 LINE SMOOTH",
"534 182 OFFCURVE",
"480 120 OFFCURVE",
"382 120 CURVE SMOOTH",
"283 120 OFFCURVE",
"230 181 OFFCURVE",
"230 294 CURVE SMOOTH",
"230 728 LINE",
"67 728 LINE",
"67 302 LINE SMOOTH",
"67 98 OFFCURVE",
"176 -9 OFFCURVE",
"382 -9 CURVE SMOOTH"
);
}
);
};
layerId = "E1B555A7-F4E1-459C-9C1A-AE952106EEF9";
paths = (
{
closed = 1;
nodes = (
"575 -9 OFFCURVE",
"685 94 OFFCURVE",
"700 298 CURVE SMOOTH",
"734 728 LINE",
"571 728 LINE",
"536 286 LINE SMOOTH",
"526 162 OFFCURVE",
"470 120 OFFCURVE",
"385 120 CURVE SMOOTH",
"273 120 OFFCURVE",
"224 181 OFFCURVE",
"234 307 CURVE SMOOTH",
"268 728 LINE",
"104 728 LINE",
"71 312 LINE SMOOTH",
"55 99 OFFCURVE",
"158 -9 OFFCURVE",
"377 -9 CURVE SMOOTH"
);
}
);
width = 764;
}
);
leftKerningGroup = U;
rightKerningGroup = U;
unicode = 0055;
userData = {
anchors = (
);
b = {
};
com.typemytype.robofont.layerData = {
b = {
anchors = (
);
components = (
);
contours = (
);
lib = {
};
name = U;
unicodes = (
);
width = 1490;
};
};
components = (
);
contours = (
);
lib = {
};
name = U;
unicodes = (
);
width = 1513;
};
},
{
glyphname = Uhorn;
lastChange = "2016-09-21 08:56:34 +0000";
layers = (
{
anchors = (
{
name = bottom;
position = "{351, 0}";
},
{
name = top;
position = "{408, 728}";
}
);
background = {
paths = (
{
closed = 1;
nodes = (
"722 845 LINE SMOOTH",
"722 762 OFFCURVE",
"690 729 OFFCURVE",
"612 728 CURVE SMOOTH",
"595 728 LINE",
"595 272 LINE SMOOTH",
"595 120 OFFCURVE",
"519 43 OFFCURVE",
"371 43 CURVE SMOOTH",
"222 43 OFFCURVE",
"147 120 OFFCURVE",
"147 272 CURVE SMOOTH",
"147 728 LINE",
"91 728 LINE",
"91 279 LINE SMOOTH",
"91 90 OFFCURVE",
"187 -8 OFFCURVE",
"371 -8 CURVE SMOOTH",
"555 -8 OFFCURVE",
"651 90 OFFCURVE",
"651 279 CURVE SMOOTH",
"651 714 LINE",
"614 685 LINE",
"716 686 OFFCURVE",
"774 740 OFFCURVE",
"774 836 CURVE SMOOTH",
"774 858 LINE",
"722 858 LINE"
);
}
);
};
layerId = "9E718F8A-2CEA-4931-B05D-987794BD97DA";
paths = (
{
closed = 1;
nodes = (
"769 845 LINE SMOOTH",
"762 762 OFFCURVE",
"728 729 OFFCURVE",
"649 728 CURVE SMOOTH",
"632 728 LINE",
"597 272 LINE SMOOTH",
"586 118 OFFCURVE",
"505 43 OFFCURVE",
"354 43 CURVE SMOOTH",
"206 43 OFFCURVE",
"136 123 OFFCURVE",
"149 282 CURVE SMOOTH",
"184 728 LINE",
"128 728 LINE",
"93 279 LINE SMOOTH",
"79 97 OFFCURVE",
"165 -8 OFFCURVE",
"354 -8 CURVE SMOOTH",
"535 -8 OFFCURVE",
"637 86 OFFCURVE",
"653 279 CURVE SMOOTH",
"687 714 LINE",
"648 685 LINE",
"750 686 OFFCURVE",
"812 740 OFFCURVE",
"820 836 CURVE SMOOTH",
"821 858 LINE",
"770 858 LINE"
);
}
);
width = 742;
},
{
anchors = (
{
name = bottom;
position = "{363, 0}";
},
{
name = top;
position = "{419, 728}";
}
);
background = {
paths = (
{
closed = 1;
nodes = (
"675 833 LINE SMOOTH",
"675 755 OFFCURVE",
"651 728 OFFCURVE",
"582 728 CURVE SMOOTH",
"534 728 LINE",
"534 294 LINE SMOOTH",
"534 182 OFFCURVE",
"480 120 OFFCURVE",
"382 120 CURVE SMOOTH",
"283 120 OFFCURVE",
"230 181 OFFCURVE",
"230 294 CURVE SMOOTH",
"230 728 LINE",
"67 728 LINE",
"67 302 LINE SMOOTH",
"67 98 OFFCURVE",
"176 -9 OFFCURVE",
"382 -9 CURVE SMOOTH",
"587 -9 OFFCURVE",
"697 100 OFFCURVE",
"697 302 CURVE SMOOTH",
"697 696 LINE",
"664 652 LINE",
"753 657 OFFCURVE",
"813 722 OFFCURVE",
"813 813 CURVE SMOOTH",
"813 853 LINE",
"675 853 LINE"
);
}
);
};
layerId = "E1B555A7-F4E1-459C-9C1A-AE952106EEF9";
paths = (
{
closed = 1;
nodes = (
"720 833 LINE SMOOTH",
"715 755 OFFCURVE",
"688 728 OFFCURVE",
"619 728 CURVE SMOOTH",
"571 728 LINE",
"536 286 LINE SMOOTH",
"526 162 OFFCURVE",
"470 120 OFFCURVE",
"385 120 CURVE SMOOTH",
"273 120 OFFCURVE",
"224 181 OFFCURVE",
"234 307 CURVE SMOOTH",
"268 728 LINE",
"104 728 LINE",
"71 312 LINE SMOOTH",
"55 99 OFFCURVE",
"158 -9 OFFCURVE",
"377 -9 CURVE SMOOTH",
"575 -9 OFFCURVE",
"684 94 OFFCURVE",
"700 298 CURVE SMOOTH",
"732 696 LINE",
"696 652 LINE",
"793 657 OFFCURVE",
"850 722 OFFCURVE",
"857 813 CURVE SMOOTH",
"860 853 LINE",
"722 853 LINE"
);
}
);
width = 764;
}
);
leftKerningGroup = U;
leftMetricsKey = U;
widthMetricsKey = U;
rightKerningGroup = Uhorn;
unicode = 01AF;
},
{
glyphname = Uogonek;
lastChange = "2016-09-21 08:56:34 +0000";
layers = (
{
background = {
paths = (
{
closed = 1;
nodes = (
"595 272 LINE SMOOTH",
"595 120 OFFCURVE",
"519 43 OFFCURVE",
"371 43 CURVE SMOOTH",
"222 43 OFFCURVE",
"147 120 OFFCURVE",
"147 272 CURVE SMOOTH",
"147 728 LINE",
"91 728 LINE",
"91 279 LINE SMOOTH",
"91 90 OFFCURVE",
"187 -8 OFFCURVE",
"371 -8 CURVE SMOOTH",
"426 -8 LINE",
"413 11 LINE",
"365 -9 OFFCURVE",
"340 -43 OFFCURVE",
"340 -91 CURVE SMOOTH",
"340 -154 OFFCURVE",
"387 -197 OFFCURVE",
"457 -197 CURVE SMOOTH",
"489 -197 OFFCURVE",
"518 -189 OFFCURVE",
"539 -174 CURVE",
"523 -134 LINE",
"501 -146 OFFCURVE",
"479 -153 OFFCURVE",
"462 -153 CURVE SMOOTH",
"418 -153 OFFCURVE",
"392 -127 OFFCURVE",
"392 -85 CURVE SMOOTH",
"392 -41 OFFCURVE",
"418 -13 OFFCURVE",
"481 6 CURVE SMOOTH",
"593 41 OFFCURVE",
"651 132 OFFCURVE",
"651 279 CURVE SMOOTH",
"651 728 LINE",
"595 728 LINE"
);
}
);
};
layerId = "9E718F8A-2CEA-4931-B05D-987794BD97DA";
paths = (
{
closed = 1;
nodes = (
"597 272 LINE SMOOTH",
"586 118 OFFCURVE",
"505 43 OFFCURVE",
"354 43 CURVE SMOOTH",
"206 43 OFFCURVE",
"136 123 OFFCURVE",
"149 282 CURVE SMOOTH",
"184 728 LINE",
"128 728 LINE",
"93 279 LINE SMOOTH",
"79 97 OFFCURVE",
"165 -8 OFFCURVE",
"350 -8 CURVE SMOOTH",
"405 -8 LINE",
"395 11 LINE",
"344 -9 OFFCURVE",
"313 -40 OFFCURVE",
"313 -98 CURVE SMOOTH",
"313 -157 OFFCURVE",
"355 -197 OFFCURVE",
"424 -197 CURVE SMOOTH",
"456 -197 OFFCURVE",
"488 -186 OFFCURVE",
"506 -174 CURVE",
"493 -133 LINE",
"470 -147 OFFCURVE",
"446 -153 OFFCURVE",
"430 -153 CURVE SMOOTH",
"389 -153 OFFCURVE",
"366 -131 OFFCURVE",
"366 -89 CURVE SMOOTH",
"366 -41 OFFCURVE",
"398 -13 OFFCURVE",
"462 5 CURVE SMOOTH",
"575 37 OFFCURVE",
"641 129 OFFCURVE",
"653 279 CURVE SMOOTH",
"688 728 LINE",
"632 728 LINE"
);
}
);
width = 742;
},
{
background = {
paths = (
{
closed = 1;
nodes = (
"534 294 LINE SMOOTH",
"534 182 OFFCURVE",
"480 120 OFFCURVE",
"382 120 CURVE SMOOTH",
"283 120 OFFCURVE",
"230 181 OFFCURVE",
"230 294 CURVE SMOOTH",
"230 728 LINE",
"67 728 LINE",
"67 302 LINE SMOOTH",
"67 98 OFFCURVE",
"176 -9 OFFCURVE",
"383 -9 CURVE SMOOTH",
"405 -9 LINE",
"395 11 LINE",
"356 -11 OFFCURVE",
"335 -50 OFFCURVE",
"335 -90 CURVE SMOOTH",
"335 -156 OFFCURVE",
"389 -204 OFFCURVE",
"467 -204 CURVE SMOOTH",
"504 -204 OFFCURVE",
"540 -196 OFFCURVE",
"571 -183 CURVE",
"554 -108 LINE",
"534 -117 OFFCURVE",
"515 -121 OFFCURVE",
"498 -121 CURVE SMOOTH",
"459 -121 OFFCURVE",
"437 -102 OFFCURVE",
"437 -66 CURVE SMOOTH",
"437 -33 OFFCURVE",
"459 -6 OFFCURVE",
"499 5 CURVE SMOOTH",
"629 41 OFFCURVE",
"697 143 OFFCURVE",
"697 302 CURVE SMOOTH",
"697 728 LINE",
"534 728 LINE"
);
}
);
};
layerId = "E1B555A7-F4E1-459C-9C1A-AE952106EEF9";
paths = (
{
closed = 1;
nodes = (
"536 286 LINE SMOOTH",
"526 162 OFFCURVE",
"470 120 OFFCURVE",
"385 120 CURVE SMOOTH",
"273 120 OFFCURVE",
"224 181 OFFCURVE",
"234 307 CURVE SMOOTH",
"268 728 LINE",
"104 728 LINE",
"71 312 LINE SMOOTH",
"55 99 OFFCURVE",
"158 -9 OFFCURVE",
"372 -9 CURVE SMOOTH",
"384 -9 LINE",
"376 11 LINE",
"327 -11 OFFCURVE",
"308 -52 OFFCURVE",
"308 -94 CURVE SMOOTH",
"308 -158 OFFCURVE",
"358 -204 OFFCURVE",
"439 -204 CURVE SMOOTH",
"472 -204 OFFCURVE",
"505 -196 OFFCURVE",
"537 -183 CURVE",
"526 -108 LINE",
"503 -117 OFFCURVE",
"484 -121 OFFCURVE",
"467 -121 CURVE SMOOTH",
"434 -121 OFFCURVE",
"412 -102 OFFCURVE",
"412 -69 CURVE SMOOTH",
"412 -33 OFFCURVE",
"439 -10 OFFCURVE",
"479 0 CURVE SMOOTH",
"620 36 OFFCURVE",
"688 138 OFFCURVE",
"700 298 CURVE SMOOTH",
"734 728 LINE",
"571 728 LINE"
);
}
);
width = 764;
}
);
leftKerningGroup = U;
leftMetricsKey = U;
rightKerningGroup = U;
rightMetricsKey = U;
unicode = 0172;
},
{
glyphname = V;
lastChange = "2016-09-21 08:56:34 +0000";
layers = (
{
anchors = (
{
name = bottom;
position = "{331, 0}";
},
{
name = top;
position = "{386, 728}";
}
);
background = {
anchors = (
{
name = bottom;
position = "{331, 0}";
},
{
name = top;
position = "{386, 728}";
}
);
paths = (
{
closed = 1;
nodes = (
"375 0 LINE",
"690 728 LINE",
"632 728 LINE",
"336 38 LINE",
"364 38 LINE",
"67 728 LINE",
"9 728 LINE",
"323 0 LINE"
);
}
);
};
layerId = "9E718F8A-2CEA-4931-B05D-987794BD97DA";
paths = (
{
closed = 1;
nodes = (
"355 0 LINE",
"727 728 LINE",
"668 728 LINE",
"318 38 LINE",
"346 38 LINE",
"104 728 LINE",
"46 728 LINE",
"304 0 LINE"
);
}
);
width = 698;
},
{
anchors = (
{
name = bottom;
position = "{358, 0}";
},
{
name = top;
position = "{414, 728}";
}
);
background = {
paths = (
{
closed = 1;
nodes = (
"444 0 LINE",
"773 728 LINE",
"604 728 LINE",
"355 152 LINE",
"403 152 LINE",
"155 728 LINE",
"-18 728 LINE",
"311 0 LINE"
);
}
);
};
layerId = "E1B555A7-F4E1-459C-9C1A-AE952106EEF9";
paths = (
{
closed = 1;
nodes = (
"425 0 LINE",
"810 728 LINE",
"640 728 LINE",
"348 152 LINE",
"396 152 LINE",
"192 728 LINE",
"20 728 LINE",
"291 0 LINE"
);
}
);
width = 755;
}
);
leftKerningGroup = V;
rightKerningGroup = V;
unicode = 0056;
userData = {
anchors = (
);
b = {
};
com.typemytype.robofont.guides = (
);
com.typemytype.robofont.layerData = {
b = {
anchors = (
);
components = (
);
contours = (
{
points = (
{
segmentType = curve;
smooth = 1;
x = 644;
y = "-5";
},
{
smooth = 0;
x = 712;
y = "-5";
},
{
smooth = 0;
x = 764;
y = 38;
},
{
segmentType = curve;
smooth = 1;
x = 793;
y = 117;
},
{
segmentType = line;
smooth = 1;
x = 1243;
y = 1324;
},
{
smooth = 0;
x = 1247;
y = 1335;
},
{
smooth = 0;
x = 1248;
y = 1342;
},
{
segmentType = curve;
smooth = 1;
x = 1248;
y = 1351;
},
{
smooth = 0;
x = 1248;
y = 1395;
},
{
smooth = 0;
x = 1203;
y = 1427;
},
{
segmentType = curve;
smooth = 1;
x = 1160;
y = 1427;
},
{
smooth = 0;
x = 1125;
y = 1427;
},
{
smooth = 0;
x = 1090;
y = 1408;
},
{
segmentType = curve;
smooth = 1;
x = 1076;
y = 1369;
},
{
segmentType = line;
smooth = 0;
x = 651;
y = 192;
},
{
segmentType = line;
smooth = 0;
x = 650;
y = 190;
},
{
segmentType = line;
smooth = 1;
x = 214;
y = 1370;
},
{
smooth = 0;
x = 200;
y = 1407;
},
{
smooth = 0;
x = 170;
y = 1427;
},
{
segmentType = curve;
smooth = 1;
x = 135;
y = 1427;
},
{
smooth = 0;
x = 90;
y = 1427;
},
{
smooth = 0;
x = 43;
y = 1392;
},
{
segmentType = curve;
smooth = 1;
x = 43;
y = 1344;
},
{
smooth = 0;
x = 43;
y = 1336;
},
{
smooth = 0;
x = 44;
y = 1326;
},
{
segmentType = curve;
smooth = 0;
x = 48;
y = 1318;
},
{
segmentType = line;
smooth = 1;
x = 501;
y = 117;
},
{
smooth = 0;
x = 532;
y = 35;
},
{
smooth = 0;
x = 581;
y = "-5";
}
);
}
);
lib = {
};
name = V;
unicodes = (
);
width = 1289;
};
};
components = (
);
contours = (
);
lib = {
};
name = V;
unicodes = (
);
width = 1365;
};
},
{
glyphname = W;
lastChange = "2016-09-21 08:56:34 +0000";
layers = (
{
anchors = (
{
name = bottom;
position = "{546, 0}";
},
{
name = top;
position = "{602, 728}";
}
);
background = {
anchors = (
{
name = bottom;
position = "{546, 0}";
},
{
name = top;
position = "{602, 728}";
}
);
paths = (
{
closed = 1;
nodes = (
"343 0 LINE",
"576 670 LINE",
"555 670 LINE",
"788 0 LINE",
"838 0 LINE",
"1091 728 LINE",
"1035 728 LINE",
"796 36 LINE",
"827 36 LINE",
"589 727 LINE",
"543 728 LINE",
"304 36 LINE",
"334 36 LINE",
"96 728 LINE",
"40 728 LINE",
"293 0 LINE"
);
}
);
};
layerId = "9E718F8A-2CEA-4931-B05D-987794BD97DA";
paths = (
{
closed = 1;
nodes = (
"323 0 LINE",
"609 670 LINE",
"588 670 LINE",
"769 0 LINE",
"818 0 LINE",
"1128 728 LINE",
"1072 728 LINE",
"779 36 LINE",
"810 36 LINE",
"626 727 LINE",
"581 728 LINE",
"286 36 LINE",
"316 36 LINE",
"133 728 LINE",
"77 728 LINE",
"274 0 LINE"
);
}
);
width = 1131;
},
{
anchors = (
{
name = bottom;
position = "{557, 0}";
},
{
name = top;
position = "{614, 728}";
}
);
background = {
paths = (
{
closed = 1;
nodes = (
"409 0 LINE",
"590 508 LINE",
"565 508 LINE",
"743 0 LINE",
"876 0 LINE",
"1135 728 LINE",
"977 728 LINE",
"789 173 LINE",
"825 173 LINE",
"639 728 LINE",
"524 728 LINE",
"328 173 LINE",
"370 173 LINE",
"186 728 LINE",
"18 728 LINE",
"276 0 LINE"
);
}
);
};
layerId = "E1B555A7-F4E1-459C-9C1A-AE952106EEF9";
paths = (
{
closed = 1;
nodes = (
"389 0 LINE",
"608 508 LINE",
"584 508 LINE",
"723 0 LINE",
"856 0 LINE",
"1172 728 LINE",
"1013 728 LINE",
"781 173 LINE",
"817 173 LINE",
"676 728 LINE",
"560 728 LINE",
"321 173 LINE",
"363 173 LINE",
"222 728 LINE",
"55 728 LINE",
"256 0 LINE"
);
}
);
width = 1153;
}
);
leftKerningGroup = V;
rightKerningGroup = V;
unicode = 0057;
userData = {
anchors = (
);
b = {
};
com.typemytype.robofont.layerData = {
b = {
anchors = (
);
components = (
);
contours = (
);
lib = {
};
name = W;
unicodes = (
);
width = 2126;
};
};
components = (
);
contours = (
);
lib = {
};
name = W;
unicodes = (
);
width = 2070;
};
},
{
glyphname = X;
lastChange = "2016-09-21 08:56:34 +0000";
layers = (
{
anchors = (
{
name = bottom;
position = "{309, 0}";
},
{
name = top;
position = "{366, 728}";
}
);
background = {
anchors = (
{
name = bottom;
position = "{309, 0}";
},
{
name = top;
position = "{366, 728}";
}
);
paths = (
{
closed = 1;
nodes = (
"328 331 LINE",
"361 373 LINE",
"622 728 LINE",
"557 728 LINE",
"330 416 LINE",
"296 374 LINE",
"20 0 LINE",
"87 0 LINE"
);
},
{
closed = 1;
nodes = (
"636 0 LINE",
"361 373 LINE",
"330 416 LINE",
"101 728 LINE",
"35 728 LINE",
"296 374 LINE",
"328 331 LINE",
"570 0 LINE"
);
}
);
};
layerId = "9E718F8A-2CEA-4931-B05D-987794BD97DA";
paths = (
{
closed = 1;
nodes = (
"336 331 LINE",
"370 373 LINE",
"659 728 LINE",
"591 728 LINE",
"341 417 LINE",
"306 375 LINE",
"0 0 LINE",
"67 0 LINE"
);
},
{
closed = 1;
nodes = (
"617 0 LINE",
"370 373 LINE",
"341 417 LINE",
"138 728 LINE",
"72 728 LINE",
"306 375 LINE",
"336 331 LINE",
"551 0 LINE"
);
}
);
width = 656;
},
{
anchors = (
{
name = bottom;
position = "{331, 0}";
},
{
name = top;
position = "{386, 728}";
}
);
background = {
paths = (
{
closed = 1;
nodes = (
"349 247 LINE",
"443 369 LINE",
"715 728 LINE",
"522 728 LINE",
"349 490 LINE",
"255 369 LINE",
"-23 0 LINE",
"170 0 LINE"
);
},
{
closed = 1;
nodes = (
"721 0 LINE",
"443 369 LINE",
"349 490 LINE",
"178 728 LINE",
"-15 728 LINE",
"255 369 LINE",
"349 247 LINE",
"527 0 LINE"
);
}
);
};
layerId = "E1B555A7-F4E1-459C-9C1A-AE952106EEF9";
paths = (
{
closed = 1;
nodes = (
"350 244 LINE",
"451 367 LINE",
"752 728 LINE",
"556 728 LINE",
"367 494 LINE",
"265 371 LINE",
"-42 0 LINE",
"154 0 LINE"
);
},
{
closed = 1;
nodes = (
"701 0 LINE",
"451 367 LINE",
"367 494 LINE",
"212 728 LINE",
"22 728 LINE",
"265 371 LINE",
"350 244 LINE",
"511 0 LINE"
);
}
);
width = 699;
}
);
leftKerningGroup = X;
rightKerningGroup = X;
unicode = 0058;
userData = {
anchors = (
);
b = {
};
com.typemytype.robofont.layerData = {
b = {
anchors = (
);
components = (
);
contours = (
{
points = (
{
segmentType = curve;
smooth = 1;
x = 151;
y = 0;
},
{
smooth = 0;
x = 176;
y = 0;
},
{
smooth = 0;
x = 201;
y = 12;
},
{
segmentType = curve;
smooth = 1;
x = 222;
y = 41;
},
{
segmentType = line;
smooth = 0;
x = 641;
y = 616;
},
{
segmentType = line;
smooth = 0;
x = 746;
y = 734;
},
{
segmentType = line;
smooth = 1;
x = 1175;
y = 1310;
},
{
smooth = 0;
x = 1186;
y = 1325;
},
{
smooth = 0;
x = 1190;
y = 1338;
},
{
segmentType = curve;
smooth = 1;
x = 1190;
y = 1353;
},
{
smooth = 0;
x = 1190;
y = 1393;
},
{
smooth = 0;
x = 1153;
y = 1426;
},
{
segmentType = curve;
smooth = 1;
x = 1110;
y = 1426;
},
{
smooth = 0;
x = 1083;
y = 1426;
},
{
smooth = 0;
x = 1058;
y = 1414;
},
{
segmentType = curve;
smooth = 1;
x = 1037;
y = 1385;
},
{
segmentType = line;
smooth = 0;
x = 648;
y = 844;
},
{
segmentType = line;
smooth = 0;
x = 542;
y = 732;
},
{
segmentType = line;
smooth = 1;
x = 84;
y = 121;
},
{
smooth = 0;
x = 73;
y = 106;
},
{
smooth = 0;
x = 68;
y = 91;
},
{
segmentType = curve;
smooth = 1;
x = 68;
y = 76;
},
{
smooth = 0;
x = 68;
y = 35;
},
{
smooth = 0;
x = 108;
y = 0;
}
);
},
{
points = (
{
segmentType = curve;
smooth = 1;
x = 1104;
y = 0;
},
{
smooth = 0;
x = 1151;
y = 0;
},
{
smooth = 0;
x = 1200;
y = 40;
},
{
segmentType = curve;
smooth = 1;
x = 1200;
y = 85;
},
{
smooth = 0;
x = 1200;
y = 98;
},
{
smooth = 0;
x = 1195;
y = 113;
},
{
segmentType = curve;
smooth = 0;
x = 1186;
y = 126;
},
{
segmentType = line;
smooth = 0;
x = 272;
y = 1385;
},
{
smooth = 0;
x = 252;
y = 1414;
},
{
smooth = 0;
x = 225;
y = 1426;
},
{
segmentType = curve;
smooth = 1;
x = 197;
y = 1426;
},
{
smooth = 0;
x = 149;
y = 1426;
},
{
smooth = 0;
x = 100;
y = 1388;
},
{
segmentType = curve;
smooth = 1;
x = 100;
y = 1343;
},
{
smooth = 0;
x = 100;
y = 1328;
},
{
smooth = 0;
x = 105;
y = 1315;
},
{
segmentType = curve;
smooth = 0;
x = 114;
y = 1303;
},
{
segmentType = line;
smooth = 0;
x = 1033;
y = 40;
},
{
smooth = 0;
x = 1052;
y = 13;
},
{
smooth = 0;
x = 1076;
y = 0;
}
);
}
);
lib = {
};
name = X;
unicodes = (
);
width = 1274;
};
};
components = (
);
contours = (
);
lib = {
};
name = X;
unicodes = (
);
width = 1322;
};
},
{
color = 4;
glyphname = Y;
lastChange = "2016-09-21 08:56:34 +0000";
layers = (
{
anchors = (
{
name = bottom;
position = "{283, 0}";
},
{
name = top;
position = "{340, 728}";
},
{
name = topleft;
position = "{57, 728}";
}
);
background = {
anchors = (
{
name = bottom;
position = "{263, 0}";
},
{
name = top;
position = "{377, 728}";
},
{
name = topleft;
position = "{94, 728}";
}
);
paths = (
{
closed = 1;
nodes = (
"311 0 LINE",
"337 327 LINE",
"320 281 LINE",
"648 728 LINE",
"585 728 LINE",
"299 335 LINE",
"322 335 LINE",
"97 728 LINE",
"32 728 LINE",
"290 281 LINE",
"281 327 LINE",
"255 0 LINE"
);
}
);
};
layerId = "9E718F8A-2CEA-4931-B05D-987794BD97DA";
paths = (
{
closed = 1;
nodes = (
"311 0 LINE",
"337 327 LINE",
"320 281 LINE",
"648 728 LINE",
"583 728 LINE",
"300 335 LINE",
"317 335 LINE",
"95 728 LINE",
"32 728 LINE",
"290 281 LINE",
"281 327 LINE",
"255 0 LINE"
);
}
);
width = 606;
},
{
anchors = (
{
name = bottom;
position = "{311, 0}";
},
{
name = top;
position = "{367, 728}";
},
{
name = topleft;
position = "{57, 728}";
}
);
background = {
paths = (
{
closed = 1;
nodes = (
"394 0 LINE",
"419 327 LINE",
"378 232 LINE",
"753 728 LINE",
"564 728 LINE",
"317 386 LINE",
"362 386 LINE",
"170 728 LINE",
"-18 728 LINE",
"280 232 LINE",
"253 327 LINE",
"227 0 LINE"
);
}
);
};
layerId = "E1B555A7-F4E1-459C-9C1A-AE952106EEF9";
paths = (
{
closed = 1;
nodes = (
"394 0 LINE",
"419 327 LINE",
"378 232 LINE",
"753 728 LINE",
"562 728 LINE",
"320 386 LINE",
"356 386 LINE",
"167 728 LINE",
"-18 728 LINE",
"280 232 LINE",
"253 327 LINE",
"227 0 LINE"
);
}
);
width = 660;
}
);
leftKerningGroup = Y;
rightKerningGroup = Y;
unicode = 0059;
userData = {
anchors = (
);
b = {
};
com.typemytype.robofont.guides = (
);
com.typemytype.robofont.layerData = {
b = {
anchors = (
);
components = (
);
contours = (
{
points = (
{
segmentType = curve;
smooth = 1;
x = 641;
y = 0;
},
{
smooth = 0;
x = 685;
y = 0;
},
{
smooth = 0;
x = 730;
y = 29;
},
{
segmentType = curve;
smooth = 1;
x = 730;
y = 85;
},
{
segmentType = line;
smooth = 0;
x = 730;
y = 1285;
},
{
segmentType = line;
smooth = 1;
x = 1115;
y = 1285;
},
{
smooth = 0;
x = 1164;
y = 1285;
},
{
smooth = 0;
x = 1190;
y = 1319;
},
{
segmentType = curve;
smooth = 1;
x = 1190;
y = 1355;
},
{
smooth = 0;
x = 1190;
y = 1392;
},
{
smooth = 0;
x = 1166;
y = 1426;
},
{
segmentType = curve;
smooth = 1;
x = 1115;
y = 1426;
},
{
segmentType = line;
smooth = 1;
x = 160;
y = 1426;
},
{
smooth = 0;
x = 111;
y = 1426;
},
{
smooth = 0;
x = 86;
y = 1392;
},
{
segmentType = curve;
smooth = 1;
x = 86;
y = 1355;
},
{
smooth = 0;
x = 86;
y = 1319;
},
{
smooth = 0;
x = 111;
y = 1285;
},
{
segmentType = curve;
smooth = 1;
x = 160;
y = 1285;
},
{
segmentType = line;
smooth = 0;
x = 552;
y = 1285;
},
{
segmentType = line;
smooth = 1;
x = 552;
y = 85;
},
{
smooth = 0;
x = 552;
y = 29;
},
{
smooth = 0;
x = 596;
y = 0;
}
);
}
);
lib = {
};
name = Y;
unicodes = (
);
width = 1278;
};
};
components = (
);
contours = (
);
lib = {
};
name = Y;
unicodes = (
);
width = 1321;
};
},
{
glyphname = Z;
lastChange = "2016-09-21 08:56:34 +0000";
layers = (
{
anchors = (
{
name = bottom;
position = "{288, 0}";
},
{
name = top;
position = "{337, 728}";
}
);
background = {
anchors = (
{
name = bottom;
position = "{288, 0}";
},
{
name = top;
position = "{337, 728}";
}
);
paths = (
{
closed = 1;
nodes = (
"563 0 LINE",
"563 50 LINE",
"84 50 LINE",
"82 7 LINE",
"553 687 LINE",
"553 728 LINE",
"44 728 LINE",
"44 679 LINE",
"513 679 LINE",
"515 721 LINE",
"44 41 LINE",
"44 0 LINE"
);
}
);
};
layerId = "9E718F8A-2CEA-4931-B05D-987794BD97DA";
paths = (
{
closed = 1;
nodes = (
"587 687 LINE",
"590 728 LINE",
"83 728 LINE",
"79 679 LINE",
"547 679 LINE",
"550 721 LINE",
"28 41 LINE",
"25 0 LINE",
"543 0 LINE",
"547 50 LINE",
"68 50 LINE",
"66 7 LINE"
);
}
);
width = 601;
},
{
anchors = (
{
name = bottom;
position = "{293, 0}";
},
{
name = top;
position = "{354, 728}";
}
);
background = {
paths = (
{
closed = 1;
nodes = (
"595 0 LINE",
"595 131 LINE",
"206 131 LINE",
"204 86 LINE",
"584 608 LINE",
"584 728 LINE",
"52 728 LINE",
"52 597 LINE",
"429 597 LINE",
"430 643 LINE",
"52 122 LINE",
"52 0 LINE"
);
}
);
};
layerId = "E1B555A7-F4E1-459C-9C1A-AE952106EEF9";
paths = (
{
closed = 1;
nodes = (
"575 0 LINE",
"586 131 LINE",
"196 131 LINE",
"196 86 LINE",
"612 608 LINE",
"621 728 LINE",
"89 728 LINE",
"79 597 LINE",
"456 597 LINE",
"456 643 LINE",
"41 122 LINE",
"32 0 LINE"
);
}
);
width = 631;
}
);
leftKerningGroup = Z;
rightKerningGroup = Z;
unicode = 005A;
userData = {
anchors = (
);
b = {
};
com.typemytype.robofont.layerData = {
b = {
anchors = (
);
components = (
);
contours = (
{
points = (
{
segmentType = curve;
smooth = 1;
x = 266;
y = 0;
},
{
segmentType = line;
smooth = 1;
x = 1035;
y = 0;
},
{
smooth = 0;
x = 1084;
y = 0;
},
{
smooth = 0;
x = 1108;
y = 34;
},
{
segmentType = curve;
smooth = 1;
x = 1108;
y = 71;
},
{
smooth = 0;
x = 1108;
y = 107;
},
{
smooth = 0;
x = 1084;
y = 141;
},
{
segmentType = curve;
smooth = 1;
x = 1035;
y = 141;
},
{
segmentType = line;
smooth = 0;
x = 356;
y = 141;
},
{
segmentType = line;
smooth = 0;
x = 356;
y = 665;
},
{
segmentType = line;
smooth = 1;
x = 975;
y = 665;
},
{
smooth = 0;
x = 1024;
y = 665;
},
{
smooth = 0;
x = 1049;
y = 698;
},
{
segmentType = curve;
smooth = 1;
x = 1049;
y = 734;
},
{
smooth = 0;
x = 1049;
y = 770;
},
{
smooth = 0;
x = 1026;
y = 803;
},
{
segmentType = curve;
smooth = 1;
x = 975;
y = 803;
},
{
segmentType = line;
smooth = 0;
x = 356;
y = 803;
},
{
segmentType = line;
smooth = 0;
x = 356;
y = 1285;
},
{
segmentType = line;
smooth = 1;
x = 1007;
y = 1285;
},
{
smooth = 0;
x = 1056;
y = 1285;
},
{
smooth = 0;
x = 1080;
y = 1319;
},
{
segmentType = curve;
smooth = 1;
x = 1080;
y = 1356;
},
{
smooth = 0;
x = 1080;
y = 1392;
},
{
smooth = 0;
x = 1056;
y = 1426;
},
{
segmentType = curve;
smooth = 1;
x = 1007;
y = 1426;
},
{
segmentType = line;
smooth = 1;
x = 261;
y = 1426;
},
{
smooth = 0;
x = 213;
y = 1426;
},
{
smooth = 0;
x = 178;
y = 1383;
},
{
segmentType = curve;
smooth = 1;
x = 178;
y = 1340;
},
{
segmentType = line;
smooth = 1;
x = 178;
y = 86;
},
{
smooth = 0;
x = 178;
y = 41;
},
{
smooth = 0;
x = 222;
y = 0;
}
);
}
);
lib = {
};
name = Z;
unicodes = (
);
width = 1165;
};
};
components = (
);
contours = (
);
lib = {
};
name = Z;
unicodes = (
);
width = 1222;
};
},
{
glyphname = a;
lastChange = "2016-09-21 08:56:34 +0000";
layers = (
{
anchors = (
{
name = bottom;
position = "{276, 0}";
},
{
name = ogonek;
position = "{482, 10}";
},
{
name = top;
position = "{316, 506}";
}
);
background = {
paths = (
{
closed = 1;
nodes = (
"370 -7 OFFCURVE",
"437 42 OFFCURVE",
"460 131 CURVE",
"448 139 LINE",
"448 0 LINE",
"504 0 LINE",
"504 501 LINE",
"448 501 LINE",
"448 367 LINE",
"460 376 LINE",
"437 464 OFFCURVE",
"370 513 OFFCURVE",
"275 513 CURVE SMOOTH",
"142 513 OFFCURVE",
"52 409 OFFCURVE",
"52 251 CURVE SMOOTH",
"52 94 OFFCURVE",
"140 -7 OFFCURVE",
"275 -7 CURVE SMOOTH"
);
},
{
closed = 1;
nodes = (
"174 43 OFFCURVE",
"111 119 OFFCURVE",
"111 251 CURVE SMOOTH",
"111 384 OFFCURVE",
"174 463 OFFCURVE",
"280 463 CURVE SMOOTH",
"388 463 OFFCURVE",
"448 387 OFFCURVE",
"448 253 CURVE SMOOTH",
"448 120 OFFCURVE",
"388 43 OFFCURVE",
"281 43 CURVE SMOOTH"
);
}
);
};
layerId = "9E718F8A-2CEA-4931-B05D-987794BD97DA";
paths = (
{
closed = 1;
nodes = (
"349 -7 OFFCURVE",
"427 41 OFFCURVE",
"450 121 CURVE",
"440 139 LINE",
"429 0 LINE",
"484 0 LINE",
"524 501 LINE",
"468 501 LINE",
"458 367 LINE",
"472 375 LINE",
"452 462 OFFCURVE",
"381 513 OFFCURVE",
"286 513 CURVE SMOOTH",
"146 513 OFFCURVE",
"52 403 OFFCURVE",
"52 236 CURVE SMOOTH",
"52 88 OFFCURVE",
"137 -7 OFFCURVE",
"265 -7 CURVE SMOOTH"
);
},
{
closed = 1;
nodes = (
"170 43 OFFCURVE",
"111 113 OFFCURVE",
"111 232 CURVE SMOOTH",
"111 376 OFFCURVE",
"176 463 OFFCURVE",
"285 463 CURVE SMOOTH",
"392 463 OFFCURVE",
"450 397 OFFCURVE",
"450 275 CURVE SMOOTH",
"450 131 OFFCURVE",
"384 43 OFFCURVE",
"275 43 CURVE SMOOTH"
);
}
);
width = 589;
},
{
anchors = (
{
name = bottom;
position = "{298, 0}";
},
{
name = ogonek;
position = "{531, 10}";
},
{
name = top;
position = "{338, 511}";
}
);
background = {
paths = (
{
closed = 1;
nodes = (
"339 -8 OFFCURVE",
"406 33 OFFCURVE",
"429 99 CURVE",
"417 101 LINE",
"417 0 LINE",
"576 0 LINE",
"576 507 LINE",
"417 507 LINE",
"417 404 LINE",
"429 412 LINE",
"406 478 OFFCURVE",
"339 520 OFFCURVE",
"258 520 CURVE SMOOTH",
"127 520 OFFCURVE",
"34 412 OFFCURVE",
"34 253 CURVE SMOOTH",
"34 94 OFFCURVE",
"126 -8 OFFCURVE",
"258 -8 CURVE SMOOTH"
);
},
{
closed = 1;
nodes = (
"234 114 OFFCURVE",
"194 163 OFFCURVE",
"194 253 CURVE SMOOTH",
"194 345 OFFCURVE",
"236 398 OFFCURVE",
"306 398 CURVE SMOOTH",
"377 398 OFFCURVE",
"417 347 OFFCURVE",
"417 255 CURVE SMOOTH",
"417 164 OFFCURVE",
"377 114 OFFCURVE",
"306 114 CURVE SMOOTH"
);
}
);
};
layerId = "E1B555A7-F4E1-459C-9C1A-AE952106EEF9";
paths = (
{
closed = 1;
nodes = (
"326 -8 OFFCURVE",
"388 28 OFFCURVE",
"417 87 CURVE",
"405 101 LINE",
"397 0 LINE",
"556 0 LINE",
"596 507 LINE",
"437 507 LINE",
"429 404 LINE",
"440 430 LINE",
"408 487 OFFCURVE",
"353 520 OFFCURVE",
"277 520 CURVE SMOOTH",
"132 520 OFFCURVE",
"34 403 OFFCURVE",
"34 236 CURVE SMOOTH",
"34 84 OFFCURVE",
"122 -8 OFFCURVE",
"250 -8 CURVE SMOOTH"
);
},
{
closed = 1;
nodes = (
"234 113 OFFCURVE",
"194 160 OFFCURVE",
"194 246 CURVE SMOOTH",
"194 340 OFFCURVE",
"238 399 OFFCURVE",
"310 399 CURVE SMOOTH",
"379 399 OFFCURVE",
"418 353 OFFCURVE",
"418 263 CURVE SMOOTH",
"418 173 OFFCURVE",
"375 113 OFFCURVE",
"305 113 CURVE SMOOTH"
);
}
);
width = 635;
}
);
leftKerningGroup = o;
leftMetricsKey = o;
rightKerningGroup = u;
unicode = 0061;
userData = {
anchors = (
);
b = {
};
com.typemytype.robofont.layerData = {
b = {
anchors = (
);
components = (
);
contours = (
);
lib = {
};
name = p;
unicodes = (
);
width = 1181;
};
};
components = (
);
contours = (
);
lib = {
};
name = p;
unicodes = (
);
width = 1207;
};
},
{
glyphname = aogonek;
lastChange = "2016-09-21 08:56:34 +0000";
layers = (
{
background = {
paths = (
{
closed = 1;
nodes = (
"504 501 LINE",
"448 501 LINE",
"448 367 LINE",
"460 376 LINE",
"437 464 OFFCURVE",
"370 513 OFFCURVE",
"275 513 CURVE SMOOTH",
"142 513 OFFCURVE",
"52 409 OFFCURVE",
"52 251 CURVE SMOOTH",
"52 94 OFFCURVE",
"140 -7 OFFCURVE",
"275 -7 CURVE SMOOTH",
"370 -7 OFFCURVE",
"437 42 OFFCURVE",
"460 131 CURVE",
"448 114 LINE",
"448 0 LINE",
"466 0 LINE",
"487 39 LINE",
"404 26 OFFCURVE",
"353 -24 OFFCURVE",
"353 -91 CURVE SMOOTH",
"353 -154 OFFCURVE",
"401 -197 OFFCURVE",
"470 -197 CURVE SMOOTH",
"502 -197 OFFCURVE",
"531 -189 OFFCURVE",
"553 -174 CURVE",
"536 -134 LINE",
"514 -146 OFFCURVE",
"493 -153 OFFCURVE",
"475 -153 CURVE SMOOTH",
"432 -153 OFFCURVE",
"405 -127 OFFCURVE",
"405 -85 CURVE SMOOTH",
"405 -35 OFFCURVE",
"444 0 OFFCURVE",
"500 0 CURVE SMOOTH",
"504 0 LINE"
);
},
{
closed = 1;
nodes = (
"174 43 OFFCURVE",
"111 119 OFFCURVE",
"111 251 CURVE SMOOTH",
"111 384 OFFCURVE",
"174 463 OFFCURVE",
"280 463 CURVE SMOOTH",
"388 463 OFFCURVE",
"448 387 OFFCURVE",
"448 253 CURVE SMOOTH",
"448 120 OFFCURVE",
"388 43 OFFCURVE",
"281 43 CURVE SMOOTH"
);
}
);
};
layerId = "9E718F8A-2CEA-4931-B05D-987794BD97DA";
paths = (
{
closed = 1;
nodes = (
"524 501 LINE",
"468 501 LINE",
"458 367 LINE",
"472 375 LINE",
"452 462 OFFCURVE",
"381 513 OFFCURVE",
"286 513 CURVE SMOOTH",
"147 513 OFFCURVE",
"52 403 OFFCURVE",
"52 236 CURVE SMOOTH",
"52 88 OFFCURVE",
"138 -7 OFFCURVE",
"265 -7 CURVE SMOOTH",
"349 -7 OFFCURVE",
"427 41 OFFCURVE",
"450 121 CURVE",
"438 114 LINE",
"429 0 LINE",
"446 0 LINE",
"470 39 LINE",
"384 26 OFFCURVE",
"326 -23 OFFCURVE",
"326 -98 CURVE SMOOTH",
"326 -157 OFFCURVE",
"369 -197 OFFCURVE",
"437 -197 CURVE SMOOTH",
"469 -197 OFFCURVE",
"501 -186 OFFCURVE",
"520 -174 CURVE",
"506 -133 LINE",
"483 -147 OFFCURVE",
"460 -153 OFFCURVE",
"443 -153 CURVE SMOOTH",
"403 -153 OFFCURVE",
"379 -131 OFFCURVE",
"379 -89 CURVE SMOOTH",
"379 -32 OFFCURVE",
"425 0 OFFCURVE",
"475 0 CURVE SMOOTH",
"484 0 LINE"
);
},
{
closed = 1;
nodes = (
"392 463 OFFCURVE",
"450 397 OFFCURVE",
"450 275 CURVE SMOOTH",
"450 131 OFFCURVE",
"384 43 OFFCURVE",
"275 43 CURVE SMOOTH",
"171 43 OFFCURVE",
"111 113 OFFCURVE",
"111 232 CURVE SMOOTH",
"111 376 OFFCURVE",
"177 463 OFFCURVE",
"285 463 CURVE SMOOTH"
);
}
);
width = 589;
},
{
background = {
paths = (
{
closed = 1;
nodes = (
"576 507 LINE",
"417 507 LINE",
"417 404 LINE",
"429 412 LINE",
"406 477 OFFCURVE",
"339 520 OFFCURVE",
"258 520 CURVE SMOOTH",
"126 520 OFFCURVE",
"34 410 OFFCURVE",
"34 253 CURVE SMOOTH",
"34 96 OFFCURVE",
"124 -8 OFFCURVE",
"258 -8 CURVE SMOOTH",
"339 -8 OFFCURVE",
"406 33 OFFCURVE",
"429 99 CURVE",
"417 103 LINE",
"417 0 LINE",
"462 0 LINE",
"475 38 LINE",
"413 13 OFFCURVE",
"378 -32 OFFCURVE",
"378 -88 CURVE SMOOTH",
"378 -156 OFFCURVE",
"433 -204 OFFCURVE",
"510 -204 CURVE SMOOTH",
"547 -204 OFFCURVE",
"584 -196 OFFCURVE",
"615 -183 CURVE",
"597 -108 LINE",
"577 -117 OFFCURVE",
"559 -121 OFFCURVE",
"541 -121 CURVE SMOOTH",
"502 -121 OFFCURVE",
"480 -102 OFFCURVE",
"480 -66 CURVE SMOOTH",
"480 -27 OFFCURVE",
"515 0 OFFCURVE",
"566 0 CURVE SMOOTH",
"576 0 LINE"
);
},
{
closed = 1;
nodes = (
"234 114 OFFCURVE",
"194 163 OFFCURVE",
"194 253 CURVE SMOOTH",
"194 344 OFFCURVE",
"236 398 OFFCURVE",
"306 398 CURVE SMOOTH",
"377 398 OFFCURVE",
"417 347 OFFCURVE",
"417 255 CURVE SMOOTH",
"417 164 OFFCURVE",
"377 114 OFFCURVE",
"306 114 CURVE SMOOTH"
);
}
);
};
layerId = "E1B555A7-F4E1-459C-9C1A-AE952106EEF9";
paths = (
{
closed = 1;
nodes = (
"596 507 LINE",
"437 507 LINE",
"429 404 LINE",
"440 430 LINE",
"408 487 OFFCURVE",
"353 520 OFFCURVE",
"277 520 CURVE SMOOTH",
"132 520 OFFCURVE",
"34 403 OFFCURVE",
"34 236 CURVE SMOOTH",
"34 84 OFFCURVE",
"122 -8 OFFCURVE",
"250 -8 CURVE SMOOTH",
"326 -8 OFFCURVE",
"388 28 OFFCURVE",
"417 87 CURVE",
"405 101 LINE",
"397 0 LINE",
"442 0 LINE",
"459 34 LINE",
"393 13 OFFCURVE",
"351 -35 OFFCURVE",
"351 -94 CURVE SMOOTH",
"351 -158 OFFCURVE",
"405 -204 OFFCURVE",
"482 -204 CURVE SMOOTH",
"515 -204 OFFCURVE",
"549 -196 OFFCURVE",
"581 -183 CURVE",
"569 -108 LINE",
"546 -117 OFFCURVE",
"528 -121 OFFCURVE",
"510 -121 CURVE SMOOTH",
"477 -121 OFFCURVE",
"456 -102 OFFCURVE",
"456 -69 CURVE SMOOTH",
"456 -30 OFFCURVE",
"486 0 OFFCURVE",
"536 0 CURVE SMOOTH",
"556 0 LINE"
);
},
{
closed = 1;
nodes = (
"234 113 OFFCURVE",
"194 160 OFFCURVE",
"194 246 CURVE SMOOTH",
"194 340 OFFCURVE",
"238 399 OFFCURVE",
"310 399 CURVE SMOOTH",
"379 399 OFFCURVE",
"418 353 OFFCURVE",
"418 263 CURVE SMOOTH",
"418 173 OFFCURVE",
"375 113 OFFCURVE",
"305 113 CURVE SMOOTH"
);
}
);
width = 635;
}
);
leftKerningGroup = o;
leftMetricsKey = o;
widthMetricsKey = a;
rightKerningGroup = u;
unicode = 0105;
userData = {
com.typemytype.robofont.layerData = {
b = {
anchors = (
);
components = (
);
contours = (
);
lib = {
};
name = aogonek;
unicodes = (
);
width = 1040;
};
};
};
},
{
glyphname = aringacute;
lastChange = "2016-09-21 08:56:34 +0000";
layers = (
{
background = {
paths = (
{
closed = 1;
nodes = (
"370 -7 OFFCURVE",
"437 42 OFFCURVE",
"460 131 CURVE",
"448 139 LINE",
"448 0 LINE",
"504 0 LINE",
"504 501 LINE",
"448 501 LINE",
"448 367 LINE",
"460 376 LINE",
"437 464 OFFCURVE",
"370 513 OFFCURVE",
"275 513 CURVE SMOOTH",
"142 513 OFFCURVE",
"52 409 OFFCURVE",
"52 251 CURVE SMOOTH",
"52 94 OFFCURVE",
"140 -7 OFFCURVE",
"275 -7 CURVE SMOOTH"
);
},
{
closed = 1;
nodes = (
"174 43 OFFCURVE",
"111 119 OFFCURVE",
"111 251 CURVE SMOOTH",
"111 384 OFFCURVE",
"174 463 OFFCURVE",
"280 463 CURVE SMOOTH",
"388 463 OFFCURVE",
"448 387 OFFCURVE",
"448 253 CURVE SMOOTH",
"448 120 OFFCURVE",
"388 43 OFFCURVE",
"281 43 CURVE SMOOTH"
);
},
{
closed = 1;
nodes = (
"351 573 OFFCURVE",
"397 617 OFFCURVE",
"397 672 CURVE SMOOTH",
"397 728 OFFCURVE",
"351 772 OFFCURVE",
"295 772 CURVE SMOOTH",
"240 772 OFFCURVE",
"194 728 OFFCURVE",
"194 672 CURVE SMOOTH",
"194 617 OFFCURVE",
"240 573 OFFCURVE",
"295 573 CURVE SMOOTH"
);
},
{
closed = 1;
nodes = (
"265 619 OFFCURVE",
"244 643 OFFCURVE",
"244 672 CURVE SMOOTH",
"244 702 OFFCURVE",
"265 726 OFFCURVE",
"295 726 CURVE SMOOTH",
"325 726 OFFCURVE",
"347 702 OFFCURVE",
"347 672 CURVE SMOOTH",
"347 643 OFFCURVE",
"325 619 OFFCURVE",
"295 619 CURVE SMOOTH"
);
},
{
closed = 1;
nodes = (
"374 721 LINE",
"505 876 LINE",
"434 876 LINE",
"331 721 LINE"
);
}
);
};
layerId = "9E718F8A-2CEA-4931-B05D-987794BD97DA";
paths = (
{
closed = 1;
nodes = (
"349 -7 OFFCURVE",
"427 41 OFFCURVE",
"450 121 CURVE",
"440 139 LINE",
"429 0 LINE",
"484 0 LINE",
"524 501 LINE",
"468 501 LINE",
"458 367 LINE",
"472 375 LINE",
"452 462 OFFCURVE",
"381 513 OFFCURVE",
"286 513 CURVE SMOOTH",
"146 513 OFFCURVE",
"52 403 OFFCURVE",
"52 236 CURVE SMOOTH",
"52 88 OFFCURVE",
"137 -7 OFFCURVE",
"265 -7 CURVE SMOOTH"
);
},
{
closed = 1;
nodes = (
"170 43 OFFCURVE",
"111 113 OFFCURVE",
"111 232 CURVE SMOOTH",
"111 376 OFFCURVE",
"176 463 OFFCURVE",
"285 463 CURVE SMOOTH",
"392 463 OFFCURVE",
"450 397 OFFCURVE",
"450 275 CURVE SMOOTH",
"450 131 OFFCURVE",
"384 43 OFFCURVE",
"275 43 CURVE SMOOTH"
);
},
{
closed = 1;
nodes = (
"384 573 OFFCURVE",
"430 617 OFFCURVE",
"430 672 CURVE SMOOTH",
"430 728 OFFCURVE",
"384 772 OFFCURVE",
"328 772 CURVE SMOOTH",
"273 772 OFFCURVE",
"227 728 OFFCURVE",
"227 672 CURVE SMOOTH",
"227 617 OFFCURVE",
"273 573 OFFCURVE",
"328 573 CURVE SMOOTH"
);
},
{
closed = 1;
nodes = (
"299 619 OFFCURVE",
"277 643 OFFCURVE",
"277 672 CURVE SMOOTH",
"277 702 OFFCURVE",
"299 726 OFFCURVE",
"328 726 CURVE SMOOTH",
"358 726 OFFCURVE",
"380 702 OFFCURVE",
"380 672 CURVE SMOOTH",
"380 643 OFFCURVE",
"358 619 OFFCURVE",
"328 619 CURVE SMOOTH"
);
},
{
closed = 1;
nodes = (
"411 721 LINE",
"557 876 LINE",
"481 876 LINE",
"368 721 LINE"
);
}
);
width = 589;
},
{
background = {
paths = (
{
closed = 1;
nodes = (
"339 -8 OFFCURVE",
"406 33 OFFCURVE",
"429 99 CURVE",
"417 101 LINE",
"417 0 LINE",
"576 0 LINE",
"576 507 LINE",
"417 507 LINE",
"417 404 LINE",
"429 412 LINE",
"406 478 OFFCURVE",
"339 520 OFFCURVE",
"258 520 CURVE SMOOTH",
"127 520 OFFCURVE",
"34 412 OFFCURVE",
"34 253 CURVE SMOOTH",
"34 94 OFFCURVE",
"126 -8 OFFCURVE",
"258 -8 CURVE SMOOTH"
);
},
{
closed = 1;
nodes = (
"234 114 OFFCURVE",
"194 163 OFFCURVE",
"194 253 CURVE SMOOTH",
"194 345 OFFCURVE",
"236 398 OFFCURVE",
"306 398 CURVE SMOOTH",
"377 398 OFFCURVE",
"417 347 OFFCURVE",
"417 255 CURVE SMOOTH",
"417 164 OFFCURVE",
"377 114 OFFCURVE",
"306 114 CURVE SMOOTH"
);
},
{
closed = 1;
nodes = (
"380 568 OFFCURVE",
"431 617 OFFCURVE",
"431 680 CURVE SMOOTH",
"431 743 OFFCURVE",
"380 791 OFFCURVE",
"317 791 CURVE SMOOTH",
"254 791 OFFCURVE",
"204 743 OFFCURVE",
"204 680 CURVE SMOOTH",
"204 617 OFFCURVE",
"254 568 OFFCURVE",
"317 568 CURVE SMOOTH"
);
},
{
closed = 1;
nodes = (
"291 633 OFFCURVE",
"273 654 OFFCURVE",
"273 680 CURVE SMOOTH",
"273 706 OFFCURVE",
"291 726 OFFCURVE",
"317 726 CURVE SMOOTH",
"343 726 OFFCURVE",
"362 706 OFFCURVE",
"362 680 CURVE SMOOTH",
"362 654 OFFCURVE",
"343 633 OFFCURVE",
"317 633 CURVE SMOOTH"
);
},
{
closed = 1;
nodes = (
"577 882 LINE",
"430 882 LINE",
"348 763 LINE",
"413 717 LINE"
);
}
);
};
layerId = "E1B555A7-F4E1-459C-9C1A-AE952106EEF9";
paths = (
{
closed = 1;
nodes = (
"326 -8 OFFCURVE",
"388 28 OFFCURVE",
"417 87 CURVE",
"405 101 LINE",
"397 0 LINE",
"556 0 LINE",
"596 507 LINE",
"437 507 LINE",
"429 404 LINE",
"440 430 LINE",
"408 487 OFFCURVE",
"353 520 OFFCURVE",
"277 520 CURVE SMOOTH",
"132 520 OFFCURVE",
"34 403 OFFCURVE",
"34 236 CURVE SMOOTH",
"34 84 OFFCURVE",
"122 -8 OFFCURVE",
"250 -8 CURVE SMOOTH"
);
},
{
closed = 1;
nodes = (
"234 113 OFFCURVE",
"194 160 OFFCURVE",
"194 246 CURVE SMOOTH",
"194 340 OFFCURVE",
"238 399 OFFCURVE",
"310 399 CURVE SMOOTH",
"379 399 OFFCURVE",
"418 353 OFFCURVE",
"418 263 CURVE SMOOTH",
"418 173 OFFCURVE",
"375 113 OFFCURVE",
"305 113 CURVE SMOOTH"
);
},
{
closed = 1;
nodes = (
"405 568 OFFCURVE",
"460 617 OFFCURVE",
"465 680 CURVE SMOOTH",
"470 743 OFFCURVE",
"422 791 OFFCURVE",
"359 791 CURVE SMOOTH",
"296 791 OFFCURVE",
"243 743 OFFCURVE",
"238 680 CURVE SMOOTH",
"232 617 OFFCURVE",
"279 568 OFFCURVE",
"342 568 CURVE SMOOTH"
);
},
{
closed = 1;
nodes = (
"321 633 OFFCURVE",
"305 654 OFFCURVE",
"307 680 CURVE SMOOTH",
"309 706 OFFCURVE",
"328 726 OFFCURVE",
"354 726 CURVE SMOOTH",
"380 726 OFFCURVE",
"398 706 OFFCURVE",
"396 680 CURVE SMOOTH",
"394 654 OFFCURVE",
"373 633 OFFCURVE",
"347 633 CURVE SMOOTH"
);
},
{
closed = 1;
nodes = (
"631 882 LINE",
"475 882 LINE",
"388 763 LINE",
"450 717 LINE"
);
}
);
width = 635;
}
);
leftKerningGroup = o;
leftMetricsKey = o;
widthMetricsKey = a;
rightKerningGroup = u;
unicode = 01FB;
},
{
color = 4;
glyphname = ae;
lastChange = "2016-09-21 08:56:34 +0000";
layers = (
{
anchors = (
{
name = bottom;
position = "{416, 0}";
},
{
name = top;
position = "{457, 506}";
}
);
background = {
anchors = (
{
name = bottom;
position = "{1326, 0}";
},
{
name = top;
position = "{1407, 506}";
}
);
paths = (
{
closed = 1;
nodes = (
"693 -7 OFFCURVE",
"770 21 OFFCURVE",
"815 62 CURVE",
"795 106 LINE",
"741 64 OFFCURVE",
"685 43 OFFCURVE",
"629 43 CURVE SMOOTH",
"512 43 OFFCURVE",
"453 118 OFFCURVE",
"464 254 CURVE SMOOTH",
"474 385 OFFCURVE",
"545 466 OFFCURVE",
"651 466 CURVE SMOOTH",
"751 466 OFFCURVE",
"801 394 OFFCURVE",
"787 264 CURVE",
"811 304 LINE",
"447 304 LINE",
"445 259 LINE",
"839 259 LINE",
"840 270 LINE SMOOTH",
"851 422 OFFCURVE",
"783 513 OFFCURVE",
"655 513 CURVE SMOOTH",
"521 513 OFFCURVE",
"420 405 OFFCURVE",
"413 249 CURVE SMOOTH",
"406 87 OFFCURVE",
"483 -7 OFFCURVE",
"626 -7 CURVE SMOOTH"
);
},
{
closed = 1;
nodes = (
"337 -7 OFFCURVE",
"415 64 OFFCURVE",
"436 177 CURVE",
"456 177 LINE",
"468 330 LINE",
"477 451 OFFCURVE",
"422 513 OFFCURVE",
"304 513 CURVE SMOOTH",
"236 513 OFFCURVE",
"158 490 OFFCURVE",
"104 452 CURVE",
"124 408 LINE",
"187 445 OFFCURVE",
"243 463 OFFCURVE",
"304 463 CURVE SMOOTH",
"388 463 OFFCURVE",
"420 421 OFFCURVE",
"413 324 CURVE SMOOTH",
"404 215 LINE SMOOTH",
"397 114 OFFCURVE",
"325 43 OFFCURVE",
"234 43 CURVE SMOOTH",
"163 43 OFFCURVE",
"116 86 OFFCURVE",
"121 152 CURVE SMOOTH",
"126 228 OFFCURVE",
"185 259 OFFCURVE",
"368 259 CURVE SMOOTH",
"419 259 LINE",
"422 304 LINE",
"369 304 LINE SMOOTH",
"148 304 OFFCURVE",
"68 258 OFFCURVE",
"60 147 CURVE SMOOTH",
"54 56 OFFCURVE",
"126 -7 OFFCURVE",
"227 -7 CURVE SMOOTH"
);
}
);
};
layerId = "9E718F8A-2CEA-4931-B05D-987794BD97DA";
paths = (
{
closed = 1;
nodes = (
"337 -7 OFFCURVE",
"418 64 OFFCURVE",
"439 177 CURVE",
"456 177 LINE",
"469 324 LINE",
"478 447 OFFCURVE",
"425 513 OFFCURVE",
"300 513 CURVE SMOOTH",
"231 513 OFFCURVE",
"154 490 OFFCURVE",
"104 453 CURVE",
"124 408 LINE",
"184 446 OFFCURVE",
"241 463 OFFCURVE",
"300 463 CURVE SMOOTH",
"386 463 OFFCURVE",
"421 419 OFFCURVE",
"413 325 CURVE SMOOTH",
"404 215 LINE SMOOTH",
"396 114 OFFCURVE",
"325 43 OFFCURVE",
"234 43 CURVE SMOOTH",
"164 43 OFFCURVE",
"120 82 OFFCURVE",
"120 139 CURVE SMOOTH",
"120 212 OFFCURVE",
"160 259 OFFCURVE",
"363 259 CURVE SMOOTH",
"418 259 LINE",
"421 304 LINE",
"359 304 LINE SMOOTH",
"142 304 OFFCURVE",
"60 246 OFFCURVE",
"60 136 CURVE SMOOTH",
"60 52 OFFCURVE",
"130 -7 OFFCURVE",
"229 -7 CURVE SMOOTH"
);
},
{
closed = 1;
nodes = (
"696 -7 OFFCURVE",
"776 19 OFFCURVE",
"817 60 CURVE",
"797 104 LINE",
"747 62 OFFCURVE",
"686 43 OFFCURVE",
"635 43 CURVE SMOOTH",
"522 43 OFFCURVE",
"463 116 OFFCURVE",
"463 231 CURVE SMOOTH",
"463 377 OFFCURVE",
"529 466 OFFCURVE",
"649 466 CURVE SMOOTH",
"742 466 OFFCURVE",
"803 400 OFFCURVE",
"788 280 CURVE",
"811 304 LINE",
"446 304 LINE",
"444 259 LINE",
"840 259 LINE",
"858 427 OFFCURVE",
"776 513 OFFCURVE",
"646 513 CURVE SMOOTH",
"498 513 OFFCURVE",
"413 401 OFFCURVE",
"413 234 CURVE SMOOTH",
"413 88 OFFCURVE",
"491 -7 OFFCURVE",
"635 -7 CURVE SMOOTH"
);
}
);
width = 887;
},
{
anchors = (
{
name = bottom;
position = "{411, 0}";
},
{
name = top;
position = "{451, 511}";
}
);
background = {
paths = (
{
closed = 1;
nodes = (
"696 -8 OFFCURVE",
"773 15 OFFCURVE",
"822 54 CURVE",
"780 161 LINE",
"735 129 OFFCURVE",
"682 112 OFFCURVE",
"636 112 CURVE SMOOTH",
"542 112 OFFCURVE",
"507 168 OFFCURVE",
"507 251 CURVE SMOOTH",
"507 364 OFFCURVE",
"543 409 OFFCURVE",
"608 409 CURVE SMOOTH",
"664 409 OFFCURVE",
"695 366 OFFCURVE",
"695 287 CURVE",
"734 318 LINE",
"497 318 LINE",
"496 239 LINE",
"831 239 LINE",
"831 262 LINE SMOOTH",
"831 416 OFFCURVE",
"742 520 OFFCURVE",
"612 520 CURVE SMOOTH",
"470 520 OFFCURVE",
"375 413 OFFCURVE",
"375 255 CURVE SMOOTH",
"375 87 OFFCURVE",
"466 -8 OFFCURVE",
"625 -8 CURVE SMOOTH"
);
},
{
closed = 1;
nodes = (
"359 -8 OFFCURVE",
"439 67 OFFCURVE",
"439 199 CURVE",
"491 209 LINE",
"491 299 LINE SMOOTH",
"491 450 OFFCURVE",
"426 520 OFFCURVE",
"284 520 CURVE SMOOTH",
"211 520 OFFCURVE",
"116 493 OFFCURVE",
"59 457 CURVE",
"101 349 LINE",
"155 381 OFFCURVE",
"220 400 OFFCURVE",
"275 400 CURVE SMOOTH",
"331 400 OFFCURVE",
"354 376 OFFCURVE",
"354 320 CURVE SMOOTH",
"354 209 LINE SMOOTH",
"354 149 OFFCURVE",
"324 102 OFFCURVE",
"263 102 CURVE SMOOTH",
"222 102 OFFCURVE",
"193 127 OFFCURVE",
"193 165 CURVE SMOOTH",
"193 214 OFFCURVE",
"231 241 OFFCURVE",
"326 241 CURVE SMOOTH",
"361 241 LINE",
"361 318 LINE",
"317 318 LINE SMOOTH",
"116 318 OFFCURVE",
"38 269 OFFCURVE",
"38 159 CURVE SMOOTH",
"38 59 OFFCURVE",
"124 -8 OFFCURVE",
"242 -8 CURVE SMOOTH"
);
}
);
};
layerId = "E1B555A7-F4E1-459C-9C1A-AE952106EEF9";
paths = (
{
closed = 1;
nodes = (
"339 -8 OFFCURVE",
"435 67 OFFCURVE",
"445 199 CURVE",
"488 209 LINE",
"495 299 LINE SMOOTH",
"505 428 OFFCURVE",
"457 520 OFFCURVE",
"305 520 CURVE SMOOTH",
"224 520 OFFCURVE",
"131 494 OFFCURVE",
"75 457 CURVE",
"109 349 LINE",
"161 380 OFFCURVE",
"224 400 OFFCURVE",
"273 400 CURVE SMOOTH",
"337 400 OFFCURVE",
"364 374 OFFCURVE",
"359 315 CURVE SMOOTH",
"351 209 LINE SMOOTH",
"346 146 OFFCURVE",
"305 102 OFFCURVE",
"252 102 CURVE SMOOTH",
"213 102 OFFCURVE",
"187 124 OFFCURVE",
"187 166 CURVE SMOOTH",
"187 222 OFFCURVE",
"223 241 OFFCURVE",
"316 241 CURVE SMOOTH",
"358 241 LINE",
"365 318 LINE",
"313 318 LINE SMOOTH",
"113 318 OFFCURVE",
"31 268 OFFCURVE",
"31 147 CURVE SMOOTH",
"31 55 OFFCURVE",
"105 -8 OFFCURVE",
"221 -8 CURVE SMOOTH"
);
},
{
closed = 1;
nodes = (
"689 -8 OFFCURVE",
"762 15 OFFCURVE",
"807 54 CURVE",
"773 161 LINE",
"728 129 OFFCURVE",
"681 112 OFFCURVE",
"630 112 CURVE SMOOTH",
"551 112 OFFCURVE",
"507 155 OFFCURVE",
"507 245 CURVE SMOOTH",
"507 361 OFFCURVE",
"547 409 OFFCURVE",
"617 409 CURVE SMOOTH",
"666 409 OFFCURVE",
"702 372 OFFCURVE",
"698 287 CURVE",
"739 318 LINE",
"501 318 LINE",
"494 239 LINE",
"828 239 LINE",
"850 418 OFFCURVE",
"754 520 OFFCURVE",
"619 520 CURVE SMOOTH",
"476 520 OFFCURVE",
"374 406 OFFCURVE",
"374 241 CURVE SMOOTH",
"374 90 OFFCURVE",
"462 -8 OFFCURVE",
"618 -8 CURVE SMOOTH"
);
}
);
width = 864;
}
);
leftKerningGroup = a;
rightKerningGroup = e;
rightMetricsKey = e;
unicode = 00E6;
userData = {
com.typemytype.robofont.layerData = {
b = {
anchors = (
);
components = (
);
contours = (
);
lib = {
};
name = ae;
unicodes = (
);
width = 1734;
};
};
};
},
{
glyphname = b;
lastChange = "2016-09-21 08:56:34 +0000";
layers = (
{
anchors = (
{
name = bottom;
position = "{291, 0}";
},
{
name = top;
position = "{335, 506}";
}
);
background = {
anchors = (
{
name = bottom;
position = "{291, 0}";
},
{
name = top;
position = "{335, 506}";
}
);
paths = (
{
closed = 1;
nodes = (
"140 0 LINE",
"140 139 LINE",
"129 131 LINE",
"152 42 OFFCURVE",
"219 -7 OFFCURVE",
"314 -7 CURVE SMOOTH",
"447 -7 OFFCURVE",
"537 97 OFFCURVE",
"537 255 CURVE SMOOTH",
"537 412 OFFCURVE",
"448 513 OFFCURVE",
"314 513 CURVE SMOOTH",
"219 513 OFFCURVE",
"152 464 OFFCURVE",
"129 375 CURVE",
"140 367 LINE",
"140 728 LINE",
"85 728 LINE",
"85 0 LINE"
);
},
{
closed = 1;
nodes = (
"200 43 OFFCURVE",
"140 120 OFFCURVE",
"140 253 CURVE SMOOTH",
"140 386 OFFCURVE",
"200 463 OFFCURVE",
"308 463 CURVE SMOOTH",
"415 463 OFFCURVE",
"478 387 OFFCURVE",
"478 255 CURVE SMOOTH",
"478 122 OFFCURVE",
"415 43 OFFCURVE",
"309 43 CURVE SMOOTH"
);
}
);
};
layerId = "9E718F8A-2CEA-4931-B05D-987794BD97DA";
paths = (
{
closed = 1;
nodes = (
"443 -7 OFFCURVE",
"538 103 OFFCURVE",
"538 271 CURVE SMOOTH",
"538 418 OFFCURVE",
"451 513 OFFCURVE",
"324 513 CURVE SMOOTH",
"241 513 OFFCURVE",
"163 465 OFFCURVE",
"139 385 CURVE",
"150 367 LINE",
"179 728 LINE",
"123 728 LINE",
"65 0 LINE",
"121 0 LINE",
"132 139 LINE",
"118 131 LINE",
"137 44 OFFCURVE",
"209 -7 OFFCURVE",
"304 -7 CURVE SMOOTH"
);
},
{
closed = 1;
nodes = (
"198 43 OFFCURVE",
"139 109 OFFCURVE",
"139 231 CURVE SMOOTH",
"139 375 OFFCURVE",
"206 463 OFFCURVE",
"315 463 CURVE SMOOTH",
"418 463 OFFCURVE",
"479 394 OFFCURVE",
"479 274 CURVE SMOOTH",
"479 130 OFFCURVE",
"413 43 OFFCURVE",
"305 43 CURVE SMOOTH"
);
}
);
width = 589;
},
{
anchors = (
{
name = bottom;
position = "{299, 0}";
},
{
name = top;
position = "{398, 511}";
}
);
background = {
paths = (
{
closed = 1;
nodes = (
"218 0 LINE",
"218 122 LINE",
"207 99 LINE",
"229 33 OFFCURVE",
"296 -8 OFFCURVE",
"377 -8 CURVE SMOOTH",
"508 -8 OFFCURVE",
"601 99 OFFCURVE",
"601 258 CURVE SMOOTH",
"601 417 OFFCURVE",
"509 520 OFFCURVE",
"377 520 CURVE SMOOTH",
"296 520 OFFCURVE",
"229 478 OFFCURVE",
"207 412 CURVE",
"220 393 LINE",
"220 728 LINE",
"59 728 LINE",
"59 0 LINE"
);
},
{
closed = 1;
nodes = (
"258 114 OFFCURVE",
"218 164 OFFCURVE",
"218 256 CURVE SMOOTH",
"218 347 OFFCURVE",
"258 398 OFFCURVE",
"330 398 CURVE SMOOTH",
"401 398 OFFCURVE",
"441 348 OFFCURVE",
"441 258 CURVE SMOOTH",
"441 166 OFFCURVE",
"400 114 OFFCURVE",
"330 114 CURVE SMOOTH"
);
}
);
};
layerId = "E1B555A7-F4E1-459C-9C1A-AE952106EEF9";
paths = (
{
closed = 1;
nodes = (
"504 -8 OFFCURVE",
"602 108 OFFCURVE",
"602 276 CURVE SMOOTH",
"602 428 OFFCURVE",
"514 520 OFFCURVE",
"386 520 CURVE SMOOTH",
"310 520 OFFCURVE",
"248 483 OFFCURVE",
"219 425 CURVE",
"230 393 LINE",
"257 728 LINE",
"96 728 LINE",
"39 0 LINE",
"198 0 LINE",
"208 122 LINE",
"196 82 LINE",
"228 25 OFFCURVE",
"283 -8 OFFCURVE",
"359 -8 CURVE SMOOTH"
);
},
{
closed = 1;
nodes = (
"257 113 OFFCURVE",
"218 158 OFFCURVE",
"218 248 CURVE SMOOTH",
"218 339 OFFCURVE",
"261 399 OFFCURVE",
"332 399 CURVE SMOOTH",
"402 399 OFFCURVE",
"442 351 OFFCURVE",
"442 265 CURVE SMOOTH",
"442 171 OFFCURVE",
"399 113 OFFCURVE",
"326 113 CURVE SMOOTH"
);
}
);
width = 635;
}
);
leftKerningGroup = h;
rightKerningGroup = o;
rightMetricsKey = o;
unicode = 0062;
userData = {
anchors = (
);
b = {
};
com.typemytype.robofont.layerData = {
b = {
anchors = (
);
components = (
);
contours = (
{
points = (
{
segmentType = curve;
smooth = 1;
x = 238;
y = 1425;
},
{
smooth = 0;
x = 198;
y = 1425;
},
{
smooth = 0;
x = 158;
y = 1400;
},
{
segmentType = curve;
smooth = 1;
x = 158;
y = 1351;
},
{
segmentType = line;
smooth = 1;
x = 158;
y = 76;
},
{
smooth = 0;
x = 158;
y = 27;
},
{
smooth = 0;
x = 197;
y = 3;
},
{
segmentType = curve;
smooth = 1;
x = 237;
y = 3;
},
{
smooth = 0;
x = 297;
y = 3;
},
{
smooth = 0;
x = 318;
y = 38;
},
{
segmentType = curve;
smooth = 1;
x = 318;
y = 76;
},
{
segmentType = line;
smooth = 0;
x = 318;
y = 183;
},
{
smooth = 0;
x = 384;
y = 46;
},
{
smooth = 0;
x = 516;
y = "-20";
},
{
segmentType = curve;
smooth = 1;
x = 666;
y = "-20";
},
{
smooth = 0;
x = 957;
y = "-20";
},
{
smooth = 0;
x = 1095;
y = 225;
},
{
segmentType = curve;
smooth = 1;
x = 1095;
y = 502;
},
{
smooth = 0;
x = 1095;
y = 777;
},
{
smooth = 0;
x = 939;
y = 1013;
},
{
segmentType = curve;
smooth = 1;
x = 650;
y = 1013;
},
{
smooth = 0;
x = 503;
y = 1013;
},
{
smooth = 0;
x = 376;
y = 942;
},
{
segmentType = curve;
smooth = 0;
x = 318;
y = 814;
},
{
segmentType = line;
smooth = 1;
x = 318;
y = 1351;
},
{
smooth = 0;
x = 318;
y = 1400;
},
{
smooth = 0;
x = 278;
y = 1425;
}
);
},
{
points = (
{
segmentType = curve;
smooth = 1;
x = 632;
y = 903;
},
{
smooth = 0;
x = 859;
y = 903;
},
{
smooth = 0;
x = 935;
y = 685;
},
{
segmentType = curve;
smooth = 1;
x = 935;
y = 496;
},
{
smooth = 0;
x = 935;
y = 316;
},
{
smooth = 0;
x = 869;
y = 93;
},
{
segmentType = curve;
smooth = 0;
x = 645;
y = 90;
},
{
smooth = 0;
x = 395;
y = 90;
},
{
smooth = 0;
x = 319;
y = 279;
},
{
segmentType = curve;
smooth = 1;
x = 319;
y = 501;
},
{
smooth = 0;
x = 319;
y = 701;
},
{
smooth = 0;
x = 407;
y = 903;
}
);
}
);
lib = {
};
name = b;
unicodes = (
);
width = 1181;
};
};
components = (
);
contours = (
);
lib = {
};
name = b;
unicodes = (
);
width = 1203;
};
},
{
glyphname = c;
lastChange = "2016-09-21 08:56:34 +0000";
layers = (
{
anchors = (
{
name = bottom;
position = "{262, 0}";
},
{
name = top;
position = "{305, 506}";
}
);
background = {
anchors = (
{
name = bottom;
position = "{262, 0}";
},
{
name = top;
position = "{345, 506}";
}
);
paths = (
{
closed = 1;
nodes = (
"351 -7 OFFCURVE",
"418 19 OFFCURVE",
"460 60 CURVE",
"437 104 LINE",
"385 62 OFFCURVE",
"340 43 OFFCURVE",
"288 43 CURVE SMOOTH",
"178 43 OFFCURVE",
"111 120 OFFCURVE",
"111 251 CURVE SMOOTH",
"111 383 OFFCURVE",
"179 463 OFFCURVE",
"289 463 CURVE SMOOTH",
"340 463 OFFCURVE",
"385 444 OFFCURVE",
"437 402 CURVE",
"460 446 LINE",
"420 488 OFFCURVE",
"354 513 OFFCURVE",
"287 513 CURVE SMOOTH",
"144 513 OFFCURVE",
"52 408 OFFCURVE",
"52 251 CURVE SMOOTH",
"52 96 OFFCURVE",
"143 -7 OFFCURVE",
"285 -7 CURVE SMOOTH"
);
}
);
};
layerId = "9E718F8A-2CEA-4931-B05D-987794BD97DA";
paths = (
{
closed = 1;
nodes = (
"341 -7 OFFCURVE",
"404 19 OFFCURVE",
"445 60 CURVE",
"426 104 LINE",
"375 62 OFFCURVE",
"334 43 OFFCURVE",
"279 43 CURVE SMOOTH",
"169 43 OFFCURVE",
"111 116 OFFCURVE",
"111 231 CURVE SMOOTH",
"111 375 OFFCURVE",
"177 463 OFFCURVE",
"295 463 CURVE SMOOTH",
"352 463 OFFCURVE",
"397 444 OFFCURVE",
"449 402 CURVE",
"475 446 LINE",
"432 488 OFFCURVE",
"369 513 OFFCURVE",
"298 513 CURVE SMOOTH",
"146 513 OFFCURVE",
"52 402 OFFCURVE",
"52 234 CURVE SMOOTH",
"52 88 OFFCURVE",
"138 -7 OFFCURVE",
"273 -7 CURVE SMOOTH"
);
}
);
width = 489;
},
{
anchors = (
{
name = bottom;
position = "{276, 0}";
},
{
name = top;
position = "{325, 511}";
}
);
background = {
anchors = (
{
name = bottom;
position = "{295, 0}";
},
{
name = top;
position = "{385, 511}";
}
);
paths = (
{
closed = 1;
nodes = (
"381 -8 OFFCURVE",
"457 15 OFFCURVE",
"502 54 CURVE",
"460 164 LINE",
"421 133 OFFCURVE",
"370 115 OFFCURVE",
"325 115 CURVE SMOOTH",
"246 115 OFFCURVE",
"199 162 OFFCURVE",
"199 256 CURVE SMOOTH",
"199 350 OFFCURVE",
"247 397 OFFCURVE",
"325 397 CURVE SMOOTH",
"370 397 OFFCURVE",
"421 378 OFFCURVE",
"460 347 CURVE",
"502 458 LINE",
"459 496 OFFCURVE",
"383 520 OFFCURVE",
"310 520 CURVE SMOOTH",
"144 520 OFFCURVE",
"34 413 OFFCURVE",
"34 253 CURVE SMOOTH",
"34 93 OFFCURVE",
"135 -8 OFFCURVE",
"303 -8 CURVE SMOOTH"
);
}
);
};
layerId = "E1B555A7-F4E1-459C-9C1A-AE952106EEF9";
paths = (
{
closed = 1;
nodes = (
"371 -8 OFFCURVE",
"440 14 OFFCURVE",
"487 54 CURVE",
"453 164 LINE",
"410 133 OFFCURVE",
"366 115 OFFCURVE",
"314 115 CURVE SMOOTH",
"245 115 OFFCURVE",
"199 158 OFFCURVE",
"199 243 CURVE SMOOTH",
"199 341 OFFCURVE",
"247 397 OFFCURVE",
"328 397 CURVE SMOOTH",
"375 397 OFFCURVE",
"424 379 OFFCURVE",
"467 347 CURVE",
"519 458 LINE",
"470 496 OFFCURVE",
"404 520 OFFCURVE",
"319 520 CURVE SMOOTH",
"147 520 OFFCURVE",
"34 415 OFFCURVE",
"34 240 CURVE SMOOTH",
"34 91 OFFCURVE",
"137 -8 OFFCURVE",
"303 -8 CURVE SMOOTH"
);
}
);
width = 511;
}
);
leftKerningGroup = o;
leftMetricsKey = o;
rightKerningGroup = c;
unicode = 0063;
userData = {
anchors = (
);
b = {
};
com.typemytype.robofont.layerData = {
b = {
anchors = (
);
components = (
);
contours = (
);
lib = {
};
name = c;
unicodes = (
);
width = 956.1410;
};
};
components = (
);
contours = (
);
lib = {
};
name = c;
unicodes = (
);
width = 992;
};
},
{
glyphname = d;
lastChange = "2016-09-21 08:56:34 +0000";
layers = (
{
anchors = (
{
name = bottom;
position = "{277, 0}";
},
{
name = center;
position = "{296, 253}";
},
{
name = top;
position = "{317, 506}";
},
{
name = topright;
position = "{583, 728}";
}
);
background = {
anchors = (
{
name = bottom;
position = "{277, 0}";
},
{
name = center;
position = "{296, 253}";
},
{
name = top;
position = "{317, 506}";
},
{
name = topright;
position = "{583, 728}";
}
);
paths = (
{
closed = 1;
nodes = (
"504 728 LINE",
"448 728 LINE",
"448 367 LINE",
"460 375 LINE",
"437 464 OFFCURVE",
"370 513 OFFCURVE",
"275 513 CURVE SMOOTH",
"140 513 OFFCURVE",
"52 412 OFFCURVE",
"52 255 CURVE SMOOTH",
"52 97 OFFCURVE",
"142 -7 OFFCURVE",
"275 -7 CURVE SMOOTH",
"370 -7 OFFCURVE",
"437 42 OFFCURVE",
"460 131 CURVE",
"448 139 LINE",
"448 0 LINE",
"504 0 LINE"
);
},
{
closed = 1;
nodes = (
"174 43 OFFCURVE",
"111 122 OFFCURVE",
"111 255 CURVE SMOOTH",
"111 387 OFFCURVE",
"174 463 OFFCURVE",
"281 463 CURVE SMOOTH",
"388 463 OFFCURVE",
"448 386 OFFCURVE",
"448 253 CURVE SMOOTH",
"448 120 OFFCURVE",
"388 43 OFFCURVE",
"280 43 CURVE SMOOTH"
);
}
);
};
layerId = "9E718F8A-2CEA-4931-B05D-987794BD97DA";
paths = (
{
closed = 1;
nodes = (
"349 -7 OFFCURVE",
"427 41 OFFCURVE",
"450 121 CURVE",
"440 139 LINE",
"429 0 LINE",
"484 0 LINE",
"541 728 LINE",
"486 728 LINE",
"458 367 LINE",
"472 375 LINE",
"452 462 OFFCURVE",
"381 513 OFFCURVE",
"286 513 CURVE SMOOTH",
"147 513 OFFCURVE",
"52 403 OFFCURVE",
"52 234 CURVE SMOOTH",
"52 88 OFFCURVE",
"138 -7 OFFCURVE",
"265 -7 CURVE SMOOTH"
);
},
{
closed = 1;
nodes = (
"171 43 OFFCURVE",
"111 113 OFFCURVE",
"111 234 CURVE SMOOTH",
"111 376 OFFCURVE",
"177 463 OFFCURVE",
"285 463 CURVE SMOOTH",
"392 463 OFFCURVE",
"450 397 OFFCURVE",
"450 275 CURVE SMOOTH",
"450 131 OFFCURVE",
"384 43 OFFCURVE",
"275 43 CURVE SMOOTH"
);
}
);
width = 589;
},
{
anchors = (
{
name = bottom;
position = "{299, 0}";
},
{
name = center;
position = "{319, 256}";
},
{
name = top;
position = "{339, 511}";
},
{
name = topright;
position = "{639, 728}";
}
);
background = {
paths = (
{
closed = 1;
nodes = (
"576 728 LINE",
"415 728 LINE",
"415 393 LINE",
"429 412 LINE",
"406 478 OFFCURVE",
"339 520 OFFCURVE",
"258 520 CURVE SMOOTH",
"126 520 OFFCURVE",
"34 417 OFFCURVE",
"34 258 CURVE SMOOTH",
"34 99 OFFCURVE",
"127 -8 OFFCURVE",
"258 -8 CURVE SMOOTH",
"339 -8 OFFCURVE",
"406 33 OFFCURVE",
"429 99 CURVE",
"417 122 LINE",
"417 0 LINE",
"576 0 LINE"
);
},
{
closed = 1;
nodes = (
"236 114 OFFCURVE",
"194 166 OFFCURVE",
"194 258 CURVE SMOOTH",
"194 348 OFFCURVE",
"234 398 OFFCURVE",
"306 398 CURVE SMOOTH",
"377 398 OFFCURVE",
"417 347 OFFCURVE",
"417 256 CURVE SMOOTH",
"417 164 OFFCURVE",
"377 114 OFFCURVE",
"306 114 CURVE SMOOTH"
);
}
);
};
guideLines = (
{
angle = 89.3795;
position = "{276, 256}";
}
);
layerId = "E1B555A7-F4E1-459C-9C1A-AE952106EEF9";
paths = (
{
closed = 1;
nodes = (
"326 -8 OFFCURVE",
"388 28 OFFCURVE",
"417 87 CURVE",
"406 122 LINE",
"397 0 LINE",
"556 0 LINE",
"614 728 LINE",
"452 728 LINE",
"426 393 LINE",
"440 430 LINE",
"408 487 OFFCURVE",
"353 520 OFFCURVE",
"277 520 CURVE SMOOTH",
"132 520 OFFCURVE",
"34 403 OFFCURVE",
"34 236 CURVE SMOOTH",
"34 84 OFFCURVE",
"122 -8 OFFCURVE",
"250 -8 CURVE SMOOTH"
);
},
{
closed = 1;
nodes = (
"234 113 OFFCURVE",
"194 160 OFFCURVE",
"194 246 CURVE SMOOTH",
"194 340 OFFCURVE",
"238 399 OFFCURVE",
"310 399 CURVE SMOOTH",
"379 399 OFFCURVE",
"418 353 OFFCURVE",
"418 263 CURVE SMOOTH",
"418 173 OFFCURVE",
"375 113 OFFCURVE",
"305 113 CURVE SMOOTH"
);
}
);
width = 635;
}
);
leftKerningGroup = o;
leftMetricsKey = o;
rightKerningGroup = l;
unicode = 0064;
userData = {
anchors = (
);
b = {
};
com.typemytype.robofont.layerData = {
b = {
anchors = (
);
components = (
);
contours = (
);
lib = {
};
name = d;
unicodes = (
);
width = 1181;
};
};
components = (
);
contours = (
);
lib = {
};
name = d;
unicodes = (
);
width = 1207;
};
},
{
glyphname = eth;
lastChange = "2016-09-21 08:57:46 +0000";
layers = (
{
background = {
paths = (
{
closed = 1;
nodes = (
"432 -7 OFFCURVE",
"511 95 OFFCURVE",
"511 293 CURVE SMOOTH",
"511 519 OFFCURVE",
"398 669 OFFCURVE",
"181 734 CURVE",
"165 690 LINE",
"356 633 OFFCURVE",
"459 497 OFFCURVE",
"457 301 CURVE",
"483 299 LINE",
"461 410 OFFCURVE",
"390 470 OFFCURVE",
"280 470 CURVE SMOOTH",
"143 470 OFFCURVE",
"52 376 OFFCURVE",
"52 231 CURVE SMOOTH",
"52 87 OFFCURVE",
"142 -7 OFFCURVE",
"279 -7 CURVE SMOOTH"
);
},
{
closed = 1;
nodes = (
"171 43 OFFCURVE",
"111 111 OFFCURVE",
"111 231 CURVE SMOOTH",
"111 350 OFFCURVE",
"174 419 OFFCURVE",
"280 419 CURVE SMOOTH",
"386 419 OFFCURVE",
"449 350 OFFCURVE",
"449 231 CURVE SMOOTH",
"449 114 OFFCURVE",
"385 43 OFFCURVE",
"279 43 CURVE SMOOTH"
);
},
{
closed = 1;
nodes = (
"509 652 LINE",
"494 694 LINE",
"173 566 LINE",
"188 524 LINE"
);
}
);
};
guideLines = (
{
angle = 90;
position = "{155, 512}";
},
{
angle = 90;
position = "{494, 512}";
}
);
layerId = "9E718F8A-2CEA-4931-B05D-987794BD97DA";
paths = (
{
closed = 1;
nodes = (
"415 -7 OFFCURVE",
"517 94 OFFCURVE",
"517 333 CURVE SMOOTH",
"517 538 OFFCURVE",
"414 675 OFFCURVE",
"219 734 CURVE",
"200 692 LINE",
"394 632 OFFCURVE",
"480 488 OFFCURVE",
"463 301 CURVE",
"477 319 LINE",
"470 405 OFFCURVE",
"397 470 OFFCURVE",
"285 470 CURVE SMOOTH",
"144 470 OFFCURVE",
"50 368 OFFCURVE",
"50 215 CURVE SMOOTH",
"50 80 OFFCURVE",
"136 -7 OFFCURVE",
"271 -7 CURVE SMOOTH"
);
},
{
closed = 1;
nodes = (
"167 43 OFFCURVE",
"108 102 OFFCURVE",
"108 212 CURVE SMOOTH",
"108 341 OFFCURVE",
"175 419 OFFCURVE",
"284 419 CURVE SMOOTH",
"387 419 OFFCURVE",
"449 357 OFFCURVE",
"449 254 CURVE SMOOTH",
"449 121 OFFCURVE",
"382 43 OFFCURVE",
"274 43 CURVE SMOOTH"
);
},
{
closed = 1;
nodes = (
"541 652 LINE",
"529 694 LINE",
"197 566 LINE",
"210 524 LINE"
);
}
);
width = 563;
},
{
background = {
paths = (
{
closed = 1;
nodes = (
"480 -8 OFFCURVE",
"583 106 OFFCURVE",
"583 308 CURVE SMOOTH",
"583 499 OFFCURVE",
"446 705 OFFCURVE",
"187 740 CURVE",
"152 630 LINE",
"306 609 OFFCURVE",
"432 498 OFFCURVE",
"432 337 CURVE",
"474 332 LINE",
"448 425 OFFCURVE",
"385 470 OFFCURVE",
"283 470 CURVE SMOOTH",
"137 470 OFFCURVE",
"34 372 OFFCURVE",
"34 232 CURVE SMOOTH",
"34 89 OFFCURVE",
"142 -8 OFFCURVE",
"299 -8 CURVE SMOOTH"
);
},
{
closed = 1;
nodes = (
"232 114 OFFCURVE",
"194 154 OFFCURVE",
"194 232 CURVE SMOOTH",
"194 311 OFFCURVE",
"232 351 OFFCURVE",
"305 351 CURVE SMOOTH",
"377 351 OFFCURVE",
"415 311 OFFCURVE",
"415 232 CURVE SMOOTH",
"415 156 OFFCURVE",
"376 114 OFFCURVE",
"305 114 CURVE SMOOTH"
);
},
{
closed = 1;
nodes = (
"577 590 LINE",
"556 671 LINE",
"151 563 LINE",
"173 481 LINE"
);
}
);
};
guideLines = (
{
angle = 90;
position = "{293, 674}";
},
{
angle = 90;
position = "{722, 674}";
}
);
layerId = "E1B555A7-F4E1-459C-9C1A-AE952106EEF9";
paths = (
{
closed = 1;
nodes = (
"465 -8 OFFCURVE",
"588 87 OFFCURVE",
"588 328 CURVE SMOOTH",
"588 521 OFFCURVE",
"469 707 OFFCURVE",
"225 740 CURVE",
"182 630 LINE",
"334 609 OFFCURVE",
"451 498 OFFCURVE",
"439 337 CURVE",
"480 332 LINE",
"453 438 OFFCURVE",
"380 470 OFFCURVE",
"291 470 CURVE SMOOTH",
"146 470 OFFCURVE",
"32 375 OFFCURVE",
"32 221 CURVE SMOOTH",
"32 82 OFFCURVE",
"135 -8 OFFCURVE",
"301 -8 CURVE SMOOTH"
);
},
{
closed = 1;
nodes = (
"227 114 OFFCURVE",
"192 161 OFFCURVE",
"192 223 CURVE SMOOTH",
"192 290 OFFCURVE",
"224 351 OFFCURVE",
"308 351 CURVE SMOOTH",
"379 351 OFFCURVE",
"414 308 OFFCURVE",
"414 245 CURVE SMOOTH",
"414 174 OFFCURVE",
"382 114 OFFCURVE",
"299 114 CURVE SMOOTH"
);
},
{
closed = 1;
nodes = (
"604 590 LINE",
"589 671 LINE",
"176 563 LINE",
"191 481 LINE"
);
}
);
width = 617;
}
);
leftKerningGroup = o;
leftMetricsKey = o;
rightKerningGroup = o;
unicode = 00F0;
userData = {
com.typemytype.robofont.layerData = {
b = {
anchors = (
);
components = (
);
contours = (
);
lib = {
};
name = eth;
unicodes = (
);
width = 1230;
};
};
};
},
{
glyphname = dcaron;
lastChange = "2016-09-21 08:56:34 +0000";
layers = (
{
background = {
components = (
{
name = d;
}
);
paths = (
{
closed = 1;
nodes = (
"602 728 LINE",
"541 728 LINE",
"541 533 LINE",
"575 533 LINE"
);
}
);
};
components = (
{
name = d;
}
);
layerId = "9E718F8A-2CEA-4931-B05D-987794BD97DA";
paths = (
{
closed = 1;
nodes = (
"639 728 LINE",
"578 728 LINE",
"564 533 LINE",
"598 533 LINE"
);
}
);
width = 589;
},
{
background = {
components = (
{
name = d;
}
);
paths = (
{
closed = 1;
nodes = (
"684 728 LINE",
"602 728 LINE",
"602 528 LINE",
"657 528 LINE"
);
}
);
};
components = (
{
name = d;
}
);
layerId = "E1B555A7-F4E1-459C-9C1A-AE952106EEF9";
paths = (
{
closed = 1;
nodes = (
"721 728 LINE",
"639 728 LINE",
"624 528 LINE",
"679 528 LINE"
);
}
);
width = 635;
}
);
leftKerningGroup = o;
leftMetricsKey = d;
widthMetricsKey = d;
rightKerningGroup = lcaron;
unicode = 010F;
},
{
glyphname = dcroat;
lastChange = "2016-09-21 08:57:31 +0000";
layers = (
{
background = {
paths = (
{
closed = 1;
nodes = (
"602 582 LINE",
"602 628 LINE",
"247 628 LINE",
"247 582 LINE"
);
},
{
closed = 1;
nodes = (
"504 728 LINE",
"448 728 LINE",
"448 367 LINE",
"460 375 LINE",
"437 464 OFFCURVE",
"370 513 OFFCURVE",
"275 513 CURVE SMOOTH",
"140 513 OFFCURVE",
"52 412 OFFCURVE",
"52 255 CURVE SMOOTH",
"52 97 OFFCURVE",
"142 -7 OFFCURVE",
"275 -7 CURVE SMOOTH",
"370 -7 OFFCURVE",
"437 42 OFFCURVE",
"460 131 CURVE",
"448 139 LINE",
"448 0 LINE",
"504 0 LINE"
);
},
{
closed = 1;
nodes = (
"174 43 OFFCURVE",
"111 122 OFFCURVE",
"111 255 CURVE SMOOTH",
"111 387 OFFCURVE",
"174 463 OFFCURVE",
"281 463 CURVE SMOOTH",
"388 463 OFFCURVE",
"448 386 OFFCURVE",
"448 253 CURVE SMOOTH",
"448 120 OFFCURVE",
"388 43 OFFCURVE",
"280 43 CURVE SMOOTH"
);
}
);
};
layerId = "9E718F8A-2CEA-4931-B05D-987794BD97DA";
paths = (
{
closed = 1;
nodes = (
"349 -7 OFFCURVE",
"427 41 OFFCURVE",
"450 121 CURVE",
"440 139 LINE",
"429 0 LINE",
"484 0 LINE",
"541 728 LINE",
"486 728 LINE",
"458 367 LINE",
"472 375 LINE",
"452 462 OFFCURVE",
"381 513 OFFCURVE",
"286 513 CURVE SMOOTH",
"147 513 OFFCURVE",
"52 403 OFFCURVE",
"52 236 CURVE SMOOTH",
"52 88 OFFCURVE",
"138 -7 OFFCURVE",
"265 -7 CURVE SMOOTH"
);
},
{
closed = 1;
nodes = (
"171 43 OFFCURVE",
"111 113 OFFCURVE",
"111 232 CURVE SMOOTH",
"111 376 OFFCURVE",
"177 463 OFFCURVE",
"285 463 CURVE SMOOTH",
"392 463 OFFCURVE",
"450 397 OFFCURVE",
"450 275 CURVE SMOOTH",
"450 131 OFFCURVE",
"384 43 OFFCURVE",
"275 43 CURVE SMOOTH"
);
},
{
closed = 1;
nodes = (
"628 582 LINE",
"632 628 LINE",
"277 628 LINE",
"273 582 LINE"
);
}
);
width = 589;
},
{
background = {
paths = (
{
closed = 1;
nodes = (
"665 549 LINE",
"665 660 LINE",
"225 660 LINE",
"225 549 LINE"
);
},
{
closed = 1;
nodes = (
"577 728 LINE",
"416 728 LINE",
"416 393 LINE",
"430 412 LINE",
"407 478 OFFCURVE",
"340 520 OFFCURVE",
"259 520 CURVE SMOOTH",
"127 520 OFFCURVE",
"35 417 OFFCURVE",
"35 258 CURVE SMOOTH",
"35 99 OFFCURVE",
"128 -8 OFFCURVE",
"259 -8 CURVE SMOOTH",
"340 -8 OFFCURVE",
"407 33 OFFCURVE",
"430 99 CURVE",
"418 122 LINE",
"418 0 LINE",
"577 0 LINE"
);
},
{
closed = 1;
nodes = (
"237 114 OFFCURVE",
"195 166 OFFCURVE",
"195 258 CURVE SMOOTH",
"195 348 OFFCURVE",
"235 398 OFFCURVE",
"307 398 CURVE SMOOTH",
"378 398 OFFCURVE",
"418 347 OFFCURVE",
"418 256 CURVE SMOOTH",
"418 164 OFFCURVE",
"378 114 OFFCURVE",
"307 114 CURVE SMOOTH"
);
}
);
};
layerId = "E1B555A7-F4E1-459C-9C1A-AE952106EEF9";
paths = (
{
closed = 1;
nodes = (
"327 -8 OFFCURVE",
"389 28 OFFCURVE",
"418 87 CURVE",
"408 122 LINE",
"399 0 LINE",
"558 0 LINE",
"615 728 LINE",
"453 728 LINE",
"427 393 LINE",
"441 430 LINE",
"409 487 OFFCURVE",
"354 520 OFFCURVE",
"278 520 CURVE SMOOTH",
"133 520 OFFCURVE",
"35 399 OFFCURVE",
"35 246 CURVE SMOOTH",
"35 86 OFFCURVE",
"123 -8 OFFCURVE",
"251 -8 CURVE SMOOTH"
);
},
{
closed = 1;
nodes = (
"239 113 OFFCURVE",
"195 155 OFFCURVE",
"195 246 CURVE SMOOTH",
"195 342 OFFCURVE",
"242 399 OFFCURVE",
"309 399 CURVE SMOOTH",
"382 399 OFFCURVE",
"419 356 OFFCURVE",
"419 274 CURVE SMOOTH",
"419 169 OFFCURVE",
"379 113 OFFCURVE",
"306 113 CURVE SMOOTH"
);
},
{
closed = 1;
nodes = (
"688 549 LINE",
"696 660 LINE",
"256 660 LINE",
"248 549 LINE"
);
}
);
width = 635;
}
);
leftKerningGroup = o;
leftMetricsKey = d;
widthMetricsKey = d;
rightKerningGroup = l;
unicode = 0111;
userData = {
com.typemytype.robofont.layerData = {
b = {
anchors = (
);
components = (
);
contours = (
);
lib = {
};
name = dcroat;
unicodes = (
);
width = 1181;
};
};
};
},
{
glyphname = e;
lastChange = "2016-09-21 08:56:34 +0000";
layers = (
{
anchors = (
{
name = bottom;
position = "{277, 0}";
},
{
name = ogonek;
position = "{371, 10}";
},
{
name = top;
position = "{306, 506}";
}
);
background = {
anchors = (
{
name = bottom;
position = "{277, 0}";
},
{
name = ogonek;
position = "{371, 10}";
},
{
name = top;
position = "{306, 506}";
}
);
paths = (
{
closed = 1;
nodes = (
"462 106 LINE",
"409 63 OFFCURVE",
"356 43 OFFCURVE",
"295 43 CURVE SMOOTH",
"176 43 OFFCURVE",
"111 118 OFFCURVE",
"111 254 CURVE SMOOTH",
"111 386 OFFCURVE",
"177 466 OFFCURVE",
"285 466 CURVE SMOOTH",
"389 466 OFFCURVE",
"445 394 OFFCURVE",
"441 264 CURVE",
"462 304 LINE",
"100 304 LINE",
"101 259 LINE",
"493 259 LINE",
"493 272 LINE SMOOTH",
"493 424 OFFCURVE",
"415 513 OFFCURVE",
"285 513 CURVE SMOOTH",
"147 513 OFFCURVE",
"52 408 OFFCURVE",
"52 252 CURVE SMOOTH",
"52 90 OFFCURVE",
"145 -7 OFFCURVE",
"296 -7 CURVE SMOOTH",
"368 -7 OFFCURVE",
"441 20 OFFCURVE",
"484 62 CURVE"
);
}
);
};
guideLines = (
{
angle = 90;
position = "{425, 192}";
}
);
layerId = "9E718F8A-2CEA-4931-B05D-987794BD97DA";
paths = (
{
closed = 1;
nodes = (
"452 104 LINE",
"402 62 OFFCURVE",
"341 43 OFFCURVE",
"282 43 CURVE SMOOTH",
"169 43 OFFCURVE",
"111 116 OFFCURVE",
"111 231 CURVE SMOOTH",
"111 377 OFFCURVE",
"177 466 OFFCURVE",
"300 466 CURVE SMOOTH",
"397 466 OFFCURVE",
"458 400 OFFCURVE",
"443 280 CURVE",
"466 304 LINE",
"104 304 LINE",
"102 259 LINE",
"495 259 LINE",
"513 427 OFFCURVE",
"431 513 OFFCURVE",
"296 513 CURVE SMOOTH",
"146 513 OFFCURVE",
"52 401 OFFCURVE",
"52 234 CURVE SMOOTH",
"52 88 OFFCURVE",
"138 -7 OFFCURVE",
"281 -7 CURVE SMOOTH",
"351 -7 OFFCURVE",
"431 19 OFFCURVE",
"472 60 CURVE"
);
}
);
width = 542;
},
{
anchors = (
{
name = bottom;
position = "{287, 0}";
},
{
name = ogonek;
position = "{393, 10}";
},
{
name = top;
position = "{306, 511}";
}
);
background = {
paths = (
{
closed = 1;
nodes = (
"467 161 LINE",
"425 129 OFFCURVE",
"371 112 OFFCURVE",
"319 112 CURVE SMOOTH",
"229 112 OFFCURVE",
"188 157 OFFCURVE",
"188 269 CURVE SMOOTH",
"188 361 OFFCURVE",
"224 409 OFFCURVE",
"289 409 CURVE SMOOTH",
"350 409 OFFCURVE",
"382 368 OFFCURVE",
"382 287 CURVE",
"421 318 LINE",
"178 318 LINE",
"177 239 LINE",
"518 239 LINE",
"518 262 LINE SMOOTH",
"518 421 OFFCURVE",
"428 520 OFFCURVE",
"285 520 CURVE SMOOTH",
"138 520 OFFCURVE",
"34 411 OFFCURVE",
"34 255 CURVE SMOOTH",
"34 93 OFFCURVE",
"139 -8 OFFCURVE",
"312 -8 CURVE SMOOTH",
"383 -8 OFFCURVE",
"460 15 OFFCURVE",
"509 54 CURVE"
);
}
);
};
guideLines = (
{
angle = 90;
position = "{633, 564}";
}
);
layerId = "E1B555A7-F4E1-459C-9C1A-AE952106EEF9";
paths = (
{
closed = 1;
nodes = (
"460 161 LINE",
"415 129 OFFCURVE",
"368 112 OFFCURVE",
"313 112 CURVE SMOOTH",
"231 112 OFFCURVE",
"188 155 OFFCURVE",
"188 245 CURVE SMOOTH",
"188 361 OFFCURVE",
"228 409 OFFCURVE",
"298 409 CURVE SMOOTH",
"354 409 OFFCURVE",
"389 372 OFFCURVE",
"385 303 CURVE",
"426 318 LINE",
"182 318 LINE",
"175 239 LINE",
"515 239 LINE",
"537 418 OFFCURVE",
"442 520 OFFCURVE",
"292 520 CURVE SMOOTH",
"145 520 OFFCURVE",
"34 406 OFFCURVE",
"34 241 CURVE SMOOTH",
"34 90 OFFCURVE",
"140 -8 OFFCURVE",
"302 -8 CURVE SMOOTH",
"376 -8 OFFCURVE",
"449 15 OFFCURVE",
"494 54 CURVE"
);
}
);
width = 551;
}
);
leftKerningGroup = o;
leftMetricsKey = o;
rightKerningGroup = e;
unicode = 0065;
userData = {
anchors = (
);
b = {
};
com.typemytype.robofont.layerData = {
b = {
anchors = (
);
components = (
);
contours = (
);
lib = {
};
name = e;
unicodes = (
);
width = 1132;
};
};
components = (
);
contours = (
);
lib = {
};
name = e;
unicodes = (
);
width = 1132;
};
},
{
color = 4;
glyphname = eogonek;
lastChange = "2016-09-21 08:56:34 +0000";
layers = (
{
anchors = (
{
name = top;
position = "{306, 506}";
}
);
background = {
anchors = (
{
name = top;
position = "{306, 506}";
}
);
paths = (
{
closed = 1;
nodes = (
"434 -197 OFFCURVE",
"463 -189 OFFCURVE",
"484 -174 CURVE",
"468 -134 LINE",
"446 -146 OFFCURVE",
"425 -153 OFFCURVE",
"407 -153 CURVE SMOOTH",
"364 -153 OFFCURVE",
"337 -127 OFFCURVE",
"337 -85 CURVE SMOOTH",
"337 -43 OFFCURVE",
"363 -12 OFFCURVE",
"434 28 CURVE SMOOTH",
"467 46 OFFCURVE",
"475 53 OFFCURVE",
"484 63 CURVE",
"462 106 LINE",
"409 63 OFFCURVE",
"356 43 OFFCURVE",
"295 43 CURVE SMOOTH",
"176 43 OFFCURVE",
"111 118 OFFCURVE",
"111 254 CURVE SMOOTH",
"111 386 OFFCURVE",
"177 466 OFFCURVE",
"285 466 CURVE SMOOTH",
"389 466 OFFCURVE",
"445 394 OFFCURVE",
"441 264 CURVE",
"462 304 LINE",
"100 304 LINE",
"101 259 LINE",
"493 259 LINE",
"493 272 LINE SMOOTH",
"493 424 OFFCURVE",
"415 513 OFFCURVE",
"285 513 CURVE SMOOTH",
"147 513 OFFCURVE",
"52 408 OFFCURVE",
"52 252 CURVE SMOOTH",
"52 90 OFFCURVE",
"145 -7 OFFCURVE",
"296 -7 CURVE SMOOTH",
"321 -7 OFFCURVE",
"336 -4 OFFCURVE",
"363 5 CURVE",
"349 13 LINE",
"308 -11 OFFCURVE",
"285 -48 OFFCURVE",
"285 -91 CURVE SMOOTH",
"285 -154 OFFCURVE",
"333 -197 OFFCURVE",
"402 -197 CURVE SMOOTH"
);
}
);
};
layerId = "9E718F8A-2CEA-4931-B05D-987794BD97DA";
paths = (
{
closed = 1;
nodes = (
"402 -197 OFFCURVE",
"434 -186 OFFCURVE",
"452 -174 CURVE",
"439 -133 LINE",
"416 -147 OFFCURVE",
"393 -153 OFFCURVE",
"376 -153 CURVE SMOOTH",
"336 -153 OFFCURVE",
"312 -131 OFFCURVE",
"312 -89 CURVE SMOOTH",
"312 -54 OFFCURVE",
"328 -14 OFFCURVE",
"414 22 CURVE SMOOTH",
"441 33 OFFCURVE",
"462 49 OFFCURVE",
"472 60 CURVE",
"452 104 LINE",
"402 62 OFFCURVE",
"343 43 OFFCURVE",
"282 43 CURVE SMOOTH",
"169 43 OFFCURVE",
"111 116 OFFCURVE",
"111 231 CURVE SMOOTH",
"111 399 OFFCURVE",
"194 466 OFFCURVE",
"300 466 CURVE SMOOTH",
"397 466 OFFCURVE",
"458 400 OFFCURVE",
"443 280 CURVE",
"466 304 LINE",
"104 304 LINE",
"102 259 LINE",
"495 259 LINE",
"513 427 OFFCURVE",
"429 513 OFFCURVE",
"296 513 CURVE SMOOTH",
"146 513 OFFCURVE",
"52 401 OFFCURVE",
"52 234 CURVE SMOOTH",
"52 88 OFFCURVE",
"138 -7 OFFCURVE",
"281 -7 CURVE SMOOTH",
"302 -7 OFFCURVE",
"317 -4 OFFCURVE",
"344 5 CURVE",
"332 13 LINE",
"289 -6 OFFCURVE",
"259 -44 OFFCURVE",
"259 -98 CURVE SMOOTH",
"259 -157 OFFCURVE",
"302 -197 OFFCURVE",
"370 -197 CURVE SMOOTH"
);
}
);
width = 542;
},
{
anchors = (
{
name = top;
position = "{306, 511}";
}
);
background = {
anchors = (
{
name = top;
position = "{325, 511}";
}
);
paths = (
{
closed = 1;
nodes = (
"441 -204 OFFCURVE",
"477 -196 OFFCURVE",
"508 -183 CURVE",
"491 -108 LINE",
"471 -117 OFFCURVE",
"452 -121 OFFCURVE",
"435 -121 CURVE SMOOTH",
"396 -121 OFFCURVE",
"374 -102 OFFCURVE",
"374 -66 CURVE SMOOTH",
"374 -31 OFFCURVE",
"395 -7 OFFCURVE",
"450 21 CURVE SMOOTH",
"487 38 OFFCURVE",
"499 45 OFFCURVE",
"509 54 CURVE",
"467 161 LINE",
"425 129 OFFCURVE",
"371 112 OFFCURVE",
"319 112 CURVE SMOOTH",
"229 112 OFFCURVE",
"188 157 OFFCURVE",
"188 269 CURVE SMOOTH",
"188 357 OFFCURVE",
"224 409 OFFCURVE",
"289 409 CURVE SMOOTH",
"350 409 OFFCURVE",
"382 368 OFFCURVE",
"382 287 CURVE",
"421 318 LINE",
"178 318 LINE",
"177 239 LINE",
"518 239 LINE",
"518 262 LINE SMOOTH",
"518 421 OFFCURVE",
"428 520 OFFCURVE",
"285 520 CURVE SMOOTH",
"138 520 OFFCURVE",
"34 411 OFFCURVE",
"34 255 CURVE SMOOTH",
"34 93 OFFCURVE",
"139 -8 OFFCURVE",
"312 -8 CURVE SMOOTH",
"327 -8 OFFCURVE",
"343 -6 OFFCURVE",
"364 -3 CURVE",
"334 13 LINE",
"293 -10 OFFCURVE",
"272 -48 OFFCURVE",
"272 -90 CURVE SMOOTH",
"272 -156 OFFCURVE",
"326 -204 OFFCURVE",
"404 -204 CURVE SMOOTH"
);
}
);
};
guideLines = (
{
angle = 90;
position = "{623, 532}";
}
);
layerId = "E1B555A7-F4E1-459C-9C1A-AE952106EEF9";
paths = (
{
closed = 1;
nodes = (
"409 -204 OFFCURVE",
"442 -196 OFFCURVE",
"474 -183 CURVE",
"463 -108 LINE",
"440 -117 OFFCURVE",
"421 -121 OFFCURVE",
"404 -121 CURVE SMOOTH",
"371 -121 OFFCURVE",
"349 -102 OFFCURVE",
"349 -69 CURVE SMOOTH",
"349 -34 OFFCURVE",
"370 -9 OFFCURVE",
"432 17 CURVE SMOOTH",
"460 28 OFFCURVE",
"482 41 OFFCURVE",
"494 54 CURVE",
"460 161 LINE",
"415 129 OFFCURVE",
"368 112 OFFCURVE",
"313 112 CURVE SMOOTH",
"231 112 OFFCURVE",
"188 155 OFFCURVE",
"188 245 CURVE SMOOTH",
"188 361 OFFCURVE",
"228 409 OFFCURVE",
"298 409 CURVE SMOOTH",
"354 409 OFFCURVE",
"389 372 OFFCURVE",
"385 303 CURVE",
"426 318 LINE",
"182 318 LINE",
"175 239 LINE",
"515 239 LINE",
"537 418 OFFCURVE",
"442 520 OFFCURVE",
"292 520 CURVE SMOOTH",
"145 520 OFFCURVE",
"34 406 OFFCURVE",
"34 241 CURVE SMOOTH",
"34 90 OFFCURVE",
"140 -8 OFFCURVE",
"302 -8 CURVE SMOOTH",
"309 -8 OFFCURVE",
"323 -6 OFFCURVE",
"344 -3 CURVE",
"315 13 LINE",
"271 -5 OFFCURVE",
"245 -46 OFFCURVE",
"245 -94 CURVE SMOOTH",
"245 -158 OFFCURVE",
"295 -204 OFFCURVE",
"376 -204 CURVE SMOOTH"
);
}
);
width = 551;
}
);
leftKerningGroup = o;
leftMetricsKey = e;
widthMetricsKey = e;
rightKerningGroup = e;
unicode = 0119;
},
